<mxfile host="65bd71144e">
    <diagram id="6plbeozkJfc9Y36acw0W" name="第 1 页">
        <mxGraphModel dx="2896" dy="720" grid="1" gridSize="10" guides="1" tooltips="1" connect="1" arrows="1" fold="1" page="1" pageScale="1" pageWidth="827" pageHeight="1169" math="0" shadow="0">
            <root>
                <mxCell id="0"/>
                <mxCell id="1" parent="0"/>
                <mxCell id="3" value="" style="shape=image;verticalLabelPosition=bottom;labelBackgroundColor=default;verticalAlign=top;aspect=fixed;imageAspect=0;image=data:image/png,iVBORw0KGgoAAAANSUhEUgAAA2IAAAOOCAYAAABiKaFrAAAAAXNSR0IArs4c6QAAAARnQU1BAACxjwv8YQUAAAAJcEhZcwAADsMAAA7DAcdvqGQAAL/iSURBVHhe7P3/82TVfd/78hfcipOTKLYUG2OEsIWRwBhkgWFgbCQNjIQ8gWHkYEkMMEaa4UscQhQ89kA4RkCYcCywQRcFEhnm6mBkzkSHQZlbhQ9KohsdlSnX9ZXLqpRKVb45v7qiqnt+Sd27bq+99+p+73e/15fdvXp/uvvz/OFRn95rvdfau798+rNfs3b3nHPhRZc5ANhuD7rf/+PX3Kt//Ir7H3/d6od33zOTx+iZB80+AABQF0EMAAAAAEZGEAMAAACAkRHEAAAAAGBk5/y9H/8HLufCn/159xPvOdfsAwDp3e/90K5nPS4AAGy297i/+/eFd73b/Q/e3/sJ93f+3o+7v/N3f9z97b/7992v/uqvTv30e9+PhHPe/Q/OczkfvOQX3U/+9AVm33J+xb3vvofdL31h5qKPWnXrZHbM63+sO+C6D7lff/gm92s3G30p/+hvu6+d/NvufqsPlVzoPnfbr7h/8ZELjb56zr1o7466/uO/4p68a+IWu38M1uMyno+6e/aedP/Tvom997pfEX2/fmXXvu8L7tdFe99PuUd/7xz3+//I6ltUO+fXTk783rsS+wYArKefdj/xHuHd57off/dPub//E95PundNgtq7/v4krE0CGkGs3Dk/+dPvm4SstCs+9MvuZy64yOxbxvt+60vu2hP/xP2M0Te+/e7nT0yO57duN/qkru6JL7lfOGD1b7Ab9rjffOYfuds+a/SVWmSOm37CvfHVc9ypu40+1HPph90fPLDf/d5eo6+i9/7Cjatx4373ryfH/5tWn/CJQ23dv77d7h+D9biM5Tf3/lv38o2/4z5u9AXZmrv/B/e/VfydfPjJc9z/9vxPuN80+gAAG+DcC9w/CH7qve493k+e7979kz/jfmIS1Hw4+/FJOPv7k3BGECt3jtWoXXX1XnfBz33Q7FvcMfeh5/6t+9CvW3074WZ3yVP/1n30d48ZfbvEgY+4f/zVO92Rzxt9pQbP8dPuzW+c4/7zF99n9KGqfR91f/LwJ9zvXWH0VfSzH/qHK3Hr7Te7P3lw8tPoWzfW4zKOf+q+/Bv/zn059xxf/KR77Tf+Z/fkxUZf5x9/8f/i/l/feJf7V0bfMO3v+Jv/xOoDAGyCc8//uamf+pmfnbjQ/eR5PqT5cOaD2SyUEcTKnXP++y52OXuu+6j72Z+/zOxb2Ecfd7/y1dfcVZ81+nbEr7tf/MPX3P4v/hOjb5c4dKN76OtH3T3/2OgrNXCO5//oHPf//l9/0j1k9KGuQ5/5h+7sE/vdg0ZfTRdd9amV+P0Tv+7O/hO7b91Yj8s4fse9fMdb7uUrrT7hkmfdN+94wz1zidE39XPu9P86+f38o/ONviHOd//xT89x//G3rT4AwPr7efczFwQXufPeO3H+JEj4YOZD2XmTUPbT75sGsjGC2Lnn/6z7ycn+/sFP/cxGO+e9P3uJy9n7qze493/gcrNvYTf+K/eRV99w19xl9P3sZ9wV//oN98mT/7zXfsnJSdu//lfu/XLb19z1gvvkZK7Wa+6KG2djpno1b7iP/PZn2vbuOGSfNDu+7pimfZH9TLz/t18TdRPW/Sg97qhfdb915n73W//M6rvS3f7q/e7Ev7xy2vbhf3nEnZzUT716k/twrK/nNvfxrm7qn93Wq5H7ee9tN7kTZ464229rj8GsmXqv+7P/fI77s0d0e9/xf/IZ9x+elj7pjuu6X/tkv+ZffMT9huj/jTtunR939Ufcv3/6VvcHV4e2Pe6VydhXfm1yuzefrOnXzmqMY2rmz9RUlT6m5nH0j0vvuOof08XXfHrqxD8P+2n9+3tmfd7zv9e1fbpfdyLUqHbt1Kdnc52KtGt+n7E5Lr7p081j8/zkZ+/Yf+/T7nYxR8M4tjCX9biM41H3x3f/Z/fHc69X5bIX3Nt3v+VeuMzokx75cfc3//lvuX9/2OgrVvZ7DgBYVx90518YfMD9zCSc/cwFF08C2c9PwtgkFP3Mz03C2CQYNWHsglGC2DaEMO+c9/3cpS7nVz+y3130wQ+ZfcPc7n7pq2fdgdcjvvqMu0jWfel4b/ylX5I13bY1TtR4F/3u6abu2rtl279xv/Tx2XZsn6a7/81kvtNqfKs9pn/jLp22HXfX9o6x/LjTPuIe/L8/4B59+pejfQ8+1G0/9GlV1/Z/6d98RLRNfPrX3KNynOGqpz/nvqRqrnr60+7OT3fb3Ry9msn+9ZjG7/2E+z/f+VvuT+9S7VMfdl9+7Hb3ncc+5j5j9rdO/LNJzbO/7r68J7Rd5159dtL2z67r16h5PnPk1yfjDrgToW3Px9xbk3le/WeT9mltdwxirnbc7e7Vm7tx3s0H3FtHPqxq5DHZx1BL/pja+/HWY/I+z9+3Gj5w7Wcbf+yfgyc+6+7stj/w2cn2pO2PP9ttdzV/fLxtf7Rr+8oTk+3js5rGr33W/akaKz06mSM53uvmkH133t/u+yuTvqYtHKM/plBn7HtunGI9LuP4ojt99M/cafG6M/3iv3H/j6P/0b30i0Zfz/vcX7xzjvuL37P6StWYAwCwcy5xF0wCWeuD7r2TMOZXypoVsvdeJMLYhZOA9L5RgpgVajbROe97/y+4nI987BPu5y/5JbNvYTf9obvh373lrvu80ff+O9yHX3nL3fwHJ3rtv/AHk7ZX/tD9fGTb+/lH3nA3/7s/cr8Q2rr93PDIHdMam71P0+f/aLKPN9yHb1Ltsfuk6ouOO+tqd+QbD7rHvnR1s/3LXzrq/uAb/9D9su/77D90j/3pUXfks3rMzK/90YOz+qAZ96D7wu+INqM/7NNkzvEx9wVj3GMv/Zj779/+afeYaOvb677+3B3uW3dfafR1Dt7s/uy529xXru233373bZP2m92/aLavnJycz8/zL/75He7PnrjB3R7amrlUWzf2z/753nb72hvctyY1Xz8Y+g1NjT6m9r5M56mp5JjC/qePSWvuMajgg9cddo+dmMz71GF3ZHLbbwcvPTVpP9Ft/8PD7j80x3SHe0zUmGMPz9fF9PZR0P4nk3n/w2+1t4/8VrsfXedr/uTwbDt2/wLrcZn3UffW537L/RfT3e61X7TGZFz7DfeX93zDfdHq6/m8++rh/6f7y1ufNPqki91/+PY57r9/431GX6HH3+3++1+82/3frD4AwPqbhLELgukKWbsydt4kjP30JIw1nx3rVsUIYuWK/kPnj+67yV186YfNvoV98nl34xtvu73HjL6L7nJXfu1td8tzj/TaL3tu0va1593FkW3v4ke/6W5545S7LLQdOzXZ/qa78pOzGpu9T1NszqZd7HvqEbdX3Nei4y5w4NQX3HOn9k1uX+PuPjO5/a173N2HJ32Hb3aPf+uwOzCtDf3KmZvd1WK+dtwX3EMnRJs0OTmd7sPq98w59rmHJm2PP3uNaLvMvXrmHOe+c557XLRp/+Nv3+X+/Mut/+XWSP9v/8pc+x2f/43JmFvc/+i3r7vR/ae58Ve5l/7lXe4/ff4qNeY33EvXybq+Zn//8kZ3h9EXtPPMjjuQ+6qp5JguvPWW5hj0Y1g0dqBL9t7pTk/2dfrOO5vb0lf/1WR/j3TbN9/pvm3UPf7IpOZf3enuFm13PzDfFmPuu9vXVyc/e+0Tvv7bD7S3m/3oujvjbY1wfwTrcVmp686479/3Pff9Q0/Z/RFH9n+3GffO/mNm/4UXfcB9+zuT39MzFxp9GU++27m/XHAsAGB9zIUyHcbCqlj7eTGCWDmC2NTmBbGrn72nC1OToDP5eWCy3YSdJjCFIBZCmAxmXYjb4SD2+Fd/LBvEglkgk0HpV9z/MmmzAk4voDUhRAUsI5jkQ0kb3qzgN1NSU1PZ/nrBdGo+jNZgBpeODEkh9DyuanxYC8FItlmBZ05k37F96YBm7Sc61hOBTB6z9biMoglk33WvXGH09Tzl3kwGsKANYv/tqx8w+go1gezH3Lc/Z/QBANZfLohNL08kiA21/UEsuR+pQhCL7UvV1wpiTTDyYWryswk5PgR1gWwWsuwQtFAQy/V7A4LY8BM0HRwiQUytgM2HkC689MJZSaCpVVNT2f7MkGkF1ApKw5C18hUbK1etUmKhKdauj8Haj3mcSjO/qLEel3kfc28ffcD90PR59/rl1picNmC9mXtOrzjl3ikKbBe6//KX57j/8qTVV6rGHACAHUMQW5k1DWKR0DWpHxzEJtqx/eB08aOn5oJUW1cQhqKrbF2Y683RrobJgFd63FlN6LlnEr7CKlW7+uW320sWZ22z7S6ETYLRXBDrApOs1dqx/VWxq589PNseEsS6E7Tif203LjFsV8pEyOpqZDDpB7E2uPyn375lUle2uiZZly/e8flb1PZ8TdyD7uTpt9yrp0+74zdZ/Xn5YzLCWvc42fd3uWPyQcQHGrmyFIKQvGRwbuWrW52yAlfpipgOXKdDODLmbgLWpG0a+roafVmjtUKn6eOzHpdxVA5iVVazCGIAsNEIYiuztkFsGmA6Nz56VxtWFghis/b+fLK/FYLUzOz4+sfTY63ciX69r2pBLAQnEaiayxV16OnC0fSzYZOgNbusMcwVqVWXNHphH4G1r7Ig1n1O7C/f7V5V7dNA1WOFmy5kiDr9OagQskJ/Ez6a1SAR4AasDs0ukxTzZWoa5qrVre74yz70TDzzoNFfJndM1vHMP07BcsfUhJEu1Mj99VajjH5v7rNdsfrYCpWq662sicsIzTm6fus4dYDszTOhg5r1uIyjZhBb4vNhPQQxANhoBLGV2bkgBjQGropto6MvNaHnxYdvtft3whLHJANJVOQSxG1hPS7jqBfEms9wWv9IMhhBDAA2GkHMdPx3Trhvf/vb7u7PHTP7SxDEsPO6b1fbnWEsrD695I6Y/TthuWOygokW+8zWtrAel3Ecc6/c+T33/TtPJZ+79tsSz7gnjL5G9ztZJzx1K2uFX8wDAFgzKwxi51/48+7GTxxoflr9MVaoGRtBDNujOfGr8a/vm2Pfw6fby/9ePun2Gf07ocYxWcFEaz6fVfItiBvKelzG066KNV9nrwLZE4e69uRqWBuc6q5gtatizdfZE8gAYLOsMIjdcug2d+bMm+6xLz4xKIxZoWaVfOh6++233f6Pf9LsXxRBDEBVVjDZbazHBQCAjbTCIOZ9+va73JtvfnNQGLNCzSoRxABsBCuY7DbW4wIAwEZacRDzhoYxK9TE/MEfPue++93vTv3Pr77a6/fbng9boUZecuj75PgQyKxw5m/7NmseL4zxP30fQQxAVVYw2W2sxwUAgI00QhDzQhh7+F/8XjaMhWCT40OUDEtXXnWNO3PmTMPfDjU+NPmfYZwPbzJEWaFLt/laP8aPlTV+bv9Tbof9E8QAVGUFk93GelwAANhIIwUx71O3fda9MQkpuTAWgk6KD0Y+KMkVKavdBzAZzLwQ2EKoKglifh4Z5gLZ7sfIgHfOh67e53J8ELtyzw1mHwAAAIBt9DF3xS8HH3WXX/UR94tXXu8u+/Cvul/40F53yRXXug/+4jXu4l/4Zffzl1zp3v+BX1oqiHnH7vst98Ybb7iPf/Jms9+TQSfGhx4dsLwQsny/3y4NUKkgpueU5HHoeQhiFRy597jZPlSteQAAAIDljRvEworYUyefXnpFTAYg2U4Q20KrCmOEMwAAAOyM8YJYaQjzdNixDLk0UQcxH5R8TQhWOkBZbdY8up0gtiQfjBYRmyvXFhsLAAAArNY4QcyHMP9FHf/T7z+TDWGeDDopPgDJ4BNWrmRg8rf9F2jIL9nQ46xQp0OV77O+rCP1pR9bF8T23PKAO3LksNtj9E1df9h9+t4H3CeuN/oyFglGQ4KYRhADAADAzlh9EBsawrwQdEqEoBXIoBT6g1Ajw5Ksk306VHkhjMXm2fIg9il36yS43Ppxq2/mI58+7o58+lNmX0rNEBak+tcvhP2a+8SR/GPXPL65MAwAAIA1t9og9olfu8WdOfPmoBDmhWBTQwhhVt+qbVcQ+/ixSXg55j5i9U2VhbWxEMQAAACwnlYbxHz4uuXQbYNCmGeFmkURxKpoQ8Knb/k1o2+m6NLFDB+QSlnjtVhd6fjxEMQAAAB2j9UGsUVZoWZRBLEaij73VRbWFrFMaLLG1gxhTTCazKf1Hofm8RP9MkjpPqVdXWxXGq1+b+4xb1YvRY0Od9PVzS78xeoAAACwIgOD2AcJYkNsTRArWoVpTu4X+5KOHB8SrPZSevyy8wVtCBOXa3ahqheMjMfFfjzrrIg1q5K9S0iNeUVQmx5rd+zrclkpAADAdtv+ILaTtiSIrfZLOiyrCE5hjhpztazgpNva7bkVK3OFsUYQizxX0xUwua3r2rFzxwoAAIAVKAlie9ogdilBbKitCGLzKyyGyqspVhCzyJoSi4xJia2IzR6H9CWF/cerQhDr9m/tq7cqt8LVSwAAAJRIB7FLr7iuCWIfuOxqgtgCtiCIRVZ0lBpf0iH54JDaXkSYo8ZcQRtS+4Gn/1gNWWWqF8SygZggBgAAsMOsIPaRNoj90q/sWBD7yXPfawabTbP5Qcy8hE4rC2tD6LCkt4eqPV+r5JLNsnDVqhDESoMfQQwAAGANyCD20bkgdsnlIYhd5S764IdHCWLnnv+zWxHGNj6INSf9uRChP3+0pBCSZFhaJjjFxi4fxoaEnrKgOnepo6FdhYuHqLBKlwyIBDEAAIA1MFsVSwWxi39hEsQuGSeIbYsND2IlKz6FYa2QDkd+u4Qco8dafUFJTVIXsuboFSurzlzV6lbFRJ31+LeBbUaHPOuSyd5zRBADAABYA/0gdvkkiP3ih693l02CWPOFHZfPvjnx/QSxQTY6iLUn8+N9SYcPC1b7UCF4WH0xi4yJ3veuvealmgAAANhGKohFvjmxuTxxEsSuueZaglihDQ5iZZ/7asJaxS/p2CjdKtdcEIu1AwAAAD2zIDb3zYny8sRuVeyyK64iiBXa/C/rQJJ5CSCX/AEAAKBQP4i1nxPrXZ7YWxW70n34yqsJYgUIYgAAAAASZqtic5cnTlfF2s+KhTDmV8bOv/BiM4CgRRADAAAAkDALYvL/E5OrYuESxRDG/GWK/ivtfSjz36bov9re/z9jPR/Y3QhiAAAAAJJmQWx+VawfxrrLFEUg819t34SyS69sTcJZcNEuRhADAAAAkKFXxRJh7Ipru9Wx2QqZ1IYznHPhRZe5HB/ELr70w2YfAAAAgF3i/b/g3jd1qbvg57xL3Ht/1vuge++FH3TnX/gBd/77LnY/E1zw81PnTV3Ueu/uRRADAAAAUKYXxPph7IImjKlA1oWyYBrOQBADAAAAMEA0jBmBrAtlwTScgSAGAAAAYKC5MDYxDWNdIOuFMqkLaLvcZgexY6fcLW+8PfPcI3YdAAAAgLom4csMZO+/VIUyqQto2JYVsbvclV9bPohd9txkjq897y42+nbGre74y2+5V5950OibOfLMpOblk26f0QcAAACs1CR82YHMm4SyLpil2KFtuxHEBIIYAAAAsIBJ6EoHMmgEMYEgBgAAAFQwCRoEs7RdEsS6/unnyb7prvxk6HvE7ZWfM1NufPQuMU+ZfQ+fdq+enoQjTQaqm066F2WfDFK6Tzl51Nc96E4afcGLD98625d39KV+jQ53Tf9L7kgIf7G6xgPuy2fPurNnv+LunesDAAAAlEnwQN8uCGJt0OoFquZLPmQYa9VYEWtD2Gl3/KbQ1gUmGWia0CNrYqtadVbE2mPyISu0GfOKoDYNcV0gbIOfRBADAAAAlrH1QeziR79phKu2Xq921QhiVijqt7UhaG7Fqgk9/XBWJ4i1QXAuTE1XwOS2rmvHzh0rAAAAgKVsfRBrwpW63HBK1a9yRWwWZtKXFPaDUIUglrzMURynsUoHAAAAYDV2RxArDFc1gpi8xG+qF6SGrDLVC2LzlxcqBDEAAABgNLvj0sQ3TrnLVLtl+SAWueywpyxctepdmpgNfgQxAAAAYDS75ss6SgJWG9rmv8SjXGHI6lbNSlbFmpDV+6KNefOXQ1r9mVWxQUEsfFnH191jB6x+AAAAACkbHcTa4DQJWXN0mLK+ot4OXPozZYO/vj76mSwVpqxLGM1VrS7ciTorULWBbUaHvBDGemRgHBTEDrrHXvNB7Kx77bGDRj8AAACAlC1ZEVsXscsAuy/oKLoccUPc9xWCGAAAALAgglhN3WrYXBCLtW+ssCLG/yMGAAAALIIgVpt1yeFE9lsLN8S9L7SXJJ597Un3caMfAAAAQB5BDAAAAABGRhADAAAAgJERxAAAAABgZAQxAAAAABgZQWxBR+49brajPv9Y51jjVim2z504Fmldj2tZyx6/Nb72nKXzxeqGHo+vz7HGYXmxx7bGY77oHDXHLTJXjfuO8sexxvMWq+e5BMZDEFtQrTcqP0+ONW43yT0GJY+RfDxTrLGB7C+5PQZrf6VtJfw4i1XrWbUx1viURcYE1tgh88VqQ3vNuUrl6ofOhzL+cQ1K2mNidaXjtdrjhs6n6/12jKzbDYY8Brn+wKopGSfF6ofOA2BxBLEF1Xqj0vPktnej3GNQ4zEqnSPU6Z+6f0y5Y8gdk+/XZJ+sjbUFpfWpOWIWGRPUOAZZ72/HyDFaqj83VltmXxjGP5ZBSXuMNV5ux9qksL8hrHkC2a/HaXKcpvvlduz2bpF7bALZJ2ssclyKNdaL9YX21FgA9WxdELt0//3uyB0H3aVG39TlB91t997vrr/c6CuUehPTrLpA9+e2d6PwOKZY40otMj42Rh5TYNXVlNpHyf51jdy2xg/d39A5Al9TwhoryRo9VpJjLLEa2Z6aJ+xHS/XL8ZpVr1njMFzssRz6GFv1um3R523scVrqfsRu7xapx0YLfSU1pe0Wq1a3DZkPwGK2LIjd4A5M3jgOXGv1zVx1aHKScugGsy/FvynFyBo9Rm5rco4Ya9xuknsMSvt1nd+WbbG60JZijdPbY5DHpFn1nu6T29a4IXMNadNWXVMytoScJzWn1RfaUn0xy/bX1Lyn5v4B7Nq7Jse03D+A7ZTYYzn0MbbqdVvpnL4uxxrnWbVe6LPqdVtot4Q+WWfd3i30Y5J6DEoen1hNyVhP1oXby865nD3u+jsmr53MeVnR+wywYbYriDV/6O9yV1l9U2VhLUW/MVlvarFtLVefG78bDH0MNdk/9LYW+vRPfdvaHkNsn6ljSR23v22R9ZJVG2ONl2rUxPZVMndKmNdi1XtWX2hL9cUs21/TbghiWmjXtSkl9aVz5uqWmUe2LTpPbI7S+bZJuM/Wz5QwXtJ9sl6T42L1oU3XSbJ2NQhi2L22KIi1v8i37d9j9M0UXbqYod+Q5Haqz5Krz43fDfxjkGONC3R/2NY/db8m263bpfPU4OeWZLusy7V7cp5A9snaWFtQWp+aI6hR4/tDTbidY43XfbHbKVadnlf3We1BGJtijVuF3bYiFrblY63J+iDWLpXUeLm6ofP4nyX0+ED3ye3Y7d0i3Gf9U/dbfZrvL6nPzePpeWLkmNUgiGH32p4gVvS5r7KwlqPfmOR2qs/i+3Osca3uzUvWG29STfiUNerNznpza8fI1cXZSmJ/PmMFsnkuQv+E9ebanJRlairx8y/brtti27LdmmcVSvaZOhbdl5tvyFxD2rRla0LfovvX5JjY7ZTccej+0nkXNfe+EPR+F/V7jHyPbd8TemOF8D7bvL8Y/Q39fqXfO+bezwa8D1Xk92Ftx9pjlu2XfG2ONU6L1ZWOD0K9/Bkjx7W2+2+Zb7d+6n6rT7LG+9sxocaS6y9R9B6S+p3WfUp75VLZ+8xU7vlo+v1zrV5z1nMLjGBrgthY/yLrf2FTbbrfqpdy9anxJfe5PQma/yMkxw354+WPZ1bbvZHJN7DuTbD35jhpk5eCzs89P0+znwWFOeRc1rb+qftjUv2xOVdJ7svfjpFjJN0nt61xQ+Ya0qb5mhKxsdZta7uUnjNFjsuN0TXWbdm2KDlP+ztohKreyUjbpn+XrffQKu+/Rv/8vIXvQ5Xpxy9sx9pjlu2Xas3l66zaIcfi6Xli4632bf5b5oX7nPupb0uxmpJ6LdVXqug9pOh32iv7Hc69Toqej+559abPbRcI5XMLjGVLglj7BpD7JWp+iTO/6CXkm5h+Q8tt55TXF7xxxd5c1JvjoD9ean/9sXZNX+S5ao5J7i9umcd06G3ZFqPr5M8xWPsachy6Rm772xZZL1m1MdZ4aRU1Yd8WOcZi1VhjY3PFxse2Y/PEDKm3fud1W/MeMHfS077v6H+FtuabY5yUzdjztu9hmZO9iaL9L8E/tlpo13VyW1u2X/K1OdY4SdbJcSl6DjlWt8ntuO3/WxYei9RP3ZYia8JYixyTqo+1B3oOz3qs+22lv9NewWtgIv17Xvh8NNu6rh07d6zACLYiiM2/0Roq/4tHeHPSb1K57dC2qN5c3RtKw3pzMv4gtPpvWEP+eCXfqEoe465G3qcZ+yTN96W2c0J9bp5YnZSbI9a2SqljKDkWX6PJPlkbawtK61NzBCU1JWrtS9eE7Vi7ZrXHar1Un1e6X0v7+z0fcOTvd/O+MGkzLRKEmvcj+3c87N/c18TsPWVnTpj8MZS0x+oC2T90rDZkX5rvC/1WnW6LzZWaJzbGtOV/y3xbyU99O6akPjWP1Td0nvx7SOnvtFchiJU+H8n3IWB8WxDEIv/qojRvGrkThYH8L3iuzaqxhDr9s0jvDUj8wVnjP17JGkU/Fu39nCdrJN0XtmNjhrSXtmm+pqSuRJhH/9S3Y3RNbnxqztL61BxBSU0JPU9uO0bWWbf1T81qj9V6qT5P9/tti6yZkie+wSLhqlMriOUDVmldK9w3q2+I2By6Pbev0G/Vpfosvi7HGqfpOmtcyVwl82Ttwr9lur3kcdP1MXJMTqw+Ok/2PWTI72q9IJZ9PpLvQ8D4Nj+INb98uV+qsrA2RHhzCj91e2zbImtit4voN6LYG5N6I6r2x6taTd8ij6lk1afmiPX5dtmXmjc2R6DnWoaeK3bb2k6J1abmsPpK27SSmhKp/Q/ZR2yM3E7NZ/UNrZd0f65+ZsA/Xpknv/OWD2JlJ2JD3z/8Y1L+uNhi46323L5ix6PbcvN4Jfuy2rXc8Sw6T2pcds4t/FsW7rO876VtmlWvpcYHvibUDZun5D2k9HfaK6tNv88UPh8EMayZjQ9izS9m7he9+cUrO6Eood+Y5La/rclayeq3tlNz9My9wXRvbsYfIfmY6T9U7bY9LvcmF8b2/mBOjktumzUR4b7Lx0DeLlG73vfHakJ7yT5LakrIefScue2UWG2N9txx5PqHGHq8llBrjSmdx9dZrFqvpE/WpOr7hoWebMCaaH+nMyc33cl09D2kef/KvccMO/n1yh8XW2y81Z7b15Axi8wl5fqD1P5L5/B0bWpsdt4t/lsmb8ufVpv/aZF9sbpUe6Db5Xa6vfA9pOh3utWcy/Wep3m595mi52PutQXsrA0PYu0bau5NsCisFbLelGSb7o/VW+2hL9be7+v+CPXYby7tG9zM/Jti+CPX8Y9V82Y1/I9Xo3vz7c2namZ/ION1vs3a1u050/kHsObxZL+uy21Lqb5Fxeb07ZJVo1l1oS02R0l7bo4g1z9Eaq6S/egav11Cjgnjcm1h26oNFhkzpwtFfkyfPhGq+T4zod8bdMjT/XM1A96HJvx4q71UbPzQ9phcve7324uS84S55E/ZLtv0thb6rJow1jKr231/y0JbEOvT7YEcW8Iab7XF6NpG6XtI9nc6UM/dhHVul3sNZJ+P5ngIYlgfGx3E2l+49L+gRC9pWID/hbbaaxpjH5sg9jhM31gTrHFDWHPE5g5tsf3G2muruZ/UXDXuZ6625n3xFrk/O2mR4/XtObP62Ilod0JsnGxipv9YlvdpJbVD5luEnN/fTu1v0b7dbhWP6Soe79icdjvvIUAtGxzE2n89yf2rVhPWCi6tAYBdIXaJYO7SQQDweA8Bqtn8L+sAAAxjXS40UePKAQC7AO8hQBUEMQAAAAAYGUEMAAAAAEZGEAMAAACAkRHEAAAAAGBkBDEAAAAAGBlBDAAAAABGRhADAAAAgJERxAAAAABgZNsRxPZ8xv3w6APuh7cfcA9Z/VMfc2/7uqnPu9cvt+oKXXfGff++M+4Jq2+ThcczyD6u2AQv/NFD7r/+6UPu278z2f6dO5rb//WPbjBrL7zoGveNb7T1QTPOrF0Xs2Ne9bEWPZZXnHLv1H5/aOb83uR953vunf3H7BoAALARdlEQu9q9fvuk5uDHjL4FdCdEb15n9F1+wP3F5Hje3mP0rbtNPnYkHf/SfZPAcJ/7xu2T7dtvcX9lhYdOEzS+cYs7bvTthLLjGS+IlT6WTxzyoalWGHvKvUkAAwBga+yeSxObgLHkCthU5oRog8PMQzd8nhWwLWWFh7/60jVG7Q3u2yOEmSHWLRiWP5bH3Ct3TsLYoaeMvoG2dQUeAIBdavcEsWbVrE4Qa/6V+85T7ojR19jgIPb8QS5F3Fa98NCFLTM8dMGCIBZX/Fh6qdXzIQhiAABslc0OYvqzTKnLDqsFsXY1zDqpalaT5PH0fMY939R1n1MzjrUXgprj9WP6n2v7ixuutseJGisAzh1b5LGqE8Rudcdffsu9elp4+aTbp+r2PXy6X/PMg73+I8/Mj2vHvCRC8IPu5GTsyaN6PlnTuemke3HaP6H21zj6kpgjUrPtkkGsu/xPXYang1Kz7WvC56caIbgovRoZaNqAI/ukWZ3+PFtkPxNtgBK11v0oPe4Bsv94U4IgBgDAVtmSFbHY57/0l3Moi3xerDkZ+q575QqjL8isiLWhKASzoD3W6RgRMnXbbF7jfhv7boOa3F/3uPRCX7svS+x+xFgBSmtqjEAlxw0JYk1omtZ2QVCGqC5gvfjwrb02H+DC9vzcxjxba/7LOXqmIWtAELPGqVWtEIxk6Dv+pTvmgo+eP6oJUHZwao/pDvfCtK0Legsc92A1QhRBDACArbLlQUyotCJ2ZP938/+ynbs0seuXq1tz4WwudHnqfjY1OtB1wSvUxI4l8ngsvyJWEF66lSkZghpNWDrtjt/Ubg8KYmp//bF2Td9sZa3X3hyTsbqWkFwZ7T13Rr83ffxT/5BQ6/OOhlorYiq8tKFLBKHkZ6v6lg5isfuk6ouOexEVLk9sVtVqfNYMAACsBYLYQEWXGOWC2EQ/8LTH37vssCAoJU/4e6td82FtbgWus3wQm5CX96kgNeu3wk0/DA0JYr2VLi0W/CR92WLPLBzuCmMFscTqlbZ0EGvarTDV/2KSdQxizXtOjc+YAQCAtUIQG6jKipgnj6epV2EpFcS6+2lf4qjsRBALeuFGhKc1DmLJmt2CILaiIJa5pDmjCWTLfs4MAACsDYLYUBU+I9aarYL5QDX3JRzm8aqVs5L7NPqliQYdcmKhZ4lLE5NBrFpNGS5NLAw0yf30LR3EdvrSRD4jBgAAFILYYCX/qWp3Ap06nonZCbtxXMbxNiGpt7rV3e/kqphVEz++lQQxFbBm36o4H6jk57h06Gq37XG5ABXG9sLf5LjktlmzG2UCkhm6JvWDg9hEO7YfnKwv62jHFqyeRVfZugDZ23/3ZR0iVK4qiFVZzSKIAQCwVTY6iMVXHsqCzaKak6rcCVG3EjU7pvjlgWZgs1ZMzIAUglafecmh6J9bgZN1SwWxLlD12J+xala8RN18mFJfg+9D2txljQNWspqxaj5VMwt76bqtll2p6n+tvP+yjSasLBDEZu39+WR/MA18c3X94+mxVu5Ev97XSoIY/48YAAAwbMmK2NhKVsVK2J/TalQMjgB2yjH3yp3fq/NthwQxAAC2CkFsUc1J0TJhLHM5JUEM2HhFq+elupW15f8BCAAArAOC2DIW+RdqecniKJ9pA7AjmuBUeQWr+weg5f4RCAAArAOCGAAAAACMjCAGAAAAACMjiAEAAADAyAhiAAAAADCyjQ1iV+75qLvogx8y+wAAAABgnRHEAAAAAGBkBDEAAAAAGBlBDAAAAABGRhADAAAAgJERxFbh6Evu1dOn3fGbjL7gppPuxdNvuZNHjT4AAAAAW40gtgoEMQAAAAAJBLFVIIgBAAAASCCITT3oTk6C0atz+oHqyDP9fhmkdF/PyyfdvknNvodP2/2Nl9yRbq7Wre74y7Jfh7u2/8WHb+3CX6xubPq4J7r7L+vmHotnHuz1N4+nGteOkY9T+7z556E/n34sJ7rwG9tfo/c4Rmq8+77izp49686+8IDdDwAAACQQxBpdCBMn3e1JvQw0XbiQJ+axVa0qK2LtMTUhK7TNzSsDzyx4WAFmTCX7b0PrfKCS44YEseYxmNYaz1UXsPTjKR//+bmNeQKCGAAAAJZAEPOsUKTbmhP5+VWWJizoE/UKQawJBXNhpg0GszDRBYVsWMm52r1++wPuh0dtb++xxsQkwktQGGAHBTG1v/5Yu6avrbGPachjCQAAAOQRxBrzJ+r6hL/dntRYdGCqEMTaFaOI6XEWhJ6d0Nz/7ljnwmTot8JNPwwNCWK9lS4t81g3upre4zyVeS4BAACAgQhijS7QJE6+B60y1QpiVojpWdMgFvTCjXjs1jiIJWsAAACASghiXjQYCCXhKqgQxMqCX60gVvPSRIO+r7H7rh63akGsWg0AAABQB0HMKwpZYdUsF44muqBRcuIfD1Fdf3JVbM1XxIK5x9d6LOcfDx262m17XC5AhbG98Dc5Lrlt1sSEL+t47Un3casfAAAASCCIdWKfyeqf4IcA0WeeuDfhQ9RZgaoLbLM6HfK6cNJjBJq1CmK5Y57Rj/l8mFKPt7+fzeM6PIg19HNiPG6zsJeuu/DAk+41H8TOft09dkD1AQAAABkEsQm98tJvz62UYbe69wWCGAAAABZDEJtoV2bmg1isHZiuiPH/iAEAAGABBLGGfclh/lsLsfs84L7cXJJ41r322EGjHwAAAMgjiAEAAADAyAhiAAAAADAyghgAAAAAjIwgBgAAAAAj29ggBgAAAACbiiAGAAAAACMjiAEAAADAyAhiAAAAADCyzQ5iV5xy79z3Pff9iXf2H7NrKnrohs+7Hx59YOovbrjarNspTxxqH4vv33fGPWH0AwAAAFgP27Ei1gWyN68z+lbiY+7tNQtiR/Z/lwAGAAAAbIituTSxWQ069JTZV9+6BbFj7pU7x1kVBAAAALA8gthCCGIAAAAAFkcQE54/OPv8l/f2HrsuG8T2fKY3jznX5QfcX8ia2w+4h2T/IAQxAAAAYJMQxBpXu9dvn4Shgx+btXVByQ5jiSCWHNdpgtrn3euXz9qaELhwGCOIAQAAAJtka4LYhdedcd+/77vulSuMvpwmGH3GPa/am3Akw9lUIogZIauvDX1zY5sAlxqX0HxZyYL3HQAAAMDotieINZ5yby7w9e36a+l7zFWq1KWJ3epaN35+Zawd29uHkFxJ08LX9995yh2x+gEAAACspa0JYst8fXsbxOZXxOIynxHryM+czWrLxg4y+tf3AwAAAFgGnxHzspcTasPCVP/zX8bn0ZbGZ8QAAACATUIQa4TLCUtXxYYEMSN4dd+qWG9VjCAGAAAAbBKC2FT/s12B/MyW/nr7mVmAMz9vZq1+dWGsh29NBAAAAHYFgthWIIgBAAAAm2RLglj7bYm7OYg0QXTBLysBAAAAMK7NDmLh69u9XbsaFrSrYs1jQSADAAAA1trWXJoIAAAAAJuCIAYAAAAAIyOIAQAAAMDICGIAAAAAMLKNDWJX7vmou+iDHzL7AAAAAGCdEcR2mSP3Hjfbg1h/btymWfT+rOLx2bbHFutNv96GvP5qvFZTc9T6Xag1DwAAq0QQ2yH+RGGoofPE6q32INWfG+uFfUux9kDPEVi1OdY8liG1UmzcovMFy44P/DwxsXq9nSPrJas2xhqP+mKPdWgf+lzUeO5Sc5TOn6sr6c+xxgEAUBNBbA0NOQmI1Q5tD1L9Jcela4ZuS7G+1JhSi8yxyLFqvm4RJXOEPlkbxNo92afrctuS1VfahtWRj7e/HSPHSLIv3JbjLKHekurPjZV0bdi3RdZJui9sy7GSrAUAYFkEsagb3IHJH94D11p9QUnNMEP/2MfqZXvstkXX5sixYcwy21LJ/Dm+fqgh86T65XhZZ7WnpMbovkX2K/ty85XOM7QNqxN7vGV76jkprQtyNbp/6PxBqrZ0niHHUjonAAClCGIRl+6/3x2546C71OgLSmqG8H/oh/6xj504lNyWbVqsVrL6ddvQbUn2+dsxckypoeOs+tCW6ku15bZjbVJqjtjtlFDnf2qy32L1lbZNXX7Q3Tbpr/mPG7DJ56H0eU0+d51cje635vc/c/OklI4N+5Fkn66V2wAALIsgZtrjrr/juLtt/x6jLyipKRf+yMufJX/4Zc3Q25bQr+ty27F2uW3djs3jxcZKqfGSrstta1Z/aEv15ci60jGSHhObr3Tu1HzWtuT7SlnjGwSxlbKei8Cq92Rfqi6wasI+NF0fa88J41Ji42LbqT4AAGogiFmuvWvyR/cud5XVF5TUFMr98U+dAMTGlty2xPpz4wJfp4V2q1a3SbI/VpubQ0rNl5vH6vdtsXG5+QJZVzpG0mNi81lz+7ZAtuma1LZk9ZW2TRHEqvCPsSTbrdspQ8fkanR/2PY/ZZ81T6jRtTmxWt0ut1N9AADUQBAzXHVo8kf+0A1mX1BSk+P/sJf+sS9pH3rb4vtDTbidYo2PbctxkqyXZJ8eI8kxKbI2djvGqknNkZszN1+Or9VCu6yxbmu6LkeOlay+0rbmMt9u/nnyHzxmn8vsj9H/KNKuWMt5eqvXzT+k3O+uv1yOmeiCYK+2a5vONXc58uLHZF7a3BybqKnwPpO7nZIaHxNqLLJfj9F94bbF6rfGp+bxfZrs07VyGwCAZRHEtJJ/kV/yX+31H3zdZ7V7Vp9sG3pb831Wv27LzRHbLplbyo1NtYe+Rcl9pObSNdbtmNT4UqXHkJq7tM4rnWdo21T2d6sNPX6OWYjpAo4ILFcdUiGrCzezebt5VMhpg5QIUEZga/4RphegSo9Jj5s3t39jnqHk490cY4IcJ8dYt2NyNbo/Nv/QeXR7bryna2LbJXMBADAUQUxpToRKTpYyNWORJwhDb8u20B7rT21LqdqSuaXc2FR7ih8TWP0Wq1a3ye2SuVPjS8XmiP20yD5Zr+laTdenWOMbpUFMBZN8yGnHyZWufOhpt+c+B9ocowxnJcdUEqjaeebu+5KXQVuPt/U8xJ4X2R6rkXI1qf3622F7mXmsbUvpHCVzAQAwFEGsZ/5kbV5JTTn/Bz7HGhfI/qG3Lbrfqk/NkRq/zFz+dowckxPq9c8cqy41Nla/KD1XEOsL7amxgayJjSuZz+orbZsqDGLZ379uHr8vqTdO7ysWsCL06lr2mOQlh1ZojBxzy7iMspAfb23H2jXZHquRcjWp/Ybbi+7HmitF10uyP/wEAKAmgphU8i/PS/7rtJb7A196ApA6YZBti+zPt4X2kvFaqs+T46VYX2pMihwXux1j1aTGlcwphfpFx8XaSuaT+5a3YzWyXbL6StumagSxEGh6q0/2OPlZz/mV7sKAVVzX6QUu8V6Sve+LkY+3dVv/TKlR4/uDsC37wm1rW9LjcvRYqz/81LW6DQCAGghigjwpiympGSL3R770JEDWpcYss7/SY6kldp9it2N8ja6ztlNzWX1D62N07dCxgWyzbsfI8fKnJvstVl9p21SNIGZ8ris6bvoPK+2lg/39ln4+a2AQC+bu64LzZMSeO7mdfE46JTWeVefbAqvPum1tS6EvNWfJ+EXaAACogSAWNCdFmct/SmoGyv2RLzkJGHLysOj+QvuQ8bo2ty3VmMe3p/pi7VZfaNd0XZDqk2J1ubkDqy+2bdXr9lhNUDJHrj29jzaMxMNPQViJBBy/3/lxbd+B/X6MsdLdXU6YDkcLBigjMLafW0sF0WHCY2095lZbiqz3t1PkODlmSLuX67P6dVtqDi02dsgcAACUIoh1dupLOvwf+BxrXJDql33hdqw+1a/bYnN4udrSuUK77LfadF+pGvW6LWyXzO1rcnWpfqsv15bbnxerCe25/lR7bo6pLkj5upYMSGWhJwSa4MC1kS/eELXRObsw1jP4EsZZGJyx/1FHH3tjgVV4P05vl5Bj5Fir3TKkNpD716x6z+qL1afmkWSdHlM6BwAApQhijfITqdwJ4FC5P+6p/qFjF6mPjbHaS9py27G2INU3RK15tNy8vn/IvktrU3Vhn7m5Fu3PjZOG1GI9bMJz5o8xdZyl9yHUxepL5wEAoARBzJt+TsToC0pqAAAAAKAAQQwAAAAARkYQAwAAAICREcQAAAAAYGQEMQAAAAAYGUEMAAAAAEZGEAMAAACAkRHEAAAAAGBkBDEAAAAAGBlBDCt3/gnn3nXiddX+tDvvaefO/ZRsw9ba+x33nhd/5M7ba/Rtq+Y+/8Cdb/UBAIBdjyC2CicOu+e+dY+7+7DRFxy+2T3+rS+4h04YfVvkgnt+5N4VOxn91A8mfRsYxnbJc1fP6+7cyfP8nnueNvq2W/OPEIQxAABgIIitAkGs1QSt9CpIMqitK4LYAO3K5/yK6G6x2+8/AACIIYitAkFsonQVZJwT1cuee9vd8rXn3cVG32AEsWIbGbRray5R5DJcAADQRxCb2ucempxcPzenH6gOnOr3y5Nx3ddz5mZ39aTm6mfvsfsbh92Bbq7WNe7uM7Jfh7u2//Fnr+nCX6xuBzSrYYUn4AUrZ8t7xO19YxLG3jjlLjP788qfu/a15F8b/TG557d7LkN/LNB3QbBX27VN5+peb7Nxix/T/FwTvdfbxKl9/f5GG7LTYfxBd/L0W+5V6ZkHVc2t7vjL/ZqTR41+Ne7IM5O2l0+6faHt6EuTsS+5I3q+uf2F2lnNiw/fqmr0MZ12x2+S/X3NJYpPf8ddYPR5H3/s6+7s2bPutccOmv0AAGD7EMQaXQgTJ5Ptyao8Ce5OUOUJZ2xlpMqKWHtM6RNzedI8O6FuAqF18jyi3IlnX7t6tvoVg7vclV/zYextt/eY1V+o8Lnrh5j518+BU+o10oWb2bzzr0uvfW2KAGW83uZfA6XHpMfNm9u/9bvhZVeC7ADV1wU1WdOFpFk4GhLEfGgSY2866V6cbMtgt+/h001Nv+0lEbTaY+qFs2buRBjL/MMEQQwAgN2HIOZZJ9a6rTnZ1asH3YmrPgGtEMSak925E+L2hHcWzroTYFU3f6Kcc7V7/fYH3A+P2t7eY41JKVkJkRa/PPHiR7/ZBCvTc48kx9z46F1mf1ZpEFOvi3zImQ/f+dCjXxOd5hjla7DkmCKBqqedZ+6+W78f2VVRI9AobSjyq1j99n7IGhbE+qtp6hi6YJY9Jjlvoz2G6DguTwQAAApBrDF/kqpPgNvtSY1Fn1xXCGLNCbLeT6BOwtMnzjth6Lfk7cAXGhw71Ya1RT43VhjE5sKR1s2jn9/eOL2vWMCKmB1j4TE1r91uvBUaI8fc6r/mSz4fFlafGsbKWBOmrBWzJlSFgDYkiKUvISypaeYNx6xZx+oRxAAAgEIQa3SBJnFSOWiVqVYQS66eeOsaxBZbESuvX85YK2LJ0BMCTe+5s8fJVdfmddh7XRQGrOK6Ti9widd99r4LQz4n2ASgLsyI8LS2QWxuRSyjCWK77P9RAwAASQQxz7qsSisJV0GFIFYW/GoFsdqXJo73GbGhlyY235446RvjM2LJ0GO+RiLjpq/P9vnu77f0NTAwiAVz93XAPIusAqkgVP/SxEwQMz4zpsWOKWlIKAUAALsCQcwrCllh1axgVaw7eU2frLYntPET6K4/uSq2ritiE0O+CXFI7cKW/9bEmbLnLvn8RwKOX4GaH9f2PfSsH2O8/prXb9nrrShAScbvRrhMtx8ILcMvOZ0LOV0w6oWsJlD1w5IOXc22Wl0rCmIT7dh+nfVlHUNWxUq/NfHsCw+Y/QAAYPsQxDqxz2T1T1xDGOszT0i7k+Opos/b6JPs2cn5jDwpXuMg1q1y5U/Cx/l8WNX/R8xLPndloUd/7vChE+3zaY0LtdE59evNG3wJY+71NqOPvWG8DtvPiUVCdghZPdZKUxd8pqww1a/xX5ox96UahUHM6312rZuvX6OPyYvMXbIyeN9X2iB29ivuXqsfAABsHYLYROwywLY9t1KGqIKVLv7D3223A1/EslZK7/9B99hrBDEAAHYTgthEuxo2H8Ri7SjXXJIVC2NNUOOb5LZetyK0G8NY+/ov+IeGbkWM/0cMAIDdgyDWsC85zH9rIUo0J6NzJ+HtSgEhbJfYjd8a2NznTAg78KR7rbkk8az78n1GPwAA2FoEMQAAAAAYGUEMAAAAAEZGEAMAAACAkRHEAAAAAGBkGxvEAAAAAGBTEcQAAAAAYGQEMQAAAAAYGUEMAAAAAEa22UHsilPunfu+574/8c7+Y3YNAAAAAKyZ7VgR6wLZm9cZfQAAAACwZrbm0sQnDn3Pff/QU2YfAAAAAKwTghgAAAAAjIwgBgAAAAAjI4gBAAAAwMi2JohdeN0Z9/37vuteucLoAwAAAIA1sj1BrPGUe7P5Ovsz7gmzHwAAAAB23tYEsSP7v0sAAwAAALAR+IwYAAAAAIyMIAYAAAAAIyOIAQAAAMDICGIAAAAAMLItCWLttyW+s/+Y0QcAAAAA62Wzg9gVp9w7zdfVsxoGAAAAYHNszaWJAAAAALApCGIAAAAAMDKCGAAAAACMjCAGAAAAACMjiAEAAADAyAhiFRy597jZPtQy89Q4hlr3I7Dmq70PAAAAYBMRxCqpFTD0PEPmLalN1Vj7TpG1FqumZBwAAACw7QhiA8kgMkRsrlxbbGwQ5rdY/Xq8pPtT9bm5vLDPHGssAAAAsM22Lohduv9+d+SOg+5So2/q8oPutnvvd9dfbvRlLBIcYmNK5lo2qAwZr2tTY3PzxvqHHA8AAACwrbYsiN3gDkxO9A9ca/XNXHXouDty6AazL2WRELFoYPFK96fr5HbpHF5qHi03b6x/yPEAAAAA22q7gti1d01O9O9yV1l9U2VhbSzLhB0p1Ooxi8wR25ZyfbI/bFvkOAAAAGC32KIgtsddf8dxd9v+PUbfTNGlixlWoIixxmuxutx4uR9LqkbPFWpT21KuT/bHalNzAAAAANtse4JY0ee+ysLaIpYJFdbYRebLzZObU/f77RRZK8fIn+F2TKgBAAAAdpOtCWLN575yK13NpYuLfUlHzrKhQo9fZD5rjGzLzTnkGIbsKzZPan4AAABgm21JEFvtl3RYdIioESrCHEPm8rUxoV/WhtsW3Z+qHzKXvx0jxwAAAAC7xVYEseZzX7kv6WguXaz3JR06ROiAEciaEouMCayxsi03t+5P1Q+ZK1abmwMAAADYVlsQxMb7kg5Jh4gaoSLMMXQuPU6Oj9226P5U/ZC5/O0YOQYAAADYLTY/iO3Ql3ToELFsqFh0Plln3Y71W3R/qn7IXLHa3BwAAADAttr4IFb0ua+i/1+sXAgQJWGjxKJBRfcP3das+hRZq8n+WG1uDgAAAGBbbXgQW48v6Sghx+ixVl9QWiN/6vbYtjakvmSuIaw5AAAAgG210UFs7C/pqBUYFgkfuTG6z6rN7TPXP0TNuQAAAIBts8FBbGe+pAMAAAAAlrX5X9YBAAAAABuGIAYAAAAAIyOIAQAAAMDICGIAAAAAMDKCGAAAAACMjCAGAAAAACMjiAEAAADAyAhiAAAAADAyghgAAAAAjGyzg9ixU+6WN96eee4Ru27dHH3JvXr6rZlnHrTrtJtOuhcn9SePGn3LWvSYsKBb3fGXxeN9+rQ7fpNVBwAAgG20JStid7krv7Z8ELvsuckcX3veXWz0rUZ3Mr5IEOuCkx3KBs7bs8zYbdY9Li+fdPus/ub5WDBMLTMWAAAAG4kgJmxUELvoQXfSr6RYY5daOSOIxex7+HQ0MB15JhHScghiAAAAuw5BTNisINad/J9+yR1RdW1gmG8vQxCL6h7/Fx++VfW1oXi+vRBBDAAAYNfZJUGs659+nuyb7spPhr5H3F75OTPlxkfvEvMU6i4bnIqulORCT9cv55qYrnR1++mvfNlztuFMzLPIMVmBIbL61obEmcVW5wo0x+RDZ7dC2LFCUeqYmr7I89A8ds3j1T02+rEzg1T/ePT+eszxnv1cmKtv3fMw3V/0+X3AffnsWXf27FfcvWY/AAAAxrALglgbtHqBqvmSDxnGWjVWxOYvXwthylqhSoQe69LDudBTUjMxOdHvBxNj3NSyQcwYHwlrVTTHNNmfOK7oc5A4JjPcdGRIm5/bGuv313++rXFTywYxY3z8/hDEAAAA1sHWB7GLH/2mEa7aer3atXwQawPO3GpMNIjEQ0974q7CmzFPc8It6sxxhviJevyYioJYUzO//2Z/1pzLqnRMzeMWHo9mfJizfTymz2k39+w5jjznmvHcTVn3oVESxNTxBb37AAAAgHWz9UGsCVfqcsMpVb90EIue/EZOlhOhxwwu1sl8cxIf2mLzde2Tup4VBLE2CKr9BOb+llTrmERYC/Xt89U+HrPHvHt8euOM57x7XrTec9erjb9u0kGsW92MMPcHAACAHbc7glhhuNrIICZXZMz+bh9qRah/Mi/Fj6k89ORX5KqpdUziuTvyzOTn0cl28/i0j698TOV85uPYhbDe820+N50KQWz+tQUAAIB1tjsuTXzjlLtMtVvW6dLE1Am+nifUHjEDh31Mqwpi8VCxItWOyT9Ovmbys3lc/OMw2faBLDq//diawW9lQSzxfAEAAGBt7Zov6ygJWG1om/8SjyGak+TeSXV3orxQ6NFhws9tnMyLvvm55vfRHuPE0GPSYaLb7h9TN75wVSwcy8IrOlaImQs9JcfU1rw4CV/hWJpA5bfnxoX5PCNA6WMyHyfBug8dHZjN5657/ssew/BlHV93jx2w+gEAADCGjQ5ibXCahKw5OkxZX1FvBy79mbJFvr6+XRHpTpg9FWrm+qf6J+O9uubEu12BmT+Zb9t9nXmiL4JAY3I8bciYncwvdExNQLGOSQaVGevYZvOVBbc5RUHMyx/TXIgOj5sRWKfHbfR508DU8HPqx2n2nM3pvV76dT5s6eeu0YWxHvPYDrrHXvNB7Kx77bGDqg8AAABj2ZIVMWyuLmhEAg1W4L6vEMQAAAB2GEEMOyqsLFmrZViFsCLG/yMGAACwkwhi2BnTyyXVZYVYmXtfaC9JPPvak+7jRj8AAADGQxADAAAAgJERxAAAAABgZAQxAAAAABgZQQwAAAAARkYQAwAAAICREcQAAAAAYGQEMQAAAAAYGUEMAAAAAEZGEAMAAACAkRHEAAAAAGBkBDEAAAAAGBlBDAAAAABGRhADAAAAgJERxAAAAABgZAQxAAAAABgZQQwAAAAARkYQAwAAAICREcQAAAAAYGQEMQAAAAAYGUEMAAAAAEZGEAMAAACAkRHEAAAAAGBkBDEAAAAAGBlBDAAAAABGRhADAAAAgJERxAAAAABgZAQxAAAAABgZQWxBR+49brYDy1iH11XsGJY5tnX7fVnF8Sw65yoe13V7vFeJxwAAsKkIYgvSf+T9doysy9UGegzWg35u9PNmkfUlho7R+4uxxgayv+R2ilVXOnYsQ49H19e+j4uOjY1b5lhWzR9bCWtsIPtLbgMAsI4IYgvSf+Rjf/RTJwOxOfxPi6zFzpHPhX5ectuS7xvKmiendFyo0z91f4llxq5a7P7l5MYtcx8XGZsas8yx7LTSYw91+qfuBwBgXW1dELt0//3uyB0H3aVG39TlB91t997vrr/c6CtU+kc/dTKQmqN0/hquOjQ5yc89Zgu7wR2YHPtt+/cYfQnX3tXc56lDN9h1O0A+F/p5yW1Ly4wttcgcsTG+XbPqPN2Xqh3TssdljY+RdbVZ+/NS/XL8vPb39Mgi74vN++lxd+Bao2+g/HHOi42R9z2w6gAA2ClbFsTak4ncCUETPBY4sbf+sHupPk/PE6Rq5W1ru6a1DGJTe9z1d0yOb42CmBSel/D8SbLfovty25bYfvy2bIvVhbYUa5zezhlavwqxYyg9tlAn60tuS759qNg8sbZUX9w4QSx2jH5btsXqQluKNU5vAwCwDrYriDWrKHe5q6y+qbKwllP6hz51ApCao3T+Gghii8s9T6nnzfcNEZtj0dta6NM/9W1rW7YPYc2xCrl9DekfensVrPlDW6pvJRYIYovc1kKf/qlvW9sAAKyDLQpi7Ql77oS/6NLFAqV/6FMnAKk5SuevgSBWxj8HgWzTNaltaZmxQWyM/qn7Ndlu3S6dxxKrHTLHMqz9lLZZ7XK75PYicuOtft8WG7fs8SQtGMTktv6p+zXZbt0unQcAgJ20PUGs6HNfZWGthP6D73/GyHFSqlbetrZbXUgR4+1Apev6q4bTSzV7n8uyVhb1PPbj3cw3rWnNHnM7WMXDoF0/1z/dlz6mtr/Zf+/+LXAJVsePl7dz5FhJ9+W2LbGaIe25/YZt2W7NExOrTbUvyppHtsm+WHusL5D9Jbctq+hP7d+qb/5RatLeZ/3eh8sWA/W7M33vVb+Lxu+sb9dtQ9t1W2xbtlvzAACw07YmiBWt6jQn4oufgEv+D/uyf9z1+Nh2bD9lK1ndSVSvbtImTpKmwWla051Q6TGTml6InXs8S8Z1NVWC2IBj8vdPnGSWPXY2+XzEnpsg1a/72mPsk/0WXRO29U/dH5Pqj82ZExs3dJ6aFt23HyfHhm2LHGeJ1ZSOtega63ZMG8xUEOtWu+TvWAhw0xWwrsZq06tksWPUP3V/TKo/NicAAOtiS4JYe0KeuzSmOfmOrqyU83/Y5R/3sJ0ix8txJdv2+FRAmWlDlvWv3DNWKNEnZfYlne0xTE/SzKC7uiBWdExhfOb+DSGfD/kcabpWS/WVknMMvS3bYnSd/FkiNofVN6ZF9h3GxO5D7HZMrGbRsbpNbpfMaf1O2L+X6ncyErqs99vYMZXclm0xuk7+BABg3WxFECs6qY6cLAwh/9in/riX/uGXdWHuQPaHn3PkpXYDQ4xUEsSamrAvrZvfDkarC2Ilx1T6GAzh59e3ZVuqXZI1KXqcFPp1XWw7NV9ujlhbSmrOoXPVtMz9iI1d5P7oMaVzWHWpsSXzzr+Ptr87cjWsVxt+XyPvrdb7QTgOfTyx7dRx5+aItQEAsC62IIjFTxYkOyQsLnUSkPvj7/u10G7V6rY54tIg60QqF0KKg1jm8bMf4xUHsexzWvYYDCGfL3k7ViPbJdkXq0uN93R/2B46n9Ve2haTqx0yV23L3I/Y2NC+irk1qy41tmRe/Tufem/t/a6nVsTU72fs/saOb0h7aRsAAOti84NYcxKQ+9xX/IRiUfoPvNz2tyVZJ2sWbYsyTohKwopVo0/K5k/S5pk13TGtIoiVHNOqglh4XuRPTfZrVrtui42VSuaRYn2+Xfal5o3NIdWqWZVl9h0bK9tL519kjGfVpsaXzG39Ptm/l+p3ygxi9u9dreP27bIvNW9sDgAAdtrGB7HmRCF3kt1cwpc7YR9G/3HPnRSUiM1ZPJ/1Ga3uJKn/GN0w/2UdmSAWVraSoU6HrrBv2Tah99dsR+dOBamCY1pRELNuW2L9qfbA6tdK64JcfWrfob1kDqtdK61bhWX2LR+HHD22FmtfnlXrpfoC8x82usuf5e9vWyfeZ4wgNlfTKTkOKVfv+2M1oX3oPgEAGMuGB7H2RFxfEqMVhbVC1h933bboH35rztj2NIT0xFYGdW3+X73Nk7KSfcrPrTXj2yDUX43sz+P7mv2JY2j3P6uZ0fcxd0z1g5jk95dqt/pjbbrdatNCzRDWPJ7s13W57Vx7EJt/bEP3Hzvu1DxW7aLkPGGuXFvYtmot9u/8hPgHlVbJ+4Ixz0S/poyeI5D9ui63DQDAOtjoIBY9cZCMf61dlvyjbv3Bt8iamFAXqy+dB+PIPR8l/YHVH5TWlbDmiM0d2mL71e2xOq20bpUWOYZ1OO6hhhyz/seQdWAdv2+LtcufWqwdAICdssFBzFppmbeOJxcAsLNucAd674vtqlbu/RQAANSz+V/WAQAYrncZMSEMAICxEcQAAAAAYGQEMQAAAAAYGUEMAAAAAEZGEAMAAACAkRHEAAAAAGBkBDEAAAAAGBlBDAAAAABGRhADAAAAgJERxDbEgVNfcM996wvu8WevMfvjrnF3n5mMPbXP6Fsj151x37/vjHtCtT9x6Hvunf3Hem2b5Zh75c7vTe7bxJ2n3BGzBgAAALsNQWwVjp1yt7zxTXflJ42+BW11ELvilHtnElTevC7et6lhzAdJAhgAAAA0gtgqrCCILW7dg9hT7s1c0GpWy77rXrnC6Ftr7X0zAyYAAAB2NYLYKhDEipWuGI2yslT9eSOIAQAAwLYVQeyy596enEAH1on0I27vtN+o+eTz7sam7S535ddE3XOPiDk81e997Xl3cdffPw5F1BU5fLN7/Fvt5YjSQyd0bRe0ojVtv7+k8epn7xF1h92B3jw7YUBQSV2+WFF4Dvces/uHIYgBAADAtuFBLASjU+4y2facCD1NyHrb3fjoXV3/Ze7iR7/ZP9nuanptzepI/4S8OUkvCVSrWBHrglk/ZO1zD/lQJVe7Thxugtbss2QiqE3r1mSVbNAlh+2XXozxWbHw+pgP4kMRxAAAAGDb6CDWnjCnA48dnroAF060uyDWXwVpV9FmAU6NSRkpiLUrXPMrW80Xe5y52V3dbEdCVxPYhq2KPXTD590Pjz5gO/gxc0zKkf3fHXS54cKXJ3ah2hQL1iGcD13JlCLfBAkAAABsdBDLr1C14UmuhgVNiAtji4LYhDyhT+13pCDWBC5rVasXsiJBrJnvHnf3YdE2sqHBavxvIAyXtA58LpsANjnWQ0/Z/QAAANj1CGJ+uzSIBeJSxv5lkZ1NCGJNzc4GsYVWxMYKN9VWxDbx2x4BAACwahsdxNpLE40gJNS7NNFgjpvYgEsTY2NTal+aONpnxIZemhjq+YwYAAAAVmSjg9j00rHeyfQkZMkv6+hOqmWgmvts2aJBLBa4uvmSY4cyglho64Ws7ss6ZnVGEOvGDf/PoWtrg0pRuOJbEwEAALBFNjyIed3q1uTkuRUPRrMatYpWFMS60NeTWPXSqzDLXOLmWUGs0X1z4tT85YbNClmvxppnZzSXGxZ8ocUonw+LBeuFEcQAAABg24Igtks0QWxnP9O1GgWrYhv7WSuCGAAAAGwEsTV14FQ/dPU/97Vlum8ZNMNYd0niGP9/WH3t59rG/aZHAAAAbAKC2NpSlxxuawgLmjA2f4mivyRxM0NY0K6KNV9nTyADAABAhyAGAAAAACMjiAEAAADAyAhiAAAAADAyghgAAAAAjGxjg9iVez7qLvrgh8w+AAAAAFhnBLE1cuTe42Y7tseqnuPSeWvtPzbPIvOv6jGJye1P9o99bKsUuy87dR/H3G9uX7UeG1+fY43TSutKWHPVnB8AsDiC2Brhj+P2q32CpVl1WkldribWX3oMkhzjb8fIMSX1gTVGt0myP1drCfstYY0PrHqLNTaQ/SW3xxT263/G6DG5+sAao9ukWH9unLbofiwltYvWDDkOAMDqEMTWBH8Yd4dFnmc/xmLVxljjA6tfj9diNSVjpaH1NeT2KfsXOT5rTGnbEKXjQ53+qfvHJPcZ23/pcZXUpWoW7bPk6kv6Y6x+Pd6ix8RYYwEAq0UQi7rBHZj8cTpwrdUXlNTMs/4IlrLmG8ced/0dk2M4dIPRV8HlB91tk/s39LG8dP/9vcfntv17zLp1Ues5rP1aGDpfrH7IPDUfi5hYvdXu6T45l0XWyjGLtpVaZGzqeDWrrhY9v963JOssqRrZF6sL+9FS/XK8ZtVr1rhSQ8fH6pc9DgBAHQSxiOYE/46D7lKjLyipKbEZfxTXM4jNtKF4nYKYf15LLTtei80X246NkcLcWq7PIvtSdSVi42P7SO3PqkvVW6z60rYgtm+/LdtidaEtxRqnt2uT88eOIcgdi+5PbQ/ZR2hL9cUs2+/pGrldMl6K1Q+dBwCwGgQxUxs60if1JTVlrD+K6/eHkiA2VOnzushzvejrI4zT44fOF6uX7aVzDt23NvRYUvVWXaw+JsxTwhrvyb6ht7XQp3/q29b2KsnjidFjglifbI/dlqz20Jbqi1m2P4gdQ+l4z9fK+rBtkeMAAOMhiFmuvWvyx+kud5XVF5TUFIj9EVy/P44EsaGs57C0TfM1OdY4z6qVUjV6riDWJ9tT4wNdnyPHloyTNdZtSY4pqY+x6kvbAt0XtvVP3a/Jdut26Ty1LbMfPzYn1Mkx4bZktcs5rD6rPQhjU6xxnlUrpWr0XLJWbsv+XDsAYPUIYoarDk3+gGUCR0lNjv5Dqfus9sW0ISXsr2EdexeG7JrZCmDvc1nWpZl6HvPyzS7YybqJaRAzg1kqbGWCWPaY2vF+f/3PnS0etv34Rds0XZPbTskdQ8lcoUbXDpnH96dqcuOHyB1XaIv1abpGsvpL24JY35B23Rbblu3WPLX5feh9psixFl0TtmV7bB6rPTUuNs8qDD02KfTp+phQAwAYF0FMK1mZKanJCH/85M8cOb5c4UpWs8KngsykbXYfRXCaztUFPDl3M8/97vrLw7gutPaCjzFOP6Y1g9iQY/Km7cutAlrPWWmb1hxXhjXOYtXKtpK59D7D7dJ5rHot1Rf4mpxQJ8eE27m+WFtK6RypeXVf2NY/dX9Mqj825yqU7mvIscRqZXuqxqJrrNuybVF6Lsnql22x8bGaknoAwLgIYsoYX9Ix7h/HVHgJjGA0xw4l/UDT1sztqwlVsyDUrjiplaaVBbGyY4o9BvOBrZz1HJa2abomt635/pjQL2vDbYscl2qPzVNS46X6Al0T25btqXmtvlS9xdeXssZ7sm/obdkWo+vkz1WR88t9lgjjLLF+2V5SE2srmSdmkfqY0C9rw+0YXR8jxwAAxkMQ6ykPLemacrE/gjX/OPYutbPClhl6tJIg1oWZiDB/M0Yfx8qCWNkx1X5ePWt/MdZ4yRqjWeMsVq1si80l95OqsW7HpGoWGR/blu2pea2+VL2ldI6S49A1se2SuWLbsbZVyu2vpD9G1li3Jas9Vuul+jzdn6tPyR1bydwl9SXzAABWgyAmlXwBR0nNAKP+cWyOvTthkas8lYNYLszsRBDLB6zVBLFF23KWGaN/pm7HWDV63kXnCUrH54Q6OSbc1qy+MI+m6wKrr7Qt0H1hOzZmSHtpm+ZrSupKyHkWPZ4gVpvbR6w9te9Un6f7/bZF1mihX/9M3Y7R9TFyDABgPAQxwQwISknNELE/giv94zj3mamSEFJ+aWLRY6gv9+tCYv0gVnZMqwhilkWeVz+mlDXek33W7Vh/jFWj59I/LYv2Bbomtx1rC4bWW0rnqHkcsT7fLvtS88bmCPRcy9Dz5LZTSmpjNVZ7ar7cvnR/rl6T9dbtWH9MSX3JPACA1SCIBc2Jf/8LHeaU1Ay0E38crc9ohcsXe8FnEo5m2yVBbKILVMlAo0NXt93fvw5G7XZ87kSQKjmmNQ5iliHz6Nqh25aSMaEtNd+ifYGuyW3H2oKh9VqstsZxpOTqfX+sJrSX7LOkpkRuniH78bWaVaPbQrvFqvVK+mRNql7TtUO3LbImVl8yDwBgNQhinZIv4CipGcr/ERzCmiOpW1nqzxO5tFIEokYvdBUGMU/P46ma3ufWmr42COkgOJvDB+D2GGRYavY/rZHUfcwe0/oFsbnjHSA2n/yp22PbkjVHrr5kPqstNS4I86fIWvnTYvWl6rVYrWwPt1Pz+r6hrHk82a/rcttSqm+o2FyhPXccmlXnhb5YjdWu23JzeIuMiYmNzW1bfM0Q1hwAgNUhiDVKTsJXc6LOH7/dZaefb71/63hyxyj7S+5PqibWVzKvl6vT/UPrY22W0jpvSG2J2HHH2uVPLdZeU2ofJfsfcow17s8ix+vbc6xxnu6zalPjg5IaAMDOIYh5zWrJuF/SAQAAAGD3IogBAAAAwMgIYgAAAAAwMoIYAAAAAIyMIAYAAAAAIyOIAQAAAMDICGIAAAAAMDKCGAAAAACMjCAGAAAAACMjiAEAAADAyAhiG+1Wd/zlt9yrp4PT7vhNVt1usc899K0vuOem7nF3H9Y117i7z8iaL7iHTuiaDbf3O+49L/7InbdXtX/qB+5dT3/HXSDbAAAAsCMIYqPqgtPLJ90+q//oS4uHqWXGboUuYJ3aZ/TNHDg1qTlzs7va6KsrdzzzgbBOMHzdnfuic++552mj72l33tOOMAYAALAGCGIj2/fw6WhgOvJMIqTl7PYgdvhm97i5Aia1K2bjrIAVBrFMcBymC1onXjf6glRQAwAAwFgIYmO76aR78fRb7sWHb1V9D7qTZnuh3R7EThx29qWIQhPWtjeIXXDPj9y7XvyBO9/o6/GXKFqXLgIAAGA0BDGvCUc+xKjPXD3z4Fxts2oV+idOHlV9xhivWQlrVrsilyeaQaoNZ7H99USDWLc/dVzm6lsXEqf7W3R1rqYuPE0v3YtdVlgriDXziP1FglJzieO0TuxXH68y23dJEGtrHn/2Gnf1s/eIeQ67A3O17WpY2UpXbuXsoHvstbPu7Nmvu8cOWP0AAABYFkHMEwFkGnSaYCODjxFounGhJnVpoQxp1uWJ82P9/l5yR6bb6csalw5ixvjU/RmFEa76n/HSX86hNCGnCzxWvyeCXRt2ZMixwlKYT9Wd0gHRGjuk3wv7knXdfdbjmi/ocO7cT4m2hGb1LPpZMYIYAADAqhHEPBWoWupSwSao9IORNxewQnCZrrL5ujYMTefq9je7DLHwskTzODtLBTF1fEHvPhTa8xn3w6MP2G4/4B6yxpjaEOJXg3rtsc+CLb0iFvn8WDPvLHS1YS2zn0ZhEPOhqicXBCNfONJcblhwWWLA5YkAAAA7iiDmFQSxdjVqEl4sIdCIsBbq2/Ft0JlbXeuNMwJP0672NVE/iM1fAimZ+1u59GqXHZiWCGLJSwpn85Z/62JhEIv2e+VBrPjzYQFBDAAAYEcRxLziIDa/ItYjVpCOPDP5eXSy3YSddi45v5zPvASwC2G9VaqVrYgVrsiNqg1icytiMZWCmNknrGsQW2xFbEA9AAAAqiKIeQVBLB50JD/G10x+NiHHh6AukOmx033aIcgMfisLYnbNQipfmpgOKkKlSxNzwW/+c2QxIwexqp8RAwAAwKoRxLySIBbCSnJVrK15cRK+wrgmUPntuXFhPs8IUDpYdccYvVQwERT1iluz7eeSq3DN+DVbFWvCVeGq2NJBLISs3KpYd8lkLwhNAtPcl3V0gSka2ioHsaL/Qywo/dbEs+7L91n9AAAAWBZBzCsKYp4MTzNyXBtyjAAlQ08nfI7M6vOmganh52yPaba/dntWI/RWt/p1/j61AVHttwtjPZFjG00XxnqsSwMrBDGv/zXxnbmw1AWkaU1sv7pO7rt2EAufEyv43FfB58PufaENYmdfeMDsBwAAwHIIYsDWKFkVe92d+2LB/zd24En3GkEMAABgZQhiwDbpPitmh7EuqBV8NqxdEeP/EQMAAFgVghiwbZowZlx66C9JzISwjz/29faSxLNfcfca/QAAAKiDIAYAAAAAIyOIAQAAAMDICGIAAAAAMDKCGAAAAACMjCAGAAAAACMjiK2BI/ceT27nDK3PseZbdB/LHlvN+1brfskxtY6v5v3cFrHHZMhjVWMObdnnahXHBAAANg9BbA3oEzC/rcl+TffrsZqstVg1JeO0IftMKRm/aM0ixybHLDs+1Zbjx5Syxnu6T4+zyHrJqrVYYwPZX3I7J1Y7ZA5JjyudR9aV3AYAANuPILYGcidjuRM03Z+qz83l+ZoSJWOtmhJ6Hsnq1+MtekyMNVaSNSX1Fj1ukXlKx+TqZH/uuEr3aSkdG+r0T92fk6ornUOKjRl6PPqn7gcAALsDQSzqBndgcmJ04FqrLyipscmTrtiJWaxN0zWpMbn5Yv0lx6FZY3ybpmtKDB0Xq192Hr+dImsl3ZeqjSkdk6uT/bnjKt2ntsi42BjfrpXUeKl+OV6z6jVrnCVWq+eL1QEAgO1AEIu4dP/97sgdB92lRl9QUpMSTrT0CVesPSY23pKbM9ZfeiySNUa3peZN1abGWWL1y8wTbg+dw7LIHPpYNKsuJ9TKeQLZr8X65VjZr+tCW4o1Tm+n2mNzxNpihtR6vj4l1OgxchsAAGwfgphpj7v+juPutv17jL6gpCYtdhIWa4sZchKX65P9Ydsix5XUe6FGj5Hb2qLjJF8r68O2RY7TdE24nRsnhTlKWXMEsl/XpvpSUvNY21b70Nta6NM/9W1rO9Vuzaf7rPahrHm80Kd/6tvWNgAA2D4EMcu1d01OhO5yV1l9QUlNodRJWMkJ2ZCTuFyf7I/VpuaQrDrdFqtJSdXouWSt3Jb9ufZAzlMyX6nY+Ny8qWNI9cn2QLbpmtR2rD1s65+6X5Pt1u1F5pFtQ+q1WmOt23qOkjkBAMBmI4gZrjo0OWE7dIPZF5TUlJInY4uckFljUmStHCN/htsxoSYmVqfbSudKtaXmCH26PibUaKHPqpHjA12TEqvPzSP7dW2qT9O1OXKsHLdsu26Lbct2a55Ye2pcbJ5g6HxSbl9hu3Q+AACwHQhi2uUH3W2Tk6DkF3CU1BTyJ1ypk66SEzJdM3Q+2Ra7LaXmD3xNoNtT2xarRrbF5ojVlNTH2q2a2LhSYbyeJzev7E+NXWYeLdav28O2/qn7Y1L9sTkl32fRNdZtzRpn1afmCEr2UzIPAADYfAQxZYwv6Qj0iZf/mSPHB7o9Vuel+jzZ72/HyDFa6Nc/9W1rW7bHhH5ZG27H6PoYOcZi1ZSMi9Fj5XZu3lTtsvP4n5qulWT70NuyLUbXyZ8Wqy82j9UX2nSNrrO2Y20WXSd/AgCA7UYQ62m/jj79BRwlNWn6JCx14lVyUqZrlplP9sdqS+fQP/Vta9ti1aTmtJTUD50n1VZKj5XbuXl1rWbVWaxaPSbWHuTG6e3YPF5ujlibNHRMbj7N1y8yJrUdawMAANuJICaN/CUdgTz5KjlZ04aMyc0n+/3tGDlGkn1WnW4rmUv/TN2O0fUxcozFqtFzBLpOy9Us2x+UzuN/ytuxGtkeLFufai9tk4aOyc0X+Lqhc3ulY3LzAACA7UEQE8b+ko5An3zJ7ZITs9R4LTdfyb5L260636bpmlCXuh3rjympHzpPqi1n0X1JpfstmSfUyJ+a7Nes9litl5pH9qXmjc3hpcZZUn2e74/V5MZ6erw1JrSVzAcAADYfQSxovoDjfnf95UZfUFKzgNSJV8lJma7x2ymyVpP9sdrcHIFVp9sWqSmZQ5M1sfqh86TaUkrrc3W+v5Q1PpD9Q2pL2mNK9pPbV2qOMF6zar1UX0xuTktqTGgfOicAANhMBLHOmF/SoVknXkNOynRNakxuPt8/hDVHkOvPCeP1PLlti68ZwprDs/pS9VquNvSXzFm63xrHlzsu3z6UNY8n+3VdbjvVHhsbm8PiawOrP0WO0+Nz2wAAYPsQxBrjfElHTOykq/RkrOZJ27rNpeew5izZT637tej+vdp1teX2W/O4rLl8W6xd/tRi7SVyY32/ZNXkxMaGtti8i+4PAABsBoKYt0Nf0gEAAABgdyKIAQAAAMDICGIAAAAAMDKCGAAAAACMjCAGAAAAACMjiAEAAADAyAhiAAAAADAyghgAAAAAjIwgBgAAAAAjI4iVOnyze/xbX3APnTD6Uj71A/euF3/gzrf6Ns6D7uTpt9yrUy+5I2bdZtr38Glx395yLz58q1mnteNW81gsekwL2/sd956teb0CAACsL4JYqUWCWHNS69y5nzL6RtEFp2ceNPqWCxCrDB87r33cFgli7e3T7vhNVu2wefuWGTvM+SfcFv3jAQAAwHoiiJUaHMRed+dOQth77nna6BvPkWf8SooVmG51x1+Oh7QcgthM77G46aR7MTb26EuJkJYzXhC78KKn3XlPT8LYideNPgAAANRAECs1MIg1qwpPf8ddYPSNqjn5f8udPKrau8Aw116IIDbTfyy6gPvySbdP1TWh2GgvM2YQm9jx1VwAAIDtRhCTurD1XHBqn+q7x919+Bp395lIzVS7GhY7iW1OyP1KVBeSWtZKSXdSb9a0J+Z2kGrHtSftbZ1e+TKDVO94vHjQigYxM+BFQoTe34Krc2X0Y5kKoZnQ091HOZd8LNrHRj+f1pzzxxQPWvFjsgKe/fykXk/zcv+Y8PHHvu7Onj3rXnvsoNkPAACAOIJYcOJwE6wef/aaXtt0BUyENN023Q6aL+j4kTtvr2rvtJcLypPn7gS5dzJtnHg3wSWcPKfCQtsXgsb85Ynd/mTw8eGiF4SsY5pZNojNjzeOqZp2/725uxCYevzMvm6cvH9z96V7DOLPXevIMyoIGXPPxI+pLIgZ441j6sl80QxBDAAAYHEEscY+91B0dasTCV0HTs2Pu+CeHyVXEkpOnJvtuRDUhpX2ZFreVvVNEBAn2PoE3wxL8+ZP5gv6ioJYuz23/+Y47f0tI3as1vPQioUeOyzOzz8fYuP7kuJhK9VX5/Uk2ztcnggAALAyBDEvtrIlRWqufvYe99yZm93Voi13SVfJiXNTMznxNnVBoKlpbncn/iF8NWFIBoP2JD6MSwYTvS+jzovNURTEupr5fXmJFZoFzR4n1RcNfrHQ07brAGk9Fm1buC+R+SKPgx2MYsdU7/U0hyAGAACwMgQxb4kg1qyIqSBWY0XMqtGaMU3N5CR98vPIZLs5UTcCxmw+e1WnPVHvhyArYGT7BgSxuRWxFWnu28hBrHcfm/2ogBlCWO+44mGrShDLvJ7mNEEsfoktAAAAFkcQa7SXJvY+H6aZQaz74g59SWPJZ8QyJ86pEDTlT/D9PJOfzQm6P7mfbPtANnfSHcLAUSsElV5yV9BXEsSSgaO+2LHGw0ns+Oz2Zp65+WePqbkfK5wlH5d4X7XXk7ZV/xk5AADAeiGIdZpLDHXQMr6sQ/a3Y/w3Kc7aWun/Q6zkxDmceNtBodOEntOT8BVO6LvP/Ey251eAuvka+VDSHo9dO+u3+nRgmO1Xhogwf8mq2PRYrFWtEtbqUxOEYvvPhB5xv9vtflswewyNueYCq/04zcSPST8Xs/3KY+rmT72elNJvTTz7wgNmPwAAAOIIYlL3zYlTvZWu7gs9eg67A3K80JzERlYTyoKYNzs5n5GrKPMn1+EkPB4iJsxAo/bl52zCijimEGgMvf11Iaflj7cLiOqYZFCZso5tOp9eQRpCP5bzc81ClSafl26lq+tr7pN+nILp42Uft77/J4/OP06LHFPzGJrHlHs9CSWfD7vvK20QO/sVd6/VDwAAgCiC2MqkV8UwRAgaRtjBCjztznvauXedeN3okw66x14jiAEAACyCILZKzWdsCGNL61bErFU+1Jdaze3pVsT4f8QAAACGI4itGl94sITZpXQlnyVDBc0liZnX64En3WvNJYln3ZfvM/oBAACQRRADAAAAgJERxAAAAABgZAQxAAAAABgZQQwAAAAARkYQAwAAAICREcS2xJF7j5vtQ9SYQ7Lmq72PsaWOf9Pvm1bj/iwzx5iP59DnVbeNeaxebH9DjqP2MVvzjf24AACwSQhiO8CfnCzKmi/I9XupGt0X9hkjay1WTcm4muTxlrLmCVL9oS9WE+ZfhDVfDam5a+x3mTnCWP8zRo/J1QfWGN0WlNSnxnuxOWJ0rRarKRkb6Nqw7xhZa7FqSsYBALBbEcTWzNATl3CSZLH69XhJ96fqc3N5YZ851tgxLLLv1LHLbd2XMqR2FWL7X/a4wvhF5pFjlj2+krpUje8LZJuukduW0jG5uVL9JccRlB6PVzKvrylhjQUAYDciiEXd4A5MThoOXGv1BSU1w9Q+URkyn65Njc3NG+sfcjyrNvRYdH1uu9ROPyax/ft2i1Wr6brScZ41NkbWWVI1sm9IXY4cK+m+WG1uDkuqX46XdN+QWi3WnxsHAMBuRhCLuHT//e7IHQfdpUZfUFKT4k9SSlnjA90vt3NjpdQ8Wm7eWP+Q41mlRY7Dj5HjwnaKHB9TWjem2DGVHGutseH2ovPp/tT20H3k5i7hx8RY9Z7VF9pSfRbdN6RWi/XnxgEAsJsRxEx73PV3HHe37d9j9AUlNWnWSUppmxZqdG3J2GDI2Fyf7A/bFjluTEP3LevDbT3Hovdn0XG1WfdRyh2n769RE4S6MMaixwSxPtkeuy35dkm26zq5vSrWfkJbqs+i+4bUSr5P9odtixwHAMBuRxCzXHvX5KThLneV1ReU1GRYJyalbaE9JVWj5wq1qW0p1yf7Y7WpOVZJHl/JMVi1etyQ+bTUvGOy7kPJ8fgaPSYmNkZL9eWEuVNCnRwTbus2+bOUnsdqX4Q1R2ru1D5135BayffJ/lhtag4AAHYjgpjhqkOTE4tDN5h9QUlNTjiBKWGN16w62ZabR/f77RRZK8fIn+F2TKgZS9in3PeQ47DGp9pLxOaK8f2LsubzQp+uSY1ZFX2sYTtGjrXomrAt21PzlOyjhN5fjhwrx6XadH9sHs+qTZG1coz8GW7HhBoAAEAQm3f5QXfb5IQh+QUcJTUFrBOT0jZLbmxuHt2fqh+yr9g8qflXIXVMQ44lN3bIXJ5VP3SOZcX2t1PHkdvvkOMquW9WjW/TYu2BnkNK9efGBnJfkq6xbmupcZrVF9tPbJ7U/AAA7EYEMWWML+kIcic3qbbA98WEflkbblt0f6p+yFz+dowcs0p6X9a+S46nZFzJPFKsfug8Q/n5g1i//Jki5yplzaFvy/oUOY8W65ftqTl0X8l8liH7iLHqdJvcHrLPIbWa3meMHAMAwG5HEOtpv44+/QUcJTVlrBOVGGu8ZtXJttw8uj9VP2SuWG1ujlqs/SxyTLXm0WrMsYzc/hc9jmWOPze2pD9G1li3Nd0Xq03N4YV+/7NUbI5cWzCkb9F5PNkfq83NAQDAbkMQk0b6kg5Jn5wscrISxuifqdsW3Z+qHzKXvx0jx2glNTmx8TXac8eW6w9K61al5L4NPcZl75McX3J8KbHa3D4C3ee3Y2SdlurPjQ2sukXn1X2LzuPJfn87Ro4BAGC3I4gJY31JhxZOUBY5UZFjrNuxfovuT9UPmStWWzJHriYlNXaZeWvb6WOx9q/bhhxjrHaZOVZxPFKqJvTpn1puP7HxuXklqyY1bkjfovN4sj9Wm5sDAIDdhiAWNF/Acb+7/nKjLyipWZA/SRl6oqLrh25rVn2KrNVkf6w2N4dXUrOIofOm7k9uO2dofW2lx19ynLma0vtaax7P12pWjW4L9JhYbWoOT88T2lLbWphDs2q9IX1yPous1WR/rDY3BwAAuw1BrDPml3RI+iQnbA85aQm1ekxuWxtSXzLXELE5rPYahs6t64dupww9ltrk/nPHkur3faWs8VKsJrSn5gj7kKw6L/SV1MjtGFmn6f5YfWoeqy82b2oeLzbOUjLXENYcAADsNgSxxs59SYfVH8i6XL3us2pT471c/xA151qFIcdX8ljmtlOG1K5S6XGk6krmWLam1j6CIbVerL50Hl+Xqy2pSSkZu8z8Ws25AADYLQhi3g58SQcAAACA3YsgBgAAAAAjI4gBAAAAwMgIYgAAAAAwMoIYAAAAAIyMIAYAAAAAIyOIAQAAAMDICGIAAAAAMDKCGAAAAACMjCAGAAAAACMjiBW71R1/+S336ungtDt+k1U378gzk/qXT7p9Rt9yFj8mrNKD7uT0OfFeckfMOgAAAOxWBLFFHH1pUOiZBbEuOMVC2cB5e5YZu+t1wemZB42+y9y+h08vHKaWGQsAAIDtRRBbxMJBLJyY22OXWjkjiC2leezNwNSF50hIyyGIAQAAwEIQW8QSQezCm066F0+/5V58+FZV167KzLcXIogtp3n83nInj6r27vmaay9EEAMAAICFIDalP2+VOPnOhZ7upL5nutIVuTzRnFN/1miRY7JXdMzVty50zB/zzmiO0R937/FM3Eezpn0M7cetHdeGX/vyRDNIzT2/8aAVDWJmwIuEcb2/2OrcfV9xZ8+edWdfeMDuBwAAwNogiDWMk/Du5NdcoYqGHvvSQx16SmrakNA/gbfGTUWPqTCIGePNsDaiZv/+eZkeQ3dfesdkhJfefYmEm0bbF8JQuz/5mBuPnQ9QvcfSOqaZZYPY/Hj7+WwQxAAAADYGQWwidrIcDSLR0GOf9M/N052Ez+pSYUEwT947SwWxtmZu/83+rDkT9nzG/fDoA7bbD7iHrDER1uOvn6tme+45kvenf9969fr+NY+heHxTj7cQe/0k+8y59eugHxSnmuO09wcAAIDNQBCbaE74rRWG2AlvLPREgst8oOjCUWiLzdcFA61+EGtP+K19ebkgsiolQaypMY650d3n2fPbPRbhcWqeL/n8do9DNy4Woux92sFoqSDW1czvy7OeawAAAGwKgtjE7ERd9a0siPVP0K3+EMJ6q1TmyXunQhDr7WsN5B63WI3WjGlqJvdz8vPIZLu5r8bzO5sv8bipxzkatlJ9A4LYTgVhAAAArA5BbCJ2shw9yU8GMX3irFa/5mrtEGQe08qCmF2zkJ24NDESgqb8Y+PnmfxsHmf/OE62fSCbe17C43g08Vyqxyl1DNE+87nUr4X1DMgAAABYHkHM606KeyfYzQn5gqFHBxw/tz7hl33WXHof4RgHH9N8oGlXdfpt4f6u00l/SRALYWX+8RWax+70JHyFx6d97P32fPjs5mvMByh9TO3x2LWzfqvPDl36OQjzm8+5Fr6s47Un3cetfgAAAKwNgtiUPAH3dKjR/ULvZL5f50+gm5NpIyhMT+IjIWIamBr+eNq5Zyflix2TP9E3j6kLYz2pgLNiZUHMsx4H+fx1/WKu8NhbwXP6uM+FNE/ty8/ZPG7imERo1nr76z3e/ni7gKiOafo6kaxjO/Cke80HsbNfd48dUH0AAABYKwQxYIvc+wJBDAAAYBMQxIBtEVbE+H/EAAAA1h5BDNh4D7gvN5cknnWvPXbQ6AcAAMC6IYgBAAAAwMgIYgAAAAAwMoIYAAAAAIyMIAYAAAAAI9vYIAYAAAAAm4ogBgAAAAAjI4gBAAAAwMgIYgAAAAAwss0OYleccu/c9z33/Yl39h+zawAAAABgzWzHilgXyN68zugDAAAAgDWzNZcmPnHoe+77h54y+wAAAABgnRDEAAAAAGBkuyiIPeC+fPasO3v2K+5esx8AAAAAxkEQAwAAAICRbU0Qu/C6M+77933XvXKF0QcAAAAAa2R7gljjKfdm83X2Z9wTZj8AAAAA7LytCWJH9n+XAAYAAABgI+yiz4gBAAAAwHrYhV/W8XX32AGrHwAAAADGsYuC2EH32Gs+iJ11rz120OgHAAAAgHHsrksT7/sKQQwAAADAjtuSINZ+W+I7+48ZfUFYEeP/EQMAAACwszY7iF1xyr3TfF19ejXs3hfaSxLPvvak+7jRDwAAAABj2ppLEwEAAABgUxDEAAAAAGBkBDEAAAAAGBlBDAAAAABGRhADAAAAgJERxAAAAABgZAQxAAAAABgZQQwAAAAARkYQAwAAAICREcQAAAAAYGQEMQAAAAAYGUEMAAAAAEZGEAMAAACAkRHEAAAAAGBkBDEAAAAAGBlBDAAAAABGRhADAAAAgJERxAAAAABgZAQxAAAAABgZQQwAAAAARkYQAwAAAICREcQAAAAAYGQEMQAAAAAYGUEMAAAAAEZGEAMAAACAkRHEAAAAAGBkBDEAAAAAGBlBbEFH7j0+qB11bcrjnDtO2b9Nr53Yfal9H7fhMdum5z1m0+9j7vhL79+Yj8PYj7m1v0WPYdljT41fxeOyijlRz6qen9J5x3p91Diemse67FxjPW47jSC2oNgLZMgLx9eWssbvBqn7PvRxkY+nHBtr13SdxRqj2yTZn6u1hP2WsMYHVr3FGhvI/pLbNdSez+L3MZQ1T8oiY9aNvg9ye9n758enWGNqS+2n9Bh0XTh+i6yTUn3ekHlKWeM1q650rLbouCA1Pje378+xxug2rI9ln5/Y+NJ5Q53/WUKPT1lkfKqmZHyKPI7AqitROlbXyX3HyHrJqo2xxi+CILYg60lJic2xaNtuUuv+y3lKbteQm2/ZfVtjStuGKB0f6vRP3Z/iazSrzkv1rUJsf0OOI9ynEtb4dSaPOXZ7WTv1uMT2O+R4dK3cjt226FpJ1qWU1g6pK7HoOIueK7D65TjZH37G5Pq9khrsnEWeHz3GmqN03ljd0OPy9ZpVl2KN0XNKujawaj2rNiY3Xm+nyNrcPKl5rb7StkVtXRC7dP/97sgdB92lRt/U5Qfdbffe766/3OgrMPRJjBn7CW8em8lcU4dumK+79q5+Te6xHIE/jvAzR4+VZH/JbYvvj4nVW+2e7pNzWWStHLNoW6lFxqaOV7NqUttSqm8VYvsbchyltWad/v20fod3kDzm3nEqckyuXtfI7U2Tuj+x25YhtTGl40rqYjWLHNui9yeQ4625cv1Sqn/IPPXscdff0f/9OHDtfF3R3/pdxD8GVnuKNUa3lcwra/ztHDlWy/WXkHNY8y2zjxrHJw2ZL3W/ctuS1VfatqgtC2I3uAOTB8d6Y5KuOjR5wS/xxjT0SYwZ9QlvTuAy4bMJqPnHr4rM8ZTc56GPi6wvuW2J9S8yn1WXqrdY9aVtQWzfflu2xepCW4o1Tm/H2uX4FDlmVWL7GbL/0tp0XXdCtqYnWPrYhzw+njU+RtbVZu0vp3SO0CfrrNs5Q2olvT/NqouJ1ZSM1RYZI+WOPbTl9qP7U9u5uWppzl1y/zha8re+ktzxzAXCYIXvW+b+IqzxgdWv23JzeLImNz43X8n+Ukr2t8w+lj2+wM8TY9VroU6Ple2yXrL6StsWtV1BrHkDustdZfVNlYW1GP/gyycgbKfI8ZJVG2ONH6IkfBatJtZS8Mcid7+HPi6yvuS2JdY/dD7fbtXF6mPCPCWs8Z7sG3pbC336p75tbcfaY3Veqm8VSo85pbQ2XbfeQUwb+jzp+tj4ofMuo8YxpO5X7HaOr02xxniyT9el+jTfr+tj5DiLrNFjJTlGivXLsRarXrfp9tjt1RnnH5qHKAtiuXOyukqfz9xzVvKclswha3R9blsL85XKjS2dU84TWHUx1vgSemzpXLlxqXl8Xylr/CK2KIi1Jya37d9j9M0sGzb0E6CfjNy2ZPWVtg1TdtJW9K9ttWxwEIuRNdZtSY4pqY+x6kvbAt0XtvVP3a/Jduv2IvNY21KqbxVKjznF15ayxrfWJ4hZx6zbLHoeSffL7djtVYvta8gx6NrYfbHm9G2SbJd1Ummfriud3/P9JfW5ebySfVntge+vNUdKqJNjwu2VKbpiZdz3BYJYfg5ZE7ZT5Hgt119qyDyrrI2RNXqM3A5tQ8fpbcnqK21b1PYEsaLPfZWFtZjwwMsnQD8ZuW3J6ittC5o3wkl/YL9J1wpi3TzT/UUe7+4PxrRO7Fcfb09k375Pt6Xapd78A1nzlZBjrXlCW6xP0zWS1V/aFsT6hrTrtti2bLfmCe2aVeel+mrQxzGENZ+X6iuX+51u//VcHk//vWG+X9e1J1HG73jihNCPj23rvpTSeYbMuazYvoYcQ6iVP2PkOE32h9t6zCJzlPRJoU/Xx4QaS66mZHz4KVk1Q8TmkO2LzDsz7O/q0kFM/32O/c1v/rF0Vjc7b4q/d3jy/KokiDXnBP54e/vLncvF+fGLtkm1+mWdHpPb1nL9JWJzyPZwe+j+Fjm+1BjdV1rrb+fIsZLVV9q2qK0JYvkQMVGwClNCPgH+do4cK1l9pW3mG656o27fBOePp9U9DurNVpu96bdvvr0Qaz2e3Xy6bu6Px4Dnws8nb6fIcZrsL7mt+b6cUCfHhNu5vlhbSukcqXl1X9jWP3V/TKo/NqeU2l+qbwyx/Q05jjrHnDrh8n39k59oqJpq5+v/I5XxOz/RzFX4jyZye5nHKDbPkDmXFdvXkGPwtSXHn5szNke4nRvvxebI9VntQ+u10LfIWE3W6tuW0B8Tq5HtJfPYcn9Xu9/zSY2p+z0s+ls/N3fLOncK88m/25fuv2vu/SN33tXOUxDE/HFO5+nuc2LeFD/Xom3Ssv2BrNNjctta6T5jSudfdD+LjEuN0X2ltbnjGLLPIW2L2pIg1r6Zpf+lSPzLi9E3xNAnMcbXlpob37yhzr/B2fcxddI2k3pTtU++9Mlb9y9lJY9xYRAz73sn1WeR9SW3Nd0X2150vlhbiq8vZY33ZN/Q27ItRtfJn5bYGGs7Nc8qxPY35DjqHHPZ7/RU5l/TY+GqPUmS7zN2OAv0fZPbyzxGsXmGzDmUn3tRqfl0m9wuJcctOmfpHCXz6foYOUbW69tyTEoYJ8n2cFv/1P0psRrZXjKPpezvamfpFbHUvOJvcbef2O+4lDpn8EKg0+R9sOYoCXAxfv5F26Rl+wNZ52/nyLFa6NdjND0uNSb06Vq5LcmxQ8XmK22P1XqyL9z2PzVdq+n6FGv8IrYiiBX90ha9iZXRT4DcHvLkWLWlbbE3uEbkjX2ZINaekEWEeYc8xpkgJue3+r1Un0XWl9zWdF9se9H5Ym0ppXOUHIeuiW2XzBXbjrVJuTnkdm6u2mL7G3Icodb/zNFjZzK/083v1/x85u+mPhGb6xPjIv8AFPh9WLdzfVrp2Nw8NcX2lTsG3x9qdG1ubIwcZ90umVeP06y6mJL6ofOUtFv0sejtcNvalu0xssa6PUTR39Wg6O9r6n2h+4fSiP7veP4fSb2yIJY+N1tFECtljQ9kv67NjZVSY4fM44X61Lgafam6lKHjUvu05krNb80Vm7N0nqFti9qCIBb5Vx6l+cVOvGEMkXpShjw5pU+u1TbsjapSEMs9fhWDWJB6PIc81p6sL7mt+b6cUCfHhNua1Rfm0XRdYPWVtgW6L2zHxgxpL22TdH+qvmSuXM0QsblK9yHrcmPS/Ynf6S6E9d4To7+buffP/n78+0DqvTZ1/1J9mu8Pwrb8KevktiTH1xCba8g+dO2ixxfGyfFD5y7dd0mdPo4YOcYSqykZG8haPc5va7LfEquR7SXzWIr+rgaVglh2pWsLgtiibVLoT43NzeEtOz6QtalxQ+b0fH2ONc4ypNbT9XLbmis1f+jzP+XtWI1sl6y+0rZFbX4Qa96ccm8auZONYWJPwNAnZqknfMCbZfrNeSb1plr2xlj4Ru9taBAbsh1rC4bWW0rnqHkcsT7fLvtS88bm8MI8klXnpfq83PghljmOQNblxqT747/T5u9q5CSu+Z3PvC+0v6t+Pv/7nX4PCMccO3bfHgzpC0JfqibIzTVEyTGV0LWLzhv69E9t0fmlkjpZs8ixBMuMDaxj0T91f0qtGsugwLF0ECs7DyjbT2sdg5hlkefHj7HG6bbc3LH+3DhN1qfGlszrawKrT/4cYsiYsH8t9On6VHvo0+NDm1Qyz6Jti9r4IDbsRMLoW0DqSSl9cmJ1qbn7ujfVovu1fBCbXtaQeNP12jdQ9SY+efzn3tS7N/tcaEs9nqk+i6wPt/UcQ/ZXMnbIfLG2mFhtjeNIydX7/lhNaE/NofuG1FpKakrUPo7cmHR/4nda/yNH97vm59O/l2XvH+KSpsR7SDje3P1KSY3VfSX7WeZYpCHHlTLkPsT6QvuQ/Vr8+FLWeEnWxOqHzlPSbtHHorfDbWvbEuaQrBrdVqbs72pj6SA20fzO5//uNucC6h9KrS/raP/ex/9BddODWElbqt1LzZMaJ+m6ofsL7YHV7+m+VK1l2fqwHZsnNb/sS9V5Q+e32nP7GGLDg1j7Jpb7l5uisDaAfgKs7dyTFOuX7eF2fK4QxvrmH48aQcwTJ2RTxptw92Y/lfmjMGXs27eHn6Xk+EC2y7rYT0sYlyJr5U+L1Zeq12K1sj3cTs3r+4ay5vFkv67LbQ8R24e2zD6kZfdj9fu2HD0m/EPHvP7vYXsiJfv0e6X1u9wxfl9zJ1x+nN4uIcekxGpTcwyZPyU3T8l+Qo1V69tirFq9XUKOkWOtdq2kTu6rhDWHp/vCdmqMJmut+TTZX1oThL5UTV7h39UaQczTf3c942+vfq+Jhbf+e02/bpODmJabI9av263t1NxWXxgTo+uDRfpSY4JQU1Kbo+dYZO5YbW6ukvbcHIvY6CBW9Ms6YJm9lHwiUk9G6Nc1qTHakFrYYo/h0OdlaP8i8+XGBKV13pDaErHjjrXLn1qsvcQyY4co2c8ix5IbM9b9K9G81yb/kWZ1dvJxKpm7dP/r9HzWVuu+WfMMnTtVr/titUP2OfT4ML5ln6OS8bnXkv+Zmif0p2qC3DxWe0xun6XzDd2vJTbHkLlztWPsY6gNDmLtv/zklth38gQCADZe8y/o8dUwAACwmM3/sg4AQHWzS44IYQAArAJBDAAAAABGRhADAAAAgJERxAAAAABgZAQxAAAAABgZQQwAAAAARkYQAwAAAICREcQAAAAAYGQEMQAAAAAYGUFsa3zR7f3q37jP/snMJz43X3fJ7/51r+azv//KXA1q2uce+tYX3HNT97i7D+uaa9zdZ2TNF9xDJ3TNznji0Pfc9w89ZfYBAABgcQSxVTh2yt3yxjfdlZ80+lbkw78/CVVffctdYvRNfe7PJ+Hrr93eTxh9leWOZy4QbmUw7ALWqX1G38yBU5OaMze7q42+usqOJziy/7vu+/edcU8YfQAAAFgOQWwVRg9ir7hPTEKMtQImNeFopKBTFsT+3H3Y6Nsah292j5srYFK7YjbOCtiAIHbdmUkI+6575QqjDwAAAEsjiK3C2EHsE2+5W7NBrLt0kSA2nhOHI5ciCk1YW7cg9pR7877vuXf2HzP6AAAAUMNWBLHLnnt7EnwCKwA94vZO+42aTz7vbmza7nJXfk3UPfeImMNT/d7XnncXd/3941BEXTn9ua/IZYW1glg3z3R/sSDVXOI4q7v1d7/Y9bUrc7JPmtWVBbHpCl5vf+NcWpnUhafpZ7pilxXWCmLNPGJ/kSDVXOI4rRP71cerzO27WQ3jkkQAAIBV2vAgFoLRKXeZbHtOhJ4mZL3tbnz0rq7/Mnfxo99swtHeY/2aXluzqiW2J5qgVRKoqqyItaFGhpf+Z7zmv5yjpwtR0c9iNUSoMT4/Zq1qhflk6Lvkd/98LhzVWBFr5vDHOZ2nu8+JeVfOCFf9z3jpL+dQmhA1/+UcPSLYXf3sPZO2w+5At22vaoX5VN0pHRDLVsSaL+i485Q7YvQBAACgjo0OYm2gSgceOzx1AS6seHVBTIausIo2C3BqTEqFINYElbnA0QaRXjjzll4RS80rwlm3n7k6Q1kQ64KWIO9DPAgOvKRxz2fcD48+YLv9gHvIGmNqg8zjz17Tb499FmzpFbHI58eaeWehqw1rmf00SoLYMffKnVyWCAAAsGobHcTyK1RteJKrYUET4sLYoiA20a2SZS81rBDEpqtBFh2mlg5i6UsKp/MO+NbFaitiNYJYNenVLjswLRHEkpcUzuYt/9bFkiDG58MAAADGQBDz26VBLBCXMvYvi+zUCmKJINNTKYhlV7oIYk0Qm1sRi6kUxOzVspm6QYwVMQAAgDFswaWJRhAS6l2aaDDHTdS6NLE0cFS6NNHuE4r201qrIFb50sTcZ6ymKl2amAt+858jiyk7fj4jBgAAsHobHcSm34bYC1qTkCW/rKO7nFAGqrnPli0axGKBq5svOTaru1ywZFVs6SA20X0zYW5VrAlHalXM+rKONjDFV89GDWI1NeGqcFVs6SAWQlZuVay7ZLK3KjYJXXNf1hG+WTET2vg/xAAAAFZuw4OY161u+UDWiAejWY1aRSsKYl3o60msenUBcCp5CWWM9dktI9zUCGJeF8Z6jCDYhqFZTSy8taHNrtvYIOZ1YazHujSwQhDzQhjrmVvV6la7pjWx/eo6a9/t58S+f+gp1Q4AAIBatiCIAaiOVTEAAICVIogBMDWfFSOMAQAArARBDEBUE8a4RBEAAKA6ghgAAAAAjIwgBgAAAAAjI4gBAAAAwMgIYgAAAAAwso0NYlfu+ai76IMfMvsAAAAAYJ0RxAAAAABgZAQxAAAAABgZQQwAAAAARkYQizj/hHPvOvG6an/anfe0c+d+SrZhvbTP0Xvuebrfvvc77j0v/sCdL9sAAACAHUIQM1xwz4/cu2In7Z/6waRvN4exa9zdZ77gnju1z+ibOXBqUnPmZne10bdKTYB++jvuglgfYQwAAABrgCCmNUHrR+68vUZfJxnUtt76BrH889Kuls2vdAIAAADjIoj1vO7OfdG4rG3OGCf0d7krv/a2u+W5R4y+nbSmQay59LBgpbK0DgAAAFghgpjUrIYVrnQVrJwt7ZPPuxvfmISxrz3vLrb6B2iC0bfmPf7sNbO6wze7x2W/DFK6T3nohK/b5x4y+oLevrwTh/s1Otw1/YfdgRD+YnUTzWpY5JJELXX5IgAAADAGgpgw7AS9XT1b/crKI26vD2NvfNNd+UmrP68NYT7QdG1dqOoFoyb03OPuPtxtT9irWnVWxK5+9p7+MVnziqA2Pdbu2NvgFwxcoRwSuAEAAIAVIIhNRb5tL2rxyxMvfvSbk2Dlw5UhciniZc+1/XuPzfelWcFJt7XbcytWTejph7M6QaxdOeuHqYnpCpjc1nXt2P6xDgzFXJ4IAACAHUYQmyr9fFgw/hc/TAPcwM+NxVbEZgEnfUlhPwhVCGLJyxxF8DNW6UxDgxVBDAAAADuMIDa12IpYef1yFl8RC5cB9gNPf0XJWmWKqRfE5lbEtNIgttCK2Io/3wcAAAAkEMSEsT4jNuzSxO7bExf+jFjkMsCesnDVqndpYjb4FQexgauTfEYMAAAAO4wgJg35JsSN+dbEIaGnbFVs7lJHQ7sKFw9RYZUuGRCLg9iw/9stF7iPPPOWe/X0W+7Fh281+wEAAIBlEcR62lWu/MrKGJ8Pq/j/iHUha45esbLqzFWtblVM1FmBqg1sMzrkWZdM9lbaBgSx8Lmv7KWiBZ8P2/fw6SaIvXr6JXfE6AcAAACWRRDTCla6hqy+7LjY57G69rLPhW2G/PNSGqAfdCd9EHv5pNtn9gMAAADLIYgZmkvXYmGsCWob9I173SrXXBCLtW+0LmhFwlj7vOYDdFgRO3nU7gcAAACWRRCLaE7a51ZO2hP9Tfvac/MSwNJL/jZO+xzNXaLYXJKYCWE3nXQvNpcknnbHbzL6AQAAgEoIYgAAAAAwMoIYAAAAAIyMIAYAAAAAIyOIAQAAAMDICGIju2Tvnbue9bgAAAAAuwlBbGRWMNltrMcFAAAA2E0IYiOzgsluYz0uAAAAwG5CEBuZFUx2G+txAQAAAHYTgljUDe7AvcfdgWutvqCkps8KJmP58KEvuCOT4z3ymWNm/1isxwUAAADYTQhiEZfuv98dueOgu9ToC0pqNCuYLOu6z0zC1W/e7z5s9EkEMQAAAGA9EMRMe9z1dxx3t+3fY/QFJTXzrGCyrNIgti6sxwUAAADYTQhilmvvckfuvctdZfUFJTUGK5gsiyAGAAAAbBaCmOGqQ5Ngc+gGsy8oqbFMA8knH2gvEwx0kGr6H3DX7T3mbhF1v3Ho7q6m367N6sQliUZfz9LHFNztbvhNMY8n5rIeFwAAAGA3IYhplx90t02CQ/ILOEpqInwQaYPRF9wN+3Rw8SGnaxOh6JZP9tum253yFbE2QFlBbNgxzermx+WPx3pcAAAAgN2EIKas6ks6gmgY2ne/+41s6OrCkfqyjeWD2JBj6oeuuZrIMUrW4wIAAADsJgSxnvbr6NNfwFFSE9cGFxVmGm2AmYYhK/RMWKFr6SC2zDHNBbGJ6cqZfVzW4wIAAADsJgQxaYVf0hFUCWK1V8RqBzHV14ay2SWO1uMCAAAA7CYEMWGVX9IRLHUZoA5GnfW6NNGgaqzHBQAAANhNCGJB8wUc97vrLzf6gpKaDB9EmuDUCzRtwOqFKSP0tOPEl2d0rC/MsMWC2OLHVBTE1DjrcQEAAAB2E4JYZ9Vf0hGEcKK/Un7uyy2a8CL6vcSqVxukZmTY0n0z/VBXdky5INaGvd48aoz1uAAAAAC7CUGssfov6QimASbHCj1bwnpcAAAAgN2EIOaN8CUdgRVMTAQxAAAAYGsRxEZmBRMTQQwAAADYWgSxkVnBZLexHhcAAABgNyGIjcwKJruN9bgAAAAAuwlBbGRWMNltrMcFAAAA2E0IYiOzgsluYz0uAAAAwG5CEAMAAACAkRHEAAAAAGBkBDEAAAAAGBlBDAAAAABGRhAznH/CuXe96P3AnW/0AwAAAMAyCGLKBff8iAAGAAAAYKUIYj1Pu/Oedu499zxt9AEAAABAHQSxHoIYAAAAgNUjiPUQxAAAAACsHkGshyAGAAAAYPUIYtLe77j3vPgjd95eow8AAAAAKiGIeU0Ac+5dT3/HXWD1AwAAAEBFBDGpC2TnfsroAwAAAIBKCGI9fEYMAAAAwOoRxHoIYgAAAABWjyDWQxADAAAAsHoEsR6CGAAAAIDVI4gp559w7l0v/sCdb/QBAAAAQA0EsTntqti7/NfZE8gAAAAArABBDAAAAABGRhADAAAAgJERxAAAAABgZAQxAAAAABgZQQwAAAAARkYQAwAAAICREcQAAAAAYGQEsco+/tjX3dmzZ6dee+ygWQcAAABg9yKIrcwD7stbGcTucld+7W13y3OPGH0AAAAAShDEVoYgBgAAAMBGEFsZghgAAAAAG0FsZTJB7L6v9D5LdvbsV9y9sv/Ak+61Xn/wdffYAV9z0D322mT7tSfdx+W4iY83n1NT803se/i0e/X0W+7Fh2/ttRf55PPuxjcmASxi77FQ2wa1Gx+9y1147JSo+aa78pP9Gh3mLntu0va1593Fom1uv7ofAAAA2EAEsZVJBDEfsl54QLTFQ9VMO9+X7xNtTZgLwSxo57L2u1QQm8qtiHX9TXA65S7r2vshqzCINUFOBrhIWAMAAAA2DEFsZYZdmhhbxQrufWES1HrhzWv30Ws3w1lNhUFMhaWLH/2mCGYlQaytaVbWRE27QtYPZwAAAMCmIYitTDqINcHKh6ieSBBrwpXdpwOcHdhqKgxi0X6vJIg94vbKSxKV2aWQAAAAwOYhiK1MPIi1Iay/ahVfETMuSZS6z5K1/b52lath3rhBbG5FDAAAANgCBLGViQWx7vNgatXKDmLxz3tJ01Uwv3K20tUwb6wgVjIPAAAAsJkIYiuTWRETX8zRhjC/StYPYk178gs8OuIbGKMrZxN1vqyjC0ziizj6ygJUP3SFOftt4VsXi1bFbjrpXpzct1dPv+SOWP0AAADAGiGIVWZ/9suTIasNadM+H7b058CiX1+fWGXLhLZaQWwatrrPa/U/s1W6ktX/DJgPW80Xesgg5vW+Ar+jaxoPupNNEKtx/wAAAIDVIohthbJLGLddCJonj9r9AAAAwLogiG0Bfanj7tStiL180u0z+wEAAID1QRDbWOLyxl0ewo48016S+OozD5r9AAAAwLohiAEAAADAyAhiAAAAADAyghgAAAAAjIwgJnzuwp9zP/qpv+PcT/0t537yxyb8TwAAAGANTM5R/z8/9bfdyff+jHkui81CEOv4EPb/s17wAAAAwFr5Mfd/Pf9c85wWm4Mg1vk/f+pvGy9yAAAAYP38fydhzDqnxeYgiHXkC/vL7/1pd9X7LzHrAAAAgJ3wGz/7/t45q1WDzUEQ67SfC2v94vsvNWsAAACAnTT7HgNWxDYdQawTQphn9Y/uxGH33LfucXcfNvoqOHDqC+65Mze7q42+uH3uoW9Nxk0ddgfMuvX36plznDtzoWr/gPv2d85x/+VJ2bZhPnee+29/OblvE//tqx+wawAAwMZau3NWLIwg1lm7F/VaBrGZq5+9Z2OD2ONf/bFJUHm3e9Xou/DJdzchZjPD2IXuvxDAAADYamt3zoqFEcQ6a/eiJoitRhO0fsx9+3NGXycZ1NZZc9828LgBAECxtTtnxcIIYp21e1ETxFagdMWovURx/tLFui577m13y9eedxcbfQshiAEAsPXW7pwVCyOIdWq+qNuQEj5H5dmBqglDsZomiPmg0/9c1kMnRE2nP49d087Xr5NBzApmqbCVC2K5Y2rGN/vr37/Hn72mV9c4+pJ79fRb7tVnHpzvG2JIUClYOVveI27vG5Mw9sYpd5nZPxBBDACArVfznBU7iyDWqfaiLlrJusbdfcYHDxlkJm2nRBCaBqfZXG34kXN385za121PHL7ZPa6Cz/y4+eBVL4gNOSZ//0R77LGrFMSaL+j4znnucaNvXrt6tvrPit3lrvyaD2Nvu73HrP4BCGIAAGy9aues2HEEsU6tF3UqvARWMJpjhRIdaJqa+X01oWoahNoVJ73StLIgVnRMkcfACGz1tJcbln+RxeKXJ1786DebYGV67pHkmBsfvcvsL2F/EyQAANgmtc5ZsfMIYp16L2p5qZ0dtqzQM6cgiLVhJuxLCfM3Y+aPY1VBrOiYpnX23Ksx9BsFx/mcWM+xU21YG/i5sSaAbew3PQIAgCHqnbNipxHEOvVf1OHyw5Zc5akbxDJhZkeCWD5gjR/EFlsRG+ur4KutiBVfegkAADZR/XNW7BSCWGd1L+r5z0wVhZDiSxPnQ1aPHtPojmkFQazomCbGD2LjfUZs6KWJzbcnTvr4jBgAAMhZ3TkrxkYQ66zuRW19Rqu7fLEXfCbhaO7LOjJBbLrqlgo0OnSFMf3962DUbsfnjgepkmMaGMSO1vzWxMJvQuRbEwEAwBpa3TkrxkYQ69R6UTcrS02AmTG/kl0GooYKXUVBzNPztPo1/a+I931NENJBUM7jV/CaYxBhqdv/tEbo38f8Me1IEOtWufKf+xrn82H8P2IAAGCoWues2HkEsQ4v6l2iYKXr8a/+2GYGGoIYAABbj3PW7UEQ6/Ci3j3abxmMhLEmzGzoNxB+7jz33wZ9MyQAANg0nLNuD4JYhxf17mL/n1vtJYkb/TXwXZD0CGQAAGwfzlm3B0Gsw4saAAAA645z1u1BEOvwogYAAMC645x1exDEOryoAQAAsO44Z90eBLEOL2oAAACsO85ZtwdBrFPjRV37mAAAAACpxjkr1gNBrFPjRb2NQezIvcfN9p20DscUO4Zljm3Z+5UbXzr/ssexqfz9zrHGjWWn97/t1u3xla+7GGvcKul9LnoMsXGl86XqFj2mnNy8ut+qLz22VF3pHMHQ+lLrMu+ixxEbt8h8q3osUmqcs2I9EMQ6NV7UBLGWHuO3c2R9iaFj9P5irLGB7C+5PdTQsbo+dxyl8+fqSufZNMveb98/lDWPZ/Wl6rG8Wo9veG5TrHFarq50npr0PsP9kWR/TKyudLy3zBy+Jscao9uk0B/7qW+nWHW+TdL9MUNqJb0/PY/ejtFzaFa9bksZWh/Exi0ynxzjb8fIMcuqcc6K9UAQ69R4UW9bEFvmjUOO1fPktiXfN5Q1T07puFCnf+r+RSwyVo6J3U61yfbUT8m3baPcfVvmvi8yVo/Z5sd+HdR6fHPPW+l+cnW1jncIuU9r/6lj8n1DWfPkLDKuZEyqRvaF2/qnvp0ix0q6LkeP16wxge7PbZcoGTN03kWOw4uNG2v/y6pxzor1QBDr1HhRrzyIXX7Q3Xbv/e76y42+qRvcgckbw4Frrb44/2ayqNh81u2SbWmZsaUWmSM2xrdrVp1lSG0gx4TbVpu+LemawOovcu1dvXmO3HHQXdr0ta/NWd9d7io9tqKrDsl95/WOOcIal1Nr3GLz7HHX3+GPfbWP9So0z1/2/a6e2OPr2zWrLtD9ue2YsK8Ua1xtcj/htrXvIccTq83N4ftjQr8ek5MaI/tidbo9bMd+5sTqSscHvn6ZuWSNVV8yh1ZyPEPnXeQ4vJJjyVl03zXUOGfFeiCIdWq8qFcdxJoTk0M3mH3BpfvvH3TyGVPzDSbM5X9qst+i+3Lblth+/LZsi9WFthRrnN6W5Ngca7zFqpVtsbl0e247qfnHgvw/BDSv0zUMYlZ7MOhx6Pgxi4yzLDbPugWx7ngy72PeGEEsPD8WWaPHyG1NzhFjjdNydaXz1BD2pfcZa8+J1ZfOkxofE6sv3bbmsPr9T81qD+O0WF9qjCZr9e3SeWJzpNpSwr4l2Wfd1uTYnCHjc30W2ZeqW5Ua56xYDwSxTo0X9WqDWMlKV3uSc9v+PUbfMNYby6JvNnpcblvyfUPE5lj0thb69E9929qWrL7StsD3pYQaWR9uS3KMFvr1mJjSfwjYDUFMP37+Z8kcoa6UNccMQayEfhzldqrPkqvPjQ+G7meVwr6sfS5yHH5MjFWvWXWlbUGsT7bHbltK95Wri/WnxuWk5o0J9bWOR9fL7dhtzeorbdNiNbK9ZB6vtK6mGuesWA8EsU6NF/Uqg1jRCW5zSdjyJ1wlb1AxviaQbbomtS0tMzaIjdE/db8m263bpfN4Vl9pW0xufGwu3W5tW2RNUBp+1jWI5VjjLLJWjxs6lxerL5ln6OOwWuVBbIzXSGA9RyV9llx9bnzg63Kscauk9ym3hxxPrLZ0Dl+nhXZdJ7dle06ok2PCbS3VF1hzar4v1l+yD03Pl5pf0+NkX6wtJjc+t68gN0+qTYvVyPah8/jbOXLsMmqcs2I9EMQ6NV7UqwtiZStdzQlXwQlOSurNYsibiKwNc6bIsZLuy21bYjVD2nP7Dduy3ZonsPpK22Jy42Nz6Zog1h9uW5YOYualje1qsH79t3PMjlevnkx/H3qfWVvtiX3Yj26T27l2S4055kw/cxpWzTrGe8jcY229z+jPBk5Mn8fuedX9wdDPtNbmjyG2neqz+P4ca9wmCMdu3Y8h9ytWWzqHrIvdtrZjYuNSc8t2WW8JffKnJvuH0PPIOeR2qt+SGh9ri8mNz+0ryM2TatNCja6V27l5fH+qJjd+GTXOWbEeCGKdGi/qlQWx5gQnc4lO4WdzUsKbhvyZI8dLsi9V55XOE7Y12W/RNWFb/9T9Man+2Jya1V/aFpMbH5srtOd+6ttTxgm4ZL0mlw5iBb8TTRDzxzANhl3gEEFRH+sQcl9Wm+yz2r1UnxTqdH3peJMIR9PHtmuTj3X7OMrnqvvSFRm4i99/ylfExmI9hrJt6GOeq0+N932LsuarKbefIccQ5rJY9Zqsi922tmNidam5ZVvJflK1si02V+k+cvPr9tIxcjvctsZpVq0el+qTrL7SNs3XyLpw22qzWPVaqm9ZNc5ZsR4IYp0aL+pVBbGSla7mxHaJy49K3nyGvKlY8/mfmq7VUn2l5BxDb8u2GF0nf8ZY/aVtob2UHCPnkO1Wnf6pb1vGWhGLjhesYykZF+Tu61j0cQx5PpKM0OX1HrdYwNJBuOQfixrrF8S81GOa285Z6jkSas2ziLBv+TNHjtdi/blxgazTY8J26VxerDa1H0nXSbpGtlli/blxmq/PscYFul9uh9uLzhFrt/okq6+0TfL9sXGyPTZPSY2X6ltWjXNWrAeCWKfGi3olQazoX5rtS7cWVfLmk2O9UenxsXZJ1qTocVLo13Wx7dR8uTlibZqvKWWNt1i1si02l25PbcfmCMYKYtNVmYYdAIYGsdzjUKo9pjRrXIyul9tD5+qJvLf0HqMmYFmPV/v4z8b2L2+Mv1+tZxDzwmOpH9PcdmhblJ4r0H2p2lXRxzjkeFNitaVzpI4pbOfm8v0xssa6rZWMCbdT83ix/ty4FGvs0OOQ2+F2bg6LNcaa2+L7SqXGh9u6X7fHaqRUTcn4RdU4Z8V6IIh1aryoVxHEmpOi3Ilt9GRpMSVvUDmh1v+Ut2M1sl2SfbG61HhP94ftofNZ7aVtWs25vFidbC+pyW3H5gjGC2JBPADUCGIWWWPJ1ZTMEdSca04qiIXHrTiIzTSP+6TPm3/O6gaxsB+rbxHWXLqtdH+hTv8sZe3XImu0kpoh5Fx63tR+wnEsIjafdTvVlrLofoJYXbitf6bEakrGWhadz/eHGlmrx+Xm0az61PxSbmyqTUuN0z9TUjUl4xdV45wV64Eg1qnxoq4fxNqTltxKV3PiU/FfmGNvHkPeVHxtqJc/NdmvWe26LTZWKplHivX5dtmXmjc2R8oiY4KSsbGa3FjZn6sdP4gF8yf4NYKY3C415PFMKalb9BgbkSDWez+J1JRcimi/FtY3iIV59Hy5bYusid3OWWS/mh+zyLiY1DHV3E9K6hjk9pDjKalN1cg+fTvWFxOrKRlrWXS+0K/rctspJbVD5vOG1gfWuNAW+2lZtG9ZNc5ZsR4IYp0aL+rqQaxkpas5USr5bEa52JvHkDcVWZsbN3R/vj2w+rXSuiBXn9p3aB+6T2+RMV7puNQxp+haua0tHcTmQle77febDmLzYW1IEAv3S96/3H2NyY0rmbd034seY8MIWe3jI99PwoqjfMy65yQZpuKBq3lecu9rAyz1GHT0HHLb39ZkrWT1W9upObzQL+tyY2IWHWdJzTVkP7HakjlCjf6pb1vbMb5Os2p0WyD7crdT83ix/tw4S2rMIsexzLGV1HildcHQ+kCPs+YJbal9LNq3rBrnrFgPBLFOjRd17WPq/ct0RHPiVHDiO4R/8xjCmkOK1YR2qz/WptutNi3UDGHN48l+XZfbzhla75WMCTU15s/NkQxi3Ym/n0PrhazmHyBCnw8F8yvD7cl8nw5qpUHMjw235bZuLxWOJ8UaF5T25+qyzOfDDkj68daPdfu49mvi710h3M1YlziW8GOt9iGsOWSb7o/VW+2hL9Yem8vajs2TssiYlNTxlu4rV5fq131yOzbOavdtmq4JQt8YNZ6sy9FjJas/tOXGerpmkf0FQ/ZXUistWi/Hpebwfbn+WFtq3LJqnLNiPRDEOjVe1FWPKXZJUE/JJVvD1XzzyM1V0h9Y/UFpXQlrjtjcoS2231i7ZUitt8q5PWvMIvOss9j98e051jgv1ectMzYorUsqeo/ZblUex4wh+4jV+vYca1xtsf2U7r92XZCrt/qH7KNk/lSN7htSu4ga88u6Rcak2mKG1AbLjikZn6qJ9S1yXEPUOGfFeiCIdWq8qGseU9FKV+Uv6QCwixDEAGAj1ThnxXogiHVqvKhrHxMArAxBDAA2Uo1zVqwHglinxouaIAYAAIBVqnHOivVAEOvUeFETxAAAALBKNc5ZsR4IYp0aL2qCGAAAAFapxjkr1gNBrFPjRU0QAwAAwCrVOGfFeiCIdWq8qLc9iF2y985dz3pcAAAAxlLjnBXrgSDWqfGiJohtP+txAQAAGEuNc1asB4JYp8aLmiC2/azHBQAAYCw1zlmxHghinRovaoLY9rMeFwAAgLHUOGfFeiCIdWq8qFcTxD7m3j76gPvh0c+71y+3+oOr3eu3+7qZt/dYdYWuOOXeue+77pUrZm1WMBnFP/0r99k/+Rv32Zf/d/dLVv+Ieo9RkQfdydNvuVenTrvjN/n2W93xl632FTn60ur3sZNuv8X91Z8+5P7rN25xxy+6xn3jG5Pbf3qf+8btRu06KTzuJw59z72z/1ivbVl+zu/f551xTxj9AID1VOOcFeuBINap8aLeySD2/MFJze0H3ENG33BPuTcnJ2j6xM8KJktpAtb/4T76GaNP2tgg1oWtZx40+oQxQtK2B7GLbnDf9oHmj25otl/4o/UIYs1xNCHL7i8+7uYfRuqFsSP7v0sAA4ANVeOcFeuBINap8aJeTRAr0Ya1pVbApo65V+78nvv+oafm+qxgspTSILZG9GOSdNNJ92JJ+CGIVWAFmjvcC3N141osiEWO+7ozk/DUX6VeTPs7XnuFDQAwjhrnrFgPBLFOjRf1jgWxyw+4v6gUxFL/Um4Fk6VsexArDT8EsQr6geb4l+7byCCWO+7mcsI7T7kjRl85ghgAbLIa56xYDwSxTo0Xdd1jCpckBp9xz5t1E9WCWPoErQ0j33S/5i8TnFJB6jP/uzvUtH3VffRlUfeH35zW7PlD0a7Jyw/DJYmBmKNv+WMKfumL/4eYx+vPZT0uUUsHMfvSxiPPTNpePun2ibZ2jvB5s9bJo7r/pckJfP8za72ardZ+/uqvvnRNF3b8ylNk9el37hD9E2aQ6gKU1IUps0/wx9Cfa4DuEsU3rzP6ihHEAGCT1ThnxXogiHVqvKhXtSL20A2fN4LY/Jdz9CzyebHMSV4baP7GHfriV+eCy6/90y6sdDW+bVpnjGsUr4h1AcoKYgOPadrWhbzp9rQtfTzW49Knv5xDsT4vtmwQay6BzISqaVCb7Wffw6cj+91G4YswJqbBqmsTQasNafIzWmGcDGxd2zR4xeVXxIaqEaIIYgCwyWqcs2I9EMQ6NV7U4wYxodaKWPMZlPgH+JuVrLkvzFAhKRK6zLEVgtiQY+qFrm4VbT7A/ZXbM62ZZz0uUdGApSwbxEr2Y9WUBLg5eqVWCl8ok/5HgvA6bV/Xds0PD35M7LOG+dDVaFa/QvBqV7LmVqy6bzb89u+EtkidoX4Qq3B5ovGNqACAzVHjnBXrgSDWqfGi3vQglv4mtS824WZuVWuiCTAhDJmhJxJylg5ibftixzQfxPqXONrHNf+4JIwVxEJdt+pmBqtqQWxTRVaxZMhqblvftNiOlcGrd3ljYmVsrYJYt+K9/GfMAAA7qcY5K9YDQaxT40W93StiFYJY9RWx2kEs6PbXhTI5bv5xSRgtiKm+LpC9+PCtsz6CWCKIdeFrQBCbkp8nMwLXyoKY8a2mxap8zgwAsFNqnLNiPRDEOjVe1BsfxDInaItfBthdQqiD1Jpdmjhvfr/W4xK1A0EsKLp8cTdemqiDWBOkwue/Si9NNPQucZzhM2IAgNpqnLNiPRDEOjVe1BsfxLoTtNi/trfBqR9e2ksORZgyQs9cTdDVpsOQFw9iix5TWRCbrwmPRftFF5lAtHQQmw9U0xWvZBAzAly1ILapjCDWBSwZvJrg1AtU3bhMmIp97fz8l38sqcpqFkEMADZZjXNWrAeCWKfGi7rqMXXhylot+IsbrjZrlw9ikxP95nNi9gf5mzDShZpw2d7c577m+o0aqQtSU2J1qw1Uom9KhbrCY8oFsWZ1rTfPfFALj0VRIEoGscS3K/ZWwPp1/nLDJgSK/U5DoaRW0QhiXaAKlxF2rFWu/tfbT0Q+V9arSfzfX224myn5ko+Y5rJE/h8xANjVapyzYj0QxDo1XtSrWhEbV3xVTAaSKDP0bA/9mGBTRC5N3CTNZzhrfNshQQwANlmNc1asB4JYp8aLejuC2ET4djUVxqxgMocghrW04UGs+52sFZ6albXEf1UBAFhfNc5ZsR4IYp0aL+qtCWJec+LX/9d3K5jMIYhhLW12EPPBqe4KVrfy7f/BhUAGABulxjkr1gNBrFPjRb1VQcxgBZPdxnpcAAAAxlLjnBXrgSDWqfGiJohtP+txAQAAGEuNc1asB4JYp8aLmiC2/azHBQAAYCw1zlmxHghinRovaoLY9rMeFwAAgLHUOGfFeiCIdWq8qLc9iAEAAGBn1ThnxXogiHVqvKgJYgAAAFilGuesWA8EsU6NFzVBDAAAAKtU45wV64Eg1qnxoiaIAQAAYJVqnLNiPRDEOjVe1AQxrL9X3Cf+5G/cZ//kr93eT1j9u9yJw+65b31h5tQ+u25VPvUD964Xf+DOV+3nn3DuPfc83WsDAOxONc5ZsR4IYp0aL2qC2EDHTrlb3vimu/KTRt8m+9yfT4KODzvSugQfgliZa9zdZ0YOYnu/497zonPnfireRxgDANQ4Z8V6IIh1aryoCWIDbXUQ6wedS373r5tA9onPiTqssbGD2Ovu3FzQalbLfuTO22v0AQB2jRrnrFgPBLFOjRc1QWygXRTELrzoi27vV//Gffb3XxFtWF/jBjF/6eG7nv6Ou8Dok0rrAADbq8Y5K9YDQaxT40W93kHsLnfl196eBJ/glLtM1zTBSNR87Xl38Vy/H/eI2yvqbnz0rv48c/uaEHNd9pzqk/Q+c5rQ8+fuw9NL7lq3/u4X7foxmEHsMvfh358c21ffcpc0220wa46zdynj/LiwmjYlw1y4/9M55GMh5+o/Pm1d6JO6wChrp8cs9I55YqGAuc899K0vuIdOXOaufvYe8dmsw+6Aqj1wKvS1/BjZ7/Xn8O5xdx/O1ESDViyIxQNae4z9Yy857rAaZl6SqKUuX2w84L589qw7e/Yr7l6zHwCw6Wqcs2I9EMQ6NV7U6xvEuuDUCzmTtucemdZc/Og3J0FIrk6FMCUC2zSozermx3VBqyRQ1VgRE4Fgetlf17ZjlwE2+8+tiMnAMwtF/bDWbfdCUxeoQk24/8227/trd+tX/b7jK3BtsLODmN6/ZX58fF9pbRBrQsqZm93VTZsOOkbwOXyze1yHmuZLNuaDlzQflLr9T/ctxQNXG+b0vtq5Hn/2mm678Li9QZccPu3Oezp1CSNBDAC2XY1zVqwHglinxot6XYNYuwJlrIBNtUFtbmXrk8+7Gyfte49121Zw0jUhwImQF1UxiPVD1yLB4GPu7aMPuB+aPu9ev9waE2EEsTZQybbuGFXo6YWcT7zlbrUCpZy/d/+7kNbc70WCWMnj1u7DPiY73MV1QUiFnSYwhXDUBKzICpkY14aj+bqpWAiKBrh4EJsPXRN6nsLj9i6450eDLjfk8kQA2N1qnLNiPRDEOjVe1OsZxAqCUROmrEDUjp0GtKIgNjFdOcusjFULYnr1qWxlZ2W6cNQzdywFoScabkQY6t3/tr29LHORIDYhj916/Lpw2LtvU/PPQ5oRaJT5yw2F3kpWF+oaRrCKBKMwbv6SwVQQU2ExbM8Fw3A8ilqBGxqsCGIAsLvVOGfFeiCIdWq8qAliStfXhrLYZ9JWGMSSKzsrFDmmvjUNYkEvcIna2CrdQkqDWGKla04XoLrQMw1YlYNYu8IWAt/8HEOOe6EVsROvm30AgO1X45wV64Eg1qnxol7PIFbyma2alyYaYjUrC2JtCBn2hR2rvTRxXkEQK740cQVBLJg7BrkPUbeQfBCLXzqYo4JU1UsTZ/3Nsfs59OfMhhx31c+IAQC2XY1zVqwHglinxot6XYPYdGWqtyrW/7KO9nNkMhR1K2kywC0axGKBqxs7/62LAxihZ/4LLkZWK4iFmt59aYPQdNyqg5hxX9rxZati+x4+7V49/ZZ79eWTbt9cf0EQm65wDVkV8/Tc1jxtjR22ckGsW/WaBLC7T1n3YchxF/wfYkHxtyZ+3T12wOoHAGy6GuesWA8EsU6NF/XaBrFG982JU/OXCrbfgChq9OWMRUFM78dLrHo1c4rakm9blJqg4MOKsFOfDQuqBbFWGyxneqtRpUEs8dmu2XxdyOux70cIYz3GfTnyzCSELRXEvBBq+uTqVvMZLdVvzavrdE38s13W6lYX5KJhK3/cQXO54Ys/cOerdi3/+bCD7rHXfBA761577KDRDwDYdDXOWbEeCGKdGi/q9Q5iW6oo9ADrrmBVrPQSxvu+QhADgC1W45wV64Eg1qnxoiaI7QCCGLZFE7QiYay7JDF/+WJYEeP/EQOAbVXjnBXrgSDWqfGiJojtAIIYtkkTxuYvUfSXJOZC2L0vtJcknn3tSfdxox8AsB1qnLNiPRDEOjVe1AQxAAAArFKNc1asB4JYp8aLmiAGAACAVapxzor1QBDr1HhRE8QAAACwSjXOWbEeCGKdGi9qghgAAABWqcY5K9YDQaxT40VNEAMAAMAq1ThnxXogiHVqvKgJYgAAAFilGuesWA8EsU6NFzVBDAAAAKtU45wV64Eg1qnxoiaITRy+2T3+rS+4h04YfaN42p33dPr/XNr38Gn36um33KvPPGj2pxx5ZjLu5ZNun9HX4/8/qKe/4y6w+gAAABZU45wV64Eg1qnxot4dQewad/eZL7jnTu0z+iZ2OIj5//g2F4BGCWJdICSMAQCAmmqcs2I9EMQ6NV7UBLGJHQxiF9zzI/euF3/gzjf6aikPYt7r7twX06tzAAAAQ9Q4Z8V6IIh1aryoCWITOxXE9n7HvWcSes79lNFX0bAgNuEvUXzxR+68vUYfAADAQDXOWbEeCGKdGi/q9QxiX3R7v/o37tbf/aK75Hf/2n32T/6m8+fuw2Z9RBewnouYBq+m7h539+EusHX9jz97zfycJw735tDh7sCprq1X5+cWc3Sa1bDoZYAPupP+UkTlxYdvnaudXrYYqMsXmyDm246+JOpOu+M39eeZ6S5RPPG60ecddI+9dtadPft199gBqx8AAGCmxjkr1gNBrFPjRb3OQawJX199y10i26bbQ5StiPnQNA1nXZCSq2RXP3vPpO2wOxDGGfM2QczPdeZmd7WsmW4HubCjtcFMB7EmZJ1+yR1RdXIFrK0x2hKrZOmQSBADAADlapyzYj0QxDo1XtRrHcR06Prcn0/C2V+7vZ8QbUUWuTRxn3to0jZbFWu3+zUTTWCbhbMmiKnQNR/gvPazWOWXJRpB7KaT7sVJ28mjsm6iWfmarXiZoasZm1gV4/JEAABQSY1zVqwHglinxot6rYPY77/Sb//EW+7WP/kb94nPibYiFYJY8jLH2aWHxUFs8OfDjCDWBC65Gha0tSGg2atf/Zo5BDEAAFBJjXNWrAeCWKfGi3rzgtgOrYiZNfNGXRFbJojFVtOCJoit9tscAQDA7lDjnBXrgSDWqfGi3qgg1lyaOPALOxr1Lk00v8BDKA9iFT4jtsyliapGS39GDAAAoFyNc1asB4JYp8aLemOCWHdZov8mxX6t+NbAxJdPtF+iocNQpyiIhUCVXhUrD2JD/w8xI4hddKs7/vLkfltf1iG+OXE+iM3X9JV+a+JZ9+X7rH4AAICZGuesWA8EsU6NF/VaB7Hp19a3Yp8Na4JGJohNV8UmQSqYBqrCIOaFMNajvzWxMIiFz4mV/efJVhBrTe9/R9fMfb29UdNT8Pmwe19og9jZFx4w+wEAAIIa56xYDwSxTo0X9casiG2p8lWxNohFP9NVTfvZtWw4PPCke40gBgAACtQ4Z8V6IIh1aryoCWI7rbsMUIUxv4olQ1e7qmV9MUdN3bEUfDasXRHj/xEDAAB5Nc5ZsR4IYp0aL2qC2DpoA1B/FSp8/itYdQib8JckZkLYxx/7entJ4tmvuHuNfgAAAK3GOSvWA0GsU+NFvZ5BDAAAANuixjkr1gNBrFPjRU0QAwAAwCrVOGfFeiCIdWq8qAliAAAAWKUa56xYDwSxTo0XNUEMAAAAq1TjnBXrgSDWqfGiJogBAABglWqcs2I9EMQ6NV7UBDEAAACsUo1zVqwHglinxouaIAYAAIBVqnHOivVAEOvUeFETxAAAALBKNc5ZsR4IYp0aL+q6x3TMvXLn99z375u489Tq/wPiPZ9xPzz6wMzBj9l1O+WKU+4d/1hMvLP/mF0DAACw5Wqcs2I9EMQ6NV7Uq1kR6wLZoaeMvlW42r1++7oFsafcmwQwAACAKuesWA8EsU6NF/VqgtjEdWfc9+87456w+qpbwyA26v0HAABYXzXOWbEeCGKdGi9qgtiKEMQAAAAaNc5ZsR4IYp0aL+q1DmLFnwHLBbGPubflPJG5nj/Yr3l7T79/EIIYAABAo8Y5K9YDQaxT40W9rkHsoRs+PwlDn3HPT9tSYWvRvsCoufyA+4tlwhhBDAAAoFHjnBXrgSDWqfGiXlkQW+rLKtoVrLkQ1KyQyXAWpMJWO9df3HC10deJzNuskCUDXNwTh8b8shIAAID1VeOcFeuBINap8aJeXRBrNYFkEsjevM7uN3WrUfIywZnPu9cv12PSq17t6lo33qjp9Wu3H3APqfqUhe4vAADAFqtxzor1QBDr1HhRryyIdf+H1kKBZPBlgSWXH07Iz5yJgDV/GeTymkA2xv+lBgAAsOZqnLNiPRDEOjVe1CsLYkt9RqrgcsKewiAWNIFMrKzp7Rr4jBgAAECjxjkr1gNBrFPjRb2eQWx2uWDZqtiwIBb9IpCaq2IEMQAAgEaNc1asB4JYp8aLel2DmGd+dkuErfhnu8Tqlvl5s8QXfqhavjURAABgOTXOWbEeCGKdGi/qdQ5iG40gBgAA0Khxzor1QBDr1HhRryqI7fovq+i+rGSxr+8HAADYHjXOWbEeCGKdGi/qusd0zL1yZ/v17awGTTSrYu3jQSADAAC7VY1zVqwHglinxot6VStiAAAAgFfjnBXrgSDWqfGiJogBAABglWqcs2I9EMQ6NV7UBDEAAACsUo1zVqwHglinxouaIAYAAIBVqnHOivVAEOvUeFETxAAAALBKNc5ZsR4IYp0aL2qCGAAAAFapxjkr1gNBrFPjRU0QAwAAwCrVOGfFeiCIdWq8qAliAAAAWKUa56xYDwSxTo0X9UYEscM3u8e/9QX33LcOuwNWf8qJw5Nx97i7Dxt9CeefcO5dJ15X7U+785527txPyTYAAACk1DhnxXogiHVqvKgJYvMuuOdH7l0v/sCdb/Rd+KkfTPoIYwAAAKVqnLNiPRDEOjVe1BsRxJYxNIg1QetH7ry9Rl8nGdQAAADQU+OcFeuBINap8aImiEmvu3NfdO499zxt9EntJYrzly4CAABAq3HOivVAEOvUeFGvaxA7cMpfiqicudldrWuboJWoafr9JY373EOi7vFnr+nP4zWrYYUrXbmVs/u+4s6ePevOvvCA3Q8AALBL1DhnxXogiHVqvKg3ZUWsCWYqZF397D2TUCVXu65xd5/xQUt8lmwa1ERdZJWs+YKOp7/jLhBtce3qWfSzYgQxAACARo1zVqwHglinxot6c4NYu8I1t7LVfbHHQye6bTN0tYGtP7a93DB/WWLA5YkAAAAlapyzYj0QxDo1XtQbG8SawGV99kuFrMjqVzPfqX2irfTzYQFBDAAAoESNc1asB4JYp8aLencGse4Sxl4QW2xFrLweAABgd6pxzor1QBDr1HhRb2wQW+rSRHts1c+IAQAAoFHjnBXrgSDWqfGi3twg1rX1Qla30iXrjCDWjjP+c+iC/0NsqvRbE1970n3c6gcAANglapyzYj0QxDo1XtSbHMS89psTfbDq9C43nOhWyHo1xjytdpUr/7mvgs+HHXjSveaD2Nmvu8cOGP0AAAC7RI1zVqwHglinxot6o4KYDlmrULAqdsE9Pyr6/8bufYEgBgAAUOOcFeuBINap8aJeyyDmV7Fk6NKf+1qx5rNisTDWBLWCz4aFFTH+HzEAALDL1ThnxXogiHVqvKjXdUVMX3I4VggLmjA2d+lhe0liOoQ94L7cXJJ41r322EGjHwAAYHepcc6K9UAQ69R4Ua9rEAMAAMB2qHHOivVAEOvUeFETxAAAALBKNc5ZsR4IYp0aL2qCGAAAAFapxjkr1gNBrFPjRU0QAwAAwCrVOGfFeiCIdWq8qAliAAAAWKUa56xYDwSxTo0XNUEMAAAAq1TjnBXrgSDWqfGiJogBAABglWqcs2I9EMQ6NV7UBDEAAACsUo1zVqwHglinxou67jEdc6/c+T33/fsm7jzljpg1AAAA2E1qnLNiPRDEOjVe1KtZEesC2aGnjD4AAADsJjXOWbEeCGKdGi/q1QSxievOuO/fd8Y9YfUBAABg16hxzor1QBDr1HhRE8QAAACwSjXOWbEeCGKdGi9qghgAAABWqcY5K9YDQaxT40VNEAMAAMAq1ThnxXogiHVqvKhXFsQuesq9ed/33Dv7jxl9AAAA2C1qnLNiPRDEOjVe1KsLYq0nDrVfZ//mdXY/AOD/394ds1Z1hgEc9ytkskXRGlKHKjh0cDdboVDooH6AIIhal+Ik6CQ2VDJ0KhQFqYEGiwTBQgZHIS3NVkHE76B7eeu9vtKb62uN6fOe897jb/iB8Dg4PMPz59xzBBi2iJuVNgixLGKpq4XY8dW0JcAAAD54ETcrbRBiWcRSVwsx74gBAPBSxM1KG4RYFrHUQgwAgJoiblbaIMSyiKUWYgAA1BRxs9IGIZZFLLUQAwCgpoiblTYIsSxiqWuF2PhriUur6UxhBgDAhyPiZqUNQiyLWOrYf9P5dGfp1efqPQ0DAGAk4malDUIsi1jqWk/EAABgJOJmpQ1CLItYaiEGAEBNETcrbRBiWcRSCzEAAGqKuFlpgxDLIpZaiAEAUFPEzUobhFhmqQEAaJ2bdTiEWGapAQBonZt1OIRYZqkBAGidm3U4hFhmqQEAaJ2bdTiEWBa21Mv7Unq8Z+zpcmEOAAC7FHaz0jshloUv9TjI5tKjs4UZAADsQvjNSm+EWBa/1MfSo8096fntY4UZAAC8v/iblb4IsSx+qYUYAACx4m9W+iLEsvilFmIAAMSKv1npixDL4pdaiAEAECv+ZqUvQiyrsdTXb8+l9HhfWivMAADgfdW4WemHEMuqLfXZ+fR89Dn7zfl0vTQHAIAdqnaz0jkhltVY6rUHAgwAgDg1blb6IcSy+KX2jhgAALHib1b6IsSy+KV+d4h9cXU9ra0/TGs/XCrOAQBgUvzNSl+EWBa/1Dt4Inbu1qsQW19Pl78qzAEAYEL8zUpfhFgWv9Q7+WniqXT551GI3UpninMAAPhX/M1KX4RYFr7U+WuJT5cLs9fyE7GbV0+V5wAAMCH8ZqU3QiwLW+rlfSmNPlf/0tufhl1KN8Y/SXyYbpwrzQEA4E1hNyu9E2KZpQYAoHVu1uEQYpmlBgCgdW7W4RBi2XihD1pqAADa5WYdDiGWjZc6W/zMf8IMAEBbjh39fNvNWvo7zA4hlv19YG5isSf/DAAALdh+o5ZuWmaHEMt+WTi4bbEBAKBVvx/6uHjTMjuE2IT78wcmFtxTMQAAWjOX/jz0UfGWZbYIsWzhSkp7b448SwuFOQAAQBQhNmUcZCub6XBhBgAAEEGITVvcTPtvvkjzi4UZAABAACE2TYgBAACVCbFpQgwAAKhMiE0TYgAAQGVC7A0raX4lpb1X7hVmAAAA/58Qe4vDF16MP2e//8JKcQ4AALBbQuwN99InAgwAAKhIiE3zjhgAAFCZEJsmxAAAgMqE2DQhBgAAVCbEpgkxAACgMiE25dXXEp+lhcIMAAAgghDLFq6k8efq93oaBgAAVCbEAAAAOibEAAAAOibEAAAAOibEAAAAOjazIQYAADCrhBgAAEDHhBgAAEDHhBgAAEDHZj7Evjv9V9r68nxxBgAA0KLZfyJ2fDVtXRRjAADA7BjGTxNPPEhPLv6R7hwvzAAAABozmHfERj9RfLK0ms4UZgAAAC0ZTIi9/onibycKs7Fv048bG2lj46f0TXEOAADQjeGE2NHz6c7Sf70rJsQAAIA2DCjE/DwRAACYDUIMAACgY8MLsdPfF2cAAACtGFCIvesdMQAAgDYMJ8R2/NXEX9O1r0tzAACAbgwmxN79ftjJdO3uKMQ20t1rJwtzAACAbuw59OmRBAAAQHeEGAAAQMeEGAAAQMeEGAAAQKeOpH8AcYMGcI7TlqUAAAAASUVORK5CYII=;" vertex="1" parent="1">
                    <mxGeometry x="-1460" y="40" width="866" height="910" as="geometry"/>
                </mxCell>
                <mxCell id="4" value="" style="shape=image;verticalLabelPosition=bottom;labelBackgroundColor=default;verticalAlign=top;aspect=fixed;imageAspect=0;image=data:image/png,iVBORw0KGgoAAAANSUhEUgAAA8UAAAMhCAYAAADB5xP4AAAAAXNSR0IArs4c6QAAAARnQU1BAACxjwv8YQUAAAAJcEhZcwAADsMAAA7DAcdvqGQAAIJ9SURBVHhe7d3tq2VXnS/6/AcXX1y80HKR0DSBI9p6JWlUkphcpK10mTSFVkrwYicxhTEP5YuQK3WqTZo+xMSbQuwIRiIJpJOib4jmFHIqTb1Io3CE3EAQROnQiCD9umn/gXHXnGuOtccaa8yn9bD32nt+XnzYa47xG2POtfbT+u4x59w3fPQTnwo3feSTAAAAMDlCMQAAAJMlFAMAADBZQjEAAACTtd+h+Pavht8//Hj4/X1nwsVS/8Lnw8+ruoVvhDdvLtUNdMe18P6Fa+HZUt+h+k6485X/CH/z0/8Idz9U6t9fp566Gl6/+nZ4/fkniv1H7fzzs2N79XI4lfc9/PL8uEt9R+DZc78J751+pNi3rmrO9y9U9uFrHAAAjtYJCMW3hjfvm9Wc/Xyhbw23XAnvzQLDW3cU+ramCbvff63QlxKKd2XXobh1/rGar8dtBePzp98VhgEAIHH8T5+++Uz49aYrwwvPhbe2GEDaDQ3F7MrWQmuLrc5fn7nwbnjtlkLfKI+E1752GF/fAABwfBz/UFyvJm8nFNenlX7tSjhf6NsuofioHatQPLOdr02hGAAAcvsZiuNp01HXqdFbC8XzVeLO06Yf+lV9KvPCK2+Hj6/0/yp86iOvhbuTunu//Z15/91vh3uT9tzBKdIHp03P/SHceXfsW/bxb/8hqZvJgvanvt+0LR17ab7lYy7NNcTitOnGS0/du1xTn578cjgfT1OuHn/kiXC5fnw1XLqnqptvX344tlePm6A5e5zPGdujqjbtry32l0hDa97fetr3wTFFB/tb7UuVX4ukputU862c1i8UAwBAbs9XituuF85vrJVZ5/rinlNU5+EzDZMxuFYhuGlLguci4DZty9cEj1gprseXQ3EdeNP9x2CbhPV5TdrW7Hsp0O9i5XoeEFuDYB1Iq5qr4aVXqzB8b7j0agyGMVzOQ3IVequaaq556K6CdDVfOqaZ/57L4aXZ2DQYz8fEwD3XvpJbmHOpL+57rjR3pW+lePl5VLr2W9lGoBWKAQAgd0xDcWJLK8X1DYhaT0+dh83Fim/UrPyOD8BbCMX5vqOsvg7F2Yr2POCvhumV57eR7lA8D61N+K2DYCEUNwFxvhI8D5BLYbKeazmkLuoX4bJ8HOuF4oJCCK90h+L5Ma2saLc8n+jZTU+hrlebt3FtMgAAnBxCcaMzcNQBtLRaOw+3izDZEmBXg+kWQnHdngbbaB5wY1geFoqz07C3smLcFYqXT5Oe16yG4jg2DZhpKJ4/nvWVxEBah9YxK7k9oTiudGdGheImSJfmKa06R2uH4ubU682vSQYAgJNHKG50rhRvIxRve6V4y6F4oZ63CcfZuHEOKxS3r6zWthmKm0C89JzWWSluGdOnDsXnniv2DXIo/24MAACOF6E46rymeMzp03mAzYJz0rY/p08XtO13sN2H4uW5WhQDaLOvkaG4GMLXCcVtr00n1xQDAMAuCMUL3f+juA6XSyGxCbZp4CwEyfm41QDa1r6iNZw2+1+aYx7e07C9bihur5kHumrFtHul8xBCcRzTuVqcB+A4Jm0r1LeuFCchvAnEpddifpztgX3e3/caJtx9GgAAdmIvQ/HFu74xC7qzMLyiEH63Foqb01MvXAvPFvoqS9fdZuGzVgfYpL/SegpyDLUHDlZ9m3Bbku1zHq4P5KvZg0Jxs+qcztMamjuCYKUOsE3/stLq7qahuJKE3MTysc3nS/vqeZJQHEPqquVgu/z8qr753ENei/wPBMV9lsL4TP21ufE1wUIxAADk9nyl+LB1rxb32viUYyjo+XdhwwnFAACQE4pzdQBZMzgIxWxbc9r0toJsveLccTYEAABMjVBcUgfjNYKDUMyWVSF2uyu789Xi6g8/wjEAAAjFAAAATJhQDAAAwGQJxQAAAEyWUAwAAMBk7V0o/vTtfxk+8ud/UewDAACAbRKKAQAAmCyhGAAAgMkSigEAAJisSYXiW3/waPjhL74VfnjlVLG/3W3h69fWGHfnO+FDL/0x3Hhn1v7l34UPfu+d8GdpGwAAAIdOKB5knVD8ZvjwSyF86NHvFfq+F278XhCMAQAAjpjTpwcZG4qb0Pvkm4W+qCs0AwAAcBiE4kHGheI/e/SP4YMv/S78aaFvSXUaden0agAAAA7FCQ/Fp8LF6nTpzDM/uC2ra0JvUnPxydX+atziFOza/eHM0jyV+SrxsBXgvhXls+HpN66H69d/Ep4+U+oHAABgExNbKZ6H5OVQ3ATndBX4yfvr0HtQl4TmRV3L6nF9c60QPvzlpK1Dvarcem2xUAwAALBLkw/F85Xf1RXfM1dmgffaF8Ot9XZLAK7Dcza2PiV6wKnTkVOoAQAAjszkQ3EdfkvXCi8F3pZQfP8XwzO/eDR8/f6DtsHXE0dCMQAAwJERijcJxXXNciheb6V4RD0AAABb4/TpDU6fLo7d6jXFAAAA7JIbbdWnQGeBt7nR1sEdqAuhuBm3NFdtyP8ojobeffp6+NGFUj8AAACbEIqT9oN/tZSdEj1Trxwv1eT/tunA/LriAdcJD7ie+LEX56H4+ouPF/sBAABY3yRDcVuY3Z4hq8Vvhg+/NOD/GZ/5bnhDKAYAANiJEx2Kq2t+0wDcdv3wTjTXFpeDcROaB1xLPF8p9n+KAQAAduGErxQ31wIvTnk+pEAc1cG4cHp0ddp0TyD+wtM/mZ82ff3H4bFCPwAAAJub2OnTAAAAcEAoBgAAYLKEYgAAACZLKAYAAGCy9i4UAwAAwGERigEAAJgsoRgAAIDJEooBAACYrP0MxbdcCe9d+E14f+a904+Ua7bo4l3fCL9/+PGFX991a7HuqDx7bv5avH/hWni20A8AAMB69nuluAnHb91R6NuJz4ef71koPn/6XWEYAABgR/b+9Ol6lfTcc8W+7du3UPxIeO1rh7NaDgAAMEVC8RKhGAAAYEomEYpfOHtwvXDl57eX63pD8e1fXZqnONfNZ8Kv05r7zoSLaf8oQjEAAMAunfBQfGt4875ZMD37+YO2JrSWg3FHKO4c16hD8zfCmzcftNWBfO1gLBQDAADs0t6H4pvuuBbev/BueO2WQl+fOqR+NbyQtddBNQ3KCx2huBB4l80D+MrYOkx3jetQ32hszecOAABAr/0PxbXnwltr/Eui/F8tLSmu3nadPt2sOjfjV1eM52OX9pHoXGHOxX9J9bUr4XypHwAAgK3Y+1C8yb8kmofi1ZXidj3XFDfSa5QPaoeNHeXQ/yUVAADAtJzsa4p7T3nOjQu2y9cLF65f3phrigEAAHZpGjfaGrxaPCYUF0Jwc3fq7a0WC8UAAAC7dMJDcWX5WuAovcY3/5dNBw7CdPH65NKqcBOMl7j7NAAAwF6aQCg+zoRiAACAXdrzUDy/6/SUQ2H9R4E1bzQGAABAt/0MxfFfElUmu0oczVeL69dCOAYAANiqvT99GgAAAHZFKAYAAGCyhGIAAAAmSygGAABgsvYuFH/69r8MH/nzvyj2AQAAwDYJxUfk/GOXiu1DbTr+OOl7rmn/SXpd2p7LPjzHXR9D3/zbfG1KY8bM01U79niq+j6lcakhNWOU5tv2PgAAjpJQfIjim9pUqW6IoWPzunTfbdL6VKm2TWl8pVSbK43J21Jpf19tSdzvEKXxUam+pDQ2SvuHPD5s1b7j/tPHXWJdl9KYvC3V1t83rmSd/ef6jmfofH11Q+bJa6rtLmltSalmyDgAgONCKN6B9A1nqlTbpm98vt0lre2bp2veUt/Qtk30zZf2r7Pvoc9hnblTQ8fHuvxj3n+Yqn227berr2RIbVfNun1tqjFDjBmX1pQet+mrWWeOrjFD5xuiNBYA4DiYYCi+K5yZvYE789lSXzSkZpxtv2kcM19am4/r206V+oa2par+Nm31pfZK3pfOVZLWpmPWbRtqnbFdx5sr1W0qnz/dzpXqS4b2tdXF+XNd/en4XFt/37ih0nmGzFnV9CmNS+U1XWP65mvrH3IcAADHxeRC8SdOfzOcf+Bs+EShLxpSM9a23kRW87Qp1ediXT42bU/rU6W+oW2ptv60ve1xrlTXVV9Sqh/aFrXtu9pO29rqYluX0rh8e5/1HXu63fa8Su2xrauvzZj9rGPsPOsebyqv6Rqz7v6GHAcAwHExsVB8e/jcA5fCV07fXuiLhtR0q94wDlUaP0Q+duhcfeO65qn6hiqNj9r60/a2x6mqvVTXVt8mzjNEaXwl7Rv7OBf78o/549L2rlT76VMaF7X1p+1tj1Ol9tjW1VdS9aX9cbskHZdqqy21p/J5oq6+Sl9/Ja9Zd39VX9oft0vScQAAx820QvFnH5y9gXswfKbUFw2pWcOYN475G85UWpOPSbdj29hx+Xaq1De0LVX1t0lrSo9T6Zgh9W1K9UPborwvbucf8/5c2l56PHSebevbT1d/1dcn1qVj4uNUqT2do9RXaq/k49adY8h21xypqq5PaVwqr+ka09eX9rfVds0BAHAcTCoUf+bc7E3eubuKfdGQmnWs88axa0zeN7S2etwnHZsq9Q1tGyudo2sfbX25vCZV6h/aFrX1jWnP29q20/bSPLtQ7adPaVxJXhu30/a2+UrtXeP65snHtok1ubyvbbtrjm0rHUOXtDYdk36Mj9vEGgCA42g6ofjms+ErszdvnTfPGlKzpnXeOHaNyfuG1vYdx5h9jmmLqr4+sS4dEx/39bW1dRk6R9e8eV/czj/m/W26+tvmPCpjj6OtPm3vqinJa0qPS219tV3tlbyvbbtvjnW1zde1nSr1pW1tj1Nd8wMAHAeTCcWHcYOt6s3hutrmG9reVltJ++Lj6mMur83l9V1K4yt5X9t22j5mvra2LlX9UKXxlbRv7OO0rU1el348DOmx5Er1XdrGpO1DatrahswT5bVt0jGpvtq4nbcPtc64tmMo6Zs/7a8et0nHAAAcNxMJxfN/sdR986whNesb+8Yxrc/Hlubqmr80V9ucQ+cZ2xblfW3bafuY+draugydY8hx5DVt20PmattuaztMY/df1bdJa0qPU6X2ttpKV19l3X3mSjVD5s7ldUPHpcbM0Td/2t9W2zcHAMC+m0YoPsIbbEVj3zjm9X1vTrvmj33Vx/RxW03anir1DW2Lqr4+sS4dEx/nSn1xnlxeF5X6hrZFeV/cbhszpn1oW66qGVLXJ84zRGl8rq0ubR9S09UWdfVV8n22ScekYl/+setxl7yu2i5Ja3J5f1f9mLmqx23SMQAAx80kQvFR3mArGvPGMX/DGcW+vL6rvVIaH9tSaX9JqW9oW5T39W23tUVj60uGzrHN42jrq9rTvq552+aI8rm2aZN5h4xtqym1d83Xt6+0f8w+8/bS477+kryvq7bNmDn65k/722r75gAA2HcnPxTXN8/6ZvjczYW+aEjNhsa+cczr4/Y6b0zTvq66ytj5S+1d+8j7+rbb2qKx9bm22m0cR5e++qq/rSa2D9nnkJou8TjGKM2TGjKm1BbbS0q1la6+StrfVts3RyWv6dru28+Q2i75mGq7S1qbS/vbavvmAADYdyc+FB/GDba6xDeM23jjmM+xztxttX1zDWnvm6NS9fVJa9OPJaW+rvpcW23aHh93zVv1jVWap5L253V926muvk2NmbuqzZXqKrGvrabUnrf1zZGqasYojU8/5u15W1TqK22Xavu0zVXSN3/VP0ZpDgCAfXfCQ/HR32Crso03i21zjJm7r/Yo9xHl/evM1zcmGlpXGVM7RNtxt7WnH3Nt7bvSdpxdxtRv4/kMnWMX+xo7Z1t91d6nbVypfR3bnAsAYF+d7FC8BzfYAgAAYH9N4kZbAAAAUCIUAwAAMFlCMQAAAJMlFAMAADBZQjEAAACTJRQDAAAwWUIxAAAAkyUUAwAAMFlCMQAAAJMlFH/k3nDp1bfD61ejq+HSPaW6Veefn9W/ejmcKvRtZv1jOplOhYu/+Fb44cKj4ev35zW3ha9fS2u+FS4+mdccc3e+Ez700h/DjXdm7V/+Xfjg994Jf5a2AQAAgwjFqYdfXjMUNyG2LSCPnHfJJmNPhCbsXjlV6Dtw5sqs5toXw62Fvu3qO57VcL6dkP5m+PBLIXzo0e8V+r4XbvxeEIwBAGANQnFq7VD8yXDqqautYzdaUZ56KL7/i+GZ4spwar6SvFnoHGpgKO4J8eM0offJNwt9UVdoBgAA2gjFqQ1C8U33XA4vXX07vPTUvVndE+FysX2gqYfiJ+8P5dOlE3VwPrmh+M8e/WP44Eu/C39a6FtSnUZdOr0aAABoNYFQnF+f+3a4/HCpbqYvgNb9y3MdrAC3nEJdnHMelNN5xh9Ts7/nn1hqL65KN4F99ZiPUBNkF6cXt536vK1QXM+T7K8ltNanYS/qkv3mx5s52PeQUDyveeYHt4Vbf/BoMs/94cxK7XyVeNgKcN+K8tnw9BvXw/XrPwlPnyn1AwDA9JzwUNyEzzQ4NsG2uHLbGkDLp0fnAXRIzTzMvhzOL7a7T73eOBQXxheD82EqBN3la4LzG2tl6sDZhM9SfyUJ2fPgmQbOUnCN82V1V/KwXho7pr8S95XWNc85H1ffXCuED385aetQryq3XlssFAMAQO5Eh+J52FwOoJXWUNgaQMunQK/Ms3IK9cBTp5txxdXijULxvGZl//X+WkJ4m9u/Gn7/8ONl950JF0tjiuaBsFolXWpvu3Z445XiluuN63kPAvA8OPfspzYwFFcBd0lfKG+5WVh9SvSAU6cjp1ADAMAoJzoU1wExC421OmiuhuXWANoSIlfDdRNUY1vbfHX7rC6z/VC8epp2qvWU7Z3qXgW+WAyvG4TiztOeD+YdfvfqgaG4tb8yPBQPvp44EooBAGAUoXilfZNQvLw6XeqPgXhp9XZnK8UDV6oP1TwUr6wUt9lSKC72JfY1FK+3UjyiHgAAJs7p06nOUJyH1mxVeKW2HEiLx7SzUFyuWcuWT5/uDo2JLZ0+3RfCV687bnPIoXir1xQDAAC5k32jrSZsLoXCOmSuGUDzsFnNvRKuk77SXPk+4jGOPqbVcF9v58fUPN+9Wi2ug+7A1eKNQ3EMvH2rxc1p3UuhdBZeV2601YTX1gC95VA86H8UR0PvPn09/OhCqR8AAKbnZIfiWn5dbR4wO667XVphXa6rAmy96rsSiuNq8Kyu0FdZhNdadTzzuQ9C8XrHVAXf4jE1wXhJy7EdmiYYLymdvryFUFxZ/tdHjZXg2oTVRU3bfvO6dN/bDsXxuuIB1wkPuJ74sRfnofj6i48X+wEAYGomEIrhuBuyWvxm+PBLA/6f8ZnvhjeEYgAAWBCK4Thori0uB+MmNA+4lni+Uuz/FAMAQCQUw3FRB+PC6dHVadM9gfgLT/9kftr09R+Hxwr9AAAwVUIxAAAAkyUUAwAAMFlCMQAAAJO1d6EYAAAADotQDAAAwGQJxQAAAEyWUAwAAMBk7WcovuVKeO/Cb8L7M++dfqRcAwAAABva75XiJhy/dUehDwAAADa096dPP3vuN+H9c88V+wAAAGATQjEAAACTJRQDAAAwWUIxAAAAk7X3ofimO66F9y+8G167pdAHAAAAG9j/UFx7LrxV/4uma+HZYj8AAACMt/eh+Pzpd4VhAAAAdsI1xQAAAEyWUAwAAMBkCcUAAABMllAMAADAZO15KJ7fdfq9048U+gAAAGAz+xmKb7kS3qv/BZNVYgAAAHZn70+fBgAAgF0RigEAAJgsoRgAAIDJEooBAACYLKEYAACAyRKKAQAAmCyhGAAAgMkSigEAAJisrYbi16/dEMJvK38SXi/0AwAAwD7ZyUpxHY7fuTE8U+gDAACAfbGb06cfujH8528/EH75UKEPAAAA9oRQDAAAwGQJxQAAAEyWUAwAAMBk7SYUf+Rj4Zfv3BDCtZsKfQAAALAfdhSK55555QP1v2j6z1c+VuwHAACAo7SjUHxT+DdhGAAAgD3nmmIAAAAmSygGAABgsoRiAAAAJksoBgAAYLJ2Eornd53+k/B6oQ8AAAD2xVZD8evXbqj/BVOwSgwAAMAxsJvTpwEAAOAYEIoBAACYLKEYAACAyRKKAQAAmCyhGAAAgMkSigEAAJgsoRgAAIDJEooBAACYLKEYAACAyRKKAQAAmCyhGAAAgMkSigEAAJgsoRgAAIDJEooBAACYLKEYAACAyRKKAQAAmCyhGAAAgMkSigEAAJgsoRgAAIDJEooBAACYLKEYAACAyRKKAQAAmCyhGAAAgMkSigEAAJgsoRgAAIDJEooBAACYLKEYAACAyRKKAThU3/nOdwYpjQUA2DahGIBDVQXeP/3ExzoJxQDAYRGKAThUQjEAsE+EYgAOlVAMAOyTHYXiB8On/+nn4Uv/48Cdj5Tq9snBMe//sdLm9Ws3hHDtpmLf9nwmvPz/PBh+9V//z0IfHBN3XAvvX7gWns3anz33m/De6UeW2lZ8909CeOfG8Eypb4BiKL78v4Xw29n378y/XRaKAYDDs5NQ/MkfzsLlP70QPlroO3xN2P3h3xX6UvsXis9c+Vb44bUvhlsLfax65pUPzN5Q/0l4vdC3Xf9n+O8/ejD8z298ptAHIzx5f/jhL2bf59EG3++jfl7cciW8d+E34a072vu6g/HHwi/fmQXYNYPxSih+9H8P/9mE4dgmFAMAh2UHofjvwp17tdo6NBTvH6F4hGrl6rcfCL98qNC3bXf8Vfifs1D83+8t9MFAt/7g0VkQfjR8/f6k/f4vhmeunFqqG2r4z4vnwlt9obdeRX43vHZLoW/hpvBvsyD7n698rNDXLQ/FT7/6v8wC9v8enk7ahGIA4LBsPxT/9Qvhr4TirRCKh1r/zfk6HvjG/xV+9aMvhf9W6INhbgtfvzb7/l4zAJcM/XlRnR79/teuhPOFvtSgujX/GCUUAwD75JBDcTmg5qdb19tVzSNXkuuS/zl8+q8Pxiws1fw8/NXfPzhvb44j7UsdHN/BadNzLfuZ+ejf/3NSN1N6HkOPu9WpcDE9nTLzzA9uW9TWK031m+DlMWlNLT9F8xf3hzOL/vY35/Wb7KXa2Hbg4pPLY9Y/ptW5Fse2qMlW1aL6jXn7adP/7b8+GH71//xVeGCpfX4KdH5dcF1btadKNSvzHSiG5np1+f8KL2enq+b72+kp2c0Kd9/+hhzT/DkmdUuv0fya63rcvV9K6laf/6G5/avh9w9/Nbzwkc+Hnz/8+Ozx3K/vujWrvTW8ed9B/+8f/kZ48+bYNx/789vT+mg+bnW+Ns3X9qA/enV9Hwz/eTE3XyUunjad6zrFeqE5jXrkdfxCMQCwT7YUivNgmVkE3hGhuDQuu045htQ0gH/0769kIbS8z6I6zJZD7PyYroRPLtrmp4mvc9xD9a38zE+/nL/5XQTKOmwmb5pXTsdcfTNePI2zebN98Ka6EJ6rudN9zww+pmzcqnz/M/k8jfrmWh3XNraH1DTwNSF5KeyWrh3uv8lWKTSvHkMhlO/ytOwmnHbPPeSYmuff+TrNt//7f632GZ/zEd+crA7FyyH34l3fKIbepWBbj4s1hf6FrsDcIvnDUPv3wvDvg0ErxYNOi44eCa99rf+mW/W1/COvLRaKAYB9sr8rxcUAnITSZj+LleFWWwjFbc8pqx903CMMC8XZm+MBgXM+Ll0BHvDGu95eXjWu1MeYBOVBx9Typj5Vz7Py3OfBfHn1a75S1XnqdB0Is1XKrK24+lsMqaWgnEpWSZP2fP56OwuI8+C8m9XU4h8GMkOOqd7OX6c8cC9WpJf3V5q/2/Kq7rI0zA6wFG4bN58Jv57NFYNsHZLvOxMuxv5augK8vBq8VF/PNfKYatlKb3bGxvDvg2Gh+PzpdwedOh3t6hTq5VD8X8L/rL6HX/0vSZtQDAAcnuMbijtWdZdtIRTX7aVgu3xTsaMJxatBNVfPk77xrhVOi072VQ676fhEMm7YMS2fDloK8OVjbiwFhwHXExfC7XJAawm6pTDdt5pb7M+DcrMiu6I7tG5kEVRn8lBbG3JMzWrvSk35NVp+Pfv+mLBjA0LxC2dL4btx9vMHNfXjeJp1M2c9V3V6djL/SIvvsfz7MP/6j7IAnX8Plwy9njjabSieh+Hw2/8l/M9HD8KwUAwAHDahOHUCQ/H8TfXyqmxxXL2aG+vmq1dpWB0WdofXRemb/nTla8gb/LkBK8V5KK1DWxLk8u1kTB4ge1dcW1elk6BcqjksaThOV22HHFMztvUPAo3iazRw7M4MDcUrK8XLDlaHPx9+Pvv4wmy7Xjmu598sFNeaU6rj997w74NhtWutFJ97rti30HNNf0lppTi89adJm1AMAByeY3/6dHk/qS2E4r0+fborgBauA54pj0tOyazemOf7HXDKc2VsKI7y5zpmnr5riivpynD1eGnFshSKmyBbPJ24uNKa9BdXV5P5jzIUR/UxJMe5xVBcv9bFU6zHPucjOH26L9hW81ShePaxDsPVHE047gvUg2SheMz3waAA7ZpiAIAVhxyKWwLwrH50KJ6Zj10Osas32op1A4Jp6+pzE6yX5mhutJWE7aHHPdT8DXF7EB3yhrkcNmdthXF136z267Mx+fWKB6c8d+9vzJv4A6Xw3lxr2fcmvzLg9M0YZv9b9TG/rrUJe4ug3ATG/164BnYl9FZjkwC43N+sUP/XL2WhuzlVOT+OFqeeuhpev/p2eP35J4r961gNrkOOqbx6XqwZ+ceEnRsQihchvCvc1mO+MQvCca7mOuPZdjzFepjZ1/fK13bzfbDUPvz7oO/nxdyA/1Ecufs0ADARhx6KF2GyUd0oqw6Oa4Tig/bl+dL+uRhqDxwc3/LxLCmtaCf9+b62HYordaitQ+xcGlaHBdDsRj7Vm+t6Nao0Lta2zRmD8bKxp1nPa7J5stXsuezYa6U3/fPrijvfmNdBtz3QzcPsrL9Whdom0K5cA5tfe5uuCq/21+PzVdlKE8QP5qm0rKQ+/PI8FF+9Gi7dU+jvUQfgfF+l8DvomPLnP3ewejzvX15NLgflQzUoFFdKq9PpuNXgPF9hbrsrdYfmBnRLX98bfR90/7yI6lOiL1wLz2btuV1dT1wRigGAfbL9UAxHYc0358fDveHSq1UofnnwtaDQbsBq8aDTrAfc5K6FUAwA7BOhmBOjvrb4JAbjZqX4pafuLffDWHXobQnGzWnT3adYN6dNj7yWOMpD8Z9e/t9m37s3hH+7LBQDAIdPKOZEqYPxyOsb99cT4XJ92vTb4fLDpX7YQB2MV0+jrk6b7r3muDozY81AXFkJxTP1anF1GUQTjoViAOCwCMUAHKpSKM4JxQDAYRGKAThUQjEAsE+EYgAOlVAMAOwToRiAQ1UF3iFKYwEAtk0oBgAAYLKE4sz5xy4V20+yo3jObftc51g2nesonj8AALAfhOLMtgJSNU+f0rioVN+nNE+lq68ypL9PaVyXtjFD50rrhjzuktdV213SWgAA4HgTijPbCj35PH3bfXYxvk1al8r74nY6NpXWptbty8Xa/GPe32fMuKFzAgAAx8OxCcWfOP3NcP6Bs+EThb6Fm8+Grzz2zfC5mwt9A7WFnqo9V6qL8v6+7T7bHp8aOlfXMXT15e0lXf3p+JK2mnyerrqu7VRXHwAAcPwck1B8VzgzCyNnPlvqO/CZc7Pgc+6uYl+XGJhK0pp8TLqdS+doUxqXKo1pUxo/1NDx+T7Tcenj0nZXe2zr6svbupTG5duxLdfWnsrnAQAAjq/jEYo/++AsjDwYPlPqWxgWnLvkgSfd7uor6avvG19Ja7rGD5krVdX3aRvXtt3V19ce27r6SvJxaW0+bsg8Q7cBAICT4xiE4tvD5x64FL5y+vZC34FBp1f36ApDY4NSX33f+Epa0zW+ba6qPVWqKemar227q6+vvWobU5+3lx7n49rmqfTVdo0FAACOt/0PxYOuEx4WnPt0haGxQanq71MalyqNaVManyrVpG3xcddcVV8u7ctr0+2u9rHz9NXE7bS9NE+U11cf+6TjAQCA42vvQ3F9nXDfCnB9evX2b7CVtuX9fcGor75vfMk6Y6K2sbF9yNx5Tdt211xVX0leU3pc0tUf+4bMkdbk9X3jAQCA42vPQ/Fub7CVGxOMxgalderHKs0T5f192yVD5+iaq9TXNW9bfZu8Lv2Y6xvXtg0AAJwcex2K6+uE+26wVZ9evdkNtlIxAK0TlKq2deVz5Uo1Q8ZFfePHHkP1OJX2x48lpb6x9VHeN3buqG2e6mNJWgsAABxvexyKD+8GW7lS8MnbhoajWJd/HKM0Zuw8aX31uE8+ttQfP+a1eVtq7Ji2vqHzdM0d5TVxe935AACA42N/Q/Eh3mAr1RaI+rZL0pq2x32q2ihtS2uGiGNKY7v6oq5xfW2psWPa+qr2tK9r3rY5ory/a1zfXAAAwPGyt6F40HXCg/5/8XBt4Sg+zqW1qVJ/abtrjpI4Zuy4Stu4vG3M3G1ju+ao+kpKtZWuvkrX+Ng+ZI6+x11tAADA8bWnofhwb7BV6QtAeX9bfak99rW1t/Wl8rq4PWRspVTXNnadOfMxY+ZuG9s2R1T1t9X2badtaV/+uCT2AwAAx99ehuLDvsHWYQSddfYxNIiNnbtvzqHzxbq2+qHzlPQdX6k/trWN7RqTPy5tt7UBAADH1x6G4qO7wRYAAADTsr832gIAAIAdE4oBAACYLKEYAACAyRKKAQAAmCyhGAAAgMkSigEAAJgsoRiYlBfOPh5+f/bzxb5oSA1s08W7vhF+f9+ZcLHQt3DzmfDrh78R3ry50AcArE0oBiZFKGYfCcUAcHT2OxTf/tXw+4dnb0773ih85PPh51XdwoZvGu64Ft6/cC08W+o7zuLrGfW+rjvy8Mvh9atvH3j+iXLdUajfdD4efn3XreX+Q3VX+OW/XAz//i8PhBdn2y/+Y/X4Yvjl35ZqO9z3pfCvY8c1Y+K+izWHIR7Hz74ULn3ktvCzn1XHdCH87L5C7UDHKxQ/ES6n3ytXXw7ni3Vsy0f//p/Dl/7Hzxf+6u8fXK175MpSzZd++HerNSMJxR3u/2J45hffChefLPQdiu+FG78Xwoce/V6hb3OnnrqafI+/HV566t5i3dbc+U740Eu/C39a6lt4JLz2td+Et+4o9QGcPCcgFN8a3rxvi29gb7kS3rvQ8ougCUw/v73Qt+/28tjvDZdenb0JEIpbNCGwDoSfDJf+4cKJC8V10G+eX6l/8YeBf7yr3p7/YWBKofjA/I2zUHx4/i7c2RaKFx4Mn/4noXjnjjgU/+mTIXzwe++EPyv0bdf8j2A7D8Uz9XPqC8b1AoFgDEzD8T99eqtvEp4Lb81+Abx3+pFC38wxDsWD3nAdOqG4WykUrxEI1wnFh2S9ULxZUBeKGUYo3htHGIr/7NE/9ofHrTm8UBxXvz/45JuFvgPnT797Ms+cA8gc/1BcryZv503Cs+d+E97/2pX2N53HOBTXb/KF4n57HIpv+tsHJh+K538YEIpL/WybULw3jioU16cZh/DhLxf6duIwQ/HMoOc3P436/XPPFfoATo79DMX5ta9db063Fornq8Sl04TqNyvp8Sz5anihrmuuay4c61IgrY+3GrN8HXQphNXjkppSGF85tpbXatNQfP75WXh99XI4lbXP36hfDZfuydvm10bVCuPmOkJxfd3x8rw33XM5vDSb7/LDSdtMfWzJ/vL+ceafl/0IxUPFa4+jLDjXobhqi9fkNpqgGc1XYTOlwLo4tbqjplKH+IO6f/2H25q+/HiXHdTtxs5Dcelrt9J8/S694a1r06/f9tDbGoqL3xctb67z/e3TH6Q2UV/jeyV8sgmyxeuB//qF8FeztjsfScZ1Bt+TGopfC3f/9D/C36S+/9pK3ae+v1xz90PL/bWHfrVUk89Tz1G1LdX9Idx5dzLHEHUofjR8/f7bwtevfSv8cBaQK8/8YPVnxa0/eHTRX7v2xXBrVnPTk/cv18yUAne9Stxy2vTw34nN77nk+6499LaH4tL+yj8T8v0VfhYlBp0aXp9G/W547ZZCH8AJsecrxW3XC+c31sqs82Z2yA/9npXieUCNITmaH+tiTBL487aDeQvPu7DveWhO99e8LksBfL6vkrbnUdS8mV5+410ItbO65V/o81/y5Tffm4biwviW4DzcMQvFTUBNg+TKtcdJiM3bulaPi6u4hdXqUl3p+udL//DAyip3/0rx9u08FLd8za+8ga2+Vpdqmq/nlj8ibRqKV8d3fP8dN4sbX/1z+PRfz9vmN8w62BaKK98Jd76yGl6XFWrufjvcOwu0aTD++Lf/MAu4vwqfijWFcYtg/crb4eNpzWJ7oGaleCm8NsF2KczO2paD8qlwsRp35dRB2+BV557Ti+vfUf2/E88/n/0eK46LNg3FhfH1/jqC8Zd/N+D08PZFA4CT4piG4sSWVorr62a6Tp2u9ITi2J8GqpWgvBKAK9nzrGvycJ29UW87lpbXox67wUrxJgG07S/qnW/KS7/I8/3VNashod7f2m/0sz9iJFZW5VNLn7tCf2Wj17+sHCqbFeG4EtwSgOux2WpxanXu+bwrK7n1/ElQLgT1NiczFK8fQFuDb1ffoFA83175Xm35Huqyve+Drj9ujvyZXofiJABX8hAsFM/MV4nv/fZ3Cn2NelU3Dbtzi1Xfens+z8rqcTa2HpMF4NUwPUAxyM4Db2m1OHXmyiwUp6vFdZiuVp2X61a9GT7ceWrxur8T24PvpqG43l75XTs/zvL+ZpxCDVATihvP9l1PXOkLxTPL4XN+/EurjgNCa+ebzjh3Pc9qcG4LdZuH4nG/gA9O3WrsIBTPjyfbT1Tc3xDtoXj/tITUmXqlNobNllC8VFOwGli7T3tezD/i2ueTGopX3hzX26urNfUb3fxrdxehuKlZ3VelYxXpuBCKB5uH0mYFt7BivNSfiwG3WTku1iSnRx9+KF4+vXph6RTq5ZrlORMDwuKg34kt33u7CMXlnyeNtj/ICcUANaG4sZWV4kp6PHV9Fly7QnHzPOehuBR4E0cQipdXm0p/fY6BePmNe+mX+VL9RqG4HCDWN51Q3BdI20Jx7wqwUFyrv+6br+3Sm+X5G9jlr/Gur+nWvhGheLnmBBGKx0uv802C66DQWjiduuRwQ3EMu/eHM4uawkpx3teE49UV576V4krP78QYiJd+x7UH362E4uLv2g51KP5juPHOQt/CPBS3/mcOgBNAKI62cE3x3MHqcPUmZ+Xa1OLxZivKQ55T27F0he6NQ3HyRr/+ZZ+/QS//Qm//Rb1ZKC7W7FDnCn78Gq1f/0J/ZQuvf64cKoecPp3VFKzO3T+m1hLCS05yKD44NXn+db4cSMtf+zsLxZ1vxMfZ3veB06dThx6KozocJze/yreLBpyGPXO4obh8OnVXKI7KNQP/ZVHX78Ti76jdheKunx+tXFMMUBOKF3r+R3GteRPX82b54E1j4bgKx1u/AV9a9W2ed+dqcamm/fi2FYrjG/1L1S/flTC7+ka//kU++yU/OhTnb/Sb7Wqugzf/zfixbwK6xDfzmwaiw9Lc4TldvZ3f5Gr1Gt80pK7UFBQDa2F/JfXYbP7SjbaGHMe2HVoobt7gXn6q8GZ5Jn+TO39D2/713P6GtxyAq7nSN9dx/uXwfEIMCcUrIXe+vXKX6oVphOLVkNrcDKsnuM7Hda8WjwrFi5/xhT90jlkpTm6qtVgJ7gzFq+OiQf+juOt34sofrMrfmwfaQ3E5AOc/L5r5R6wWu/s0wNxehuL2lYhhIXNdz1bXFff9k/pmhfbgmNpPYS6+qS6toBTfCMXQu6x4WnTSv7IyndZtIxQvgmjLCm0SXmuzNwn1L+/im//c8pzLddUv/vkv/OU39fF4lq39xv+4heJKE3oPru/N/49v6Vrg/v/127qK2wTjJYW6eeA9qGkL0vMA3V+3LYcXig++hrveAC++bqvvkeYN9uJNbv79lFiasx4X+6rvo/n3Rb7f4vde6Y9Sx82gUDxT182D8Lx+HmrT4PvJH8b+XPUvn+Y18ztbl2qyYxjhUEJx8VrgUviNwXhZHoBjMF6S3316aChefA2vG4oP6uIp0VXQrf9FUxKKV/5lU1N3MG+iud72Q49+r9xf6/6dmH/PXX549Xtz8cfjFWngzX7XVd+3+c+LWvZzpdby+9r1xAALe75SfNiGrBYP0XFd6hZDPOxSHVb7TpU+hg4zFMNQR3b6NJ0GrRYfSwNPD6/ut9K3WABwAgjFufo0oU2Ccc8p30Ix+6habU4D8Ijrgo8boZh9JBTvqyY8nrBgXJ823fecmvdDriUGpkAoLql/EYz8y2h6WnXXm2mhmD2Vn+58EgNxRShmHwnF+2wejLtPoz5G6tOm+0L+/LRpgRiYCqEYAACAyRKKAQAAmCyhGAAAgMkSigEAAJisvQvFn779L8NH/vwvin0AAACwTUIxAAAAkyUUAwAAMFlCMQAAAJMlFAMAADBZQvEYt381/P7hb4Q3by70AQAAcOwIxWMIxQAAACeKUDyGUAwAAHCinPBQfGt4877Hw6/vurUJtI83VoPtC2dj39zPb2/vW3LfmXAxrUu2Kxfv+sas7qvhhUXb58PPZ+Oq+ed9ca6k5uYz4df1Mc6Pf1Fz9vOLeVNfePon4fr16+GNp88W+wEAACibRCjOQ+dyeG1q0sBZh9LlYFzrWSkeE4rrY2o7hmb/Vc3iGJpQv3JMM0IxAADAeqYRiruCah0209A6VwfcfGV2m6E4m3tpbDGUz8fVq96LNgAAADYxjVDcctpxZfkU5kwWcLcZijvDrVAMAABwKITildDaQSgGAAA4USYfivuC7hKhGAAA4EQRimPNkNXiJqy2BdM8AM+387m3H4rjjbauv/j4Sh8AAADthOJaDMbLlkNpo14tTuqWVoazear91vU7Xim+8ON5KL7+4/BY3gcAAECrEx6Kp+JsePoNoRgAAGAsofgkaFaK/Z9iAACAcYTi4+zMd8Mb9WnT18OPLhT6AQAA6CQUAwAAMFlCMQAAAJMlFAMAADBZQjEAAACTtXehGAAAAA6LUFxw/rFLndtDtY0bOt+6+92lwz6mfXwNxtqH55AfQ7q97vFt83kd5WvUte9tHddRPr82+3hM2zDmeW3jNeiao+pLlWqOwj4dS2Xo8WzjuNvmOKrXpGu/VV+qVAPAdgjFBfkvn/wXU96fSvuGPO6S11XbXdLaVN6Xj8ultbm+/i75fkpKY/K242YfnkN+DH3bQ2x7zJj5qtqxSvNU1u1L9dUN6e9TGtdmSH1fTbrvIUpzbFO+j67959tthtZ1iXPE48jl9btS2ndUqs3bUvn4LqXxlVJtVKrN20qG1nVpm2PI3FXNOkpzRbE/HxPl9QDshlBckP4iKv1S6vtFFfvzj3l/nzHj+uZs6x96LNHY+i5D5trm/o7KPjyH/Bj6tlNV31ileaK0Px+XS8eluvrG2tZ+8tpqu01al8r74nY6NpXW5jbtH2pb8wyR7qv0uPqYizUlpfqoVJ9L60pj+uaJ+8p19UX5XG1KtX3jh44ZcxzRJvPkddV2Lu3PdfX3jc2V6jeZY535qv6Srr4onwtg6o5NKP7E6W+G8w+cDZ8o9C3cfDZ85bFvhs/dXOjrkf6SiI9LvzjG/DJpq63ac211Xduprr7K0H306ZonV6qLuvrTvr55joOjfg6l/W/jmNadIx3XNcc6fescUz4m3R4zX1ft0HnGHEvfnLG/+jhEPn6IdcetK91f2+OhusYMmS+vKY0Zc1x9tWPmSq1zXEPHrHNMY+ep+kraakvtlXx81NWfjs+V+vvGpPLabc+XGzMXwBQdk1B8Vzgz+4F+5rOlvgOfOTf7RXburmLfEPGXRv7Lo609V/V3iTX5mHQ7tuXa2lOleUptQwwdk9bkY9LtVF9t17z7rjreoUrjd6G0r9iWHk+U17YZU9uma451+tY5pnxMuh0fVx/XmTsaOjbuJ5X25bXp9lhHPX5TpdcmP6a2Y+w69q6+KK2Jj6uPQ8Rxua6+Sl9/m9K4dfa1zjwlm8zTV9fV37Xfrr42Q8f0tcXH1cch4rhcV1+lrx9g6o5HKP7sg7Mf6A+Gz5T6FoYF5y7xl0bpl8eYXyj5POnYfJ6ueftqu8ZGQ+YfMk+U1rY9Lm2Pae+ad9+Vjndo2y5U+4n7io9TeX2b0tg2pfFtSuNTpTGVtr6uMal0H6nYl9fl7X3iuC5t49q2u/rWse74atym+96GeBz58cTHaVsqHTNEaY5UrCnVDhkfddUOnaeqKynV5W2pfHyX0vioVF8p1eVtJX11Xf1d++3qa1P1p2JbXpNul7SNbWtr01U7Zh6AqToGofj28LkHLoWvnL690Hdg0OnVA+W/QNLtvl8ubbXxcT6+a76+2q6xUVvNOnNV0rq2x6Xt2NYnH5s+Pg5Kxzu0bReq/exq/2PmiMcRpe1p3VBxXDpnl3x8Ku+P2/nY0jyxJq/t01abt6fbXX1pWyptT+va2oZYd9wm4vNJ9106jrQuyvvTj6W+vrZU2p/O3SbWlnT1942NtlVX6h/altr0eKr2Nm39+RxRqa9rzJi54nba3jU+KtVXH9vE2pKu/r6xAByHUDzoOuFhwXmo+Auk9ItozC+etu20fch86cc+6fhU2tdW1zU+apsnHzt2rnS7a965+ee76lso/UGkPsMgqSmdWl9/fSU1+TyLsxTmZyLEuravtapv3bZti/to29emx7Du+HRc9bhLOi7V1ldq75qnkvZXj6NSX3xcUuovje+ap+rLpX15bbqd66vvG99m3XHbEPfddwzr9A9ti6q+tD8+bhvT1Z4r9cfHaV+urz9aZ56hbaltHU+U1/Vtp0p9adsmc8Xt/GOXqiat6xvb1Z4r9cfHaR8AB/Y+FNfXCfetANfBZb0bbOVKv1RSQ3+pDJmjb66qP63J6/vGp2Jt3xzVdte8aV/b49J2SVtN17yVIV8T9ZkDS6fcN0E6DcaFr5uVuRfB+qBuPnf56610vEPbtimdv21fQ46hqllXab5K2pfWtn0saesrtXfNU8n70+22xyVt/bG9b3wlr2nb3uZcY607bhvivquPuVJdm1L/0La0Pe0vtaXa2qNSf2nOdedP9dWW+oe2Rbs4nrxu7D5K8prS41RsL9VWH9vGpfrmiG2pvnlL/aU5++YBmKo9D8WHc4OtKP8FUn3sk49vk9elH3N949q223TVDZ0jSuvbHpe2S9pquuYthtsVLV83i1Xfarvl7IL8zITSH1ya1eXS12XpOQ1t25W2fa17DHHctsb3fSwp9bXVd81TyfvT7epx3N5kntJ2ydA51pkrN2SOknXHbUO177j/9DjStlysSZXq2pTGR2l/fJyOzcXakrw/3e7qS9valGrztlQ+vktpfKVUG5Vq87ZU7M/r+salhuw33R5a3zemS2lsnLMk1pbk/el2Vx8Ac3sdildX+wo6AspQ1S+Irl8gqSG/TPKa0phN5qk+lqS1eV3eF6V9XXVRW30+tm2uqr1NWlN6vLBYvZ0prRjnp0QviQF3+XTo3OLraY1QPFQ+dle69jX2OPL6vu2SWJN+bJOOS5X62uq75qnk/el2fNw3R6VUU5qrS16fSvvjxy59NUPmKFl33Dak+257XNrOtdVvMk/bHNE6cw3d7lKq7Rs/dMyY44g2OZ7qY5S2p0ptbe1ttZWuvlRaN3RMVBrbNkff3KW5hm4DsNeheNh1wtu8wVY05pdLrtQ/tC3Xtu+x87XNEx/n2/FxSVttPq5vnkpbTde8S5bCb/LHk0F/KJmH4t7r0I9opXj+nLprhuqaJ+/rqy31x7ausal8nnx8/rEk7xtTm6v6o7id9sXHpe1UPq5PPrbUHz/mtXlbSVtd19xDrDOuGrPu/lLpHHHO0tz5dpe0dsy4Smls9bFNrC3p6u8b26U0dp1jWWeekk2OJ68bM9eY2kpXX5TXbLKP+Lj62CbWlnT1940FYJ9DcR08sjCyYlhwHiv/BZJuD/nF1Fcf24bMVdrumrOkbZ70caktN2Setu2SbdWshtQhgXfIadgzI0NxyaDnkKnGrDOupG+etL+tNrb39Q+R17bN3TXnJrWxLSr1lR6XtlOxr2vOIePXaSsZu6+h1hlbjdlkn1E6R9vj0nabdcdFsT4d1zZH39xVf1Tqy9uGWme+oWPWOa5NjqdtbC6viXVD2qKuviivWXcfaU1bfdc8lao/KvXlbQAs29tQPOg64Tqw9JxevYauXyBDf7m0/XKKfenHNml/2+OutqhrbNzuqmlrz8fk0tqSIWNKbSsKwXV+6n1PcK3H9YTnIwrFlXXH5YbME2vy2mo7bWt7HLfztpLSuHQ7trXNNWR8aug8fe2Vvr5Sf97WNUeubWzfHEPr1rHunJsey7afU2metrn72tP+MXNUbVHel+rr79K237wtausbO0+bdY+n+rjO/qI4PleqrXT1VUr9Q9ui2JfWtNW3zR3lfam+fgD2NhQf7g22cm2/fNr6clVNW33fdtqW9uWPS2J/rtQX27rGpdK60th8ntK8VVsur4li32pN6Vrg8hkFMRgvyb9emmC8ZOXu00ezUlxqX8fQueLzL/VFsb+rrmueIeP7pGN3tZ9qXJtSfaXU11bfNU8qrcvHDJ272h4iHVMSa4bU5tYZk8rHV9tDpePS8dtqz/tiW0lal9aX2lNDalKxfp19DhnTN3+ur75rnrSvejxUOkcc29cWt0u1qa7+qi9XqquU+tNxubQurS+1p4bUAEzdXobiw7rBVpt1f/lU/aWa2DZm3rQt7++rH2romG3trzJm3Lr72DdH/Ty2+ZpX/es+n3xcnKtPPqb0uKSvf5dKx54aemyxrq1+6Dzbctj727bq+PueQ6zJtdUOaetqH2KdsV1jtnGMY49p18ezLX373OYxlebaxWuxzWMGOKn2MBQf3Q22AAAAmJb9vdEWAAAA7JhQDAAAwGQJxQAAAEyWUAwAAMBkCcUAAABMllAMAADAZAnFAAAATJZQDAAAwGQJxQAAAEyWULwP7v9ieOYX3woXnyz0LZwKF2c1z/zgtkJf445r4f0L18Kzpb6N3Rsuvfp2eP1qdDVcuqdUt0XV8/nalXC+1AcAALAFQvE+2EYovuVKeO/Cb8JbdxT6tu3hlw8nFH/kkfDa134jGAMAADsjFO+DjUPxc+GtWSB+7/Qjhb4dOLRQXDnk5wYAAEyKULwPNgzFz5475NXUQw3FM/Vp4e+G124p9AEAAGxgf0PxQ78Kf/PT/1hy90N53XfCna+kNX8Id96d13wyfOr7aU02z91vh3vrcdlc339taY7Bnrw//HAWXg/cH86s1N0Wvn4trZnLQ/GZK6s1q6F4vpJaPG36nsvhpatvh8sP531PhMvVdcHPP7Hallgd12gNxc11x0vzfjKcf37W9urlcCppi8e22F/ev6Q5jfrcc4W+ytnw9BvXw/XrPwlPnyn1AwAAlO1nKK6DaikEp14Ld89q7v32dw7a6iCdBuMm6KYBN5+72V4Ky00g795/QbXie+VU0taE32tfDLcu2uYrvj9M61ZWitvHrYTizlXUJqTmgXMl1FZ1Ly+tNJ966mpL8J3ZNBQXxheDc+L86Xc7VsOFYgAAYD37GYpXwu2qj3/7D+FvXnk7fHypfR6CF0G5nudX4VNLNc3KcQzKxQBeCNxruvUHj4Z0tTjfruWhuF5tfjR8/f6kpiUUd4fFmTUCaK11lXlmo1A8r3npqXuXaub7awnhFadQAwAAO7Cnp08vn8pcWrHNT4le0gTeOjiX+isxUG85FJdOeU5DcN2/tJo8k4XiOjgvrRJXyqG4/3ri+WnRByF0vr0SduugOwuvme2H4tXTtFOtp2wLxQAAwA7s/Y220vCbhtS6fWWleNk8FK+uFC/ZYiieB+LlFd58ZXjbobh3pXimPhU6htI60C6fKh0D8dLq7c5WivOQPlAdinf1P5gBAICp2vtQHOUheFDgHXAa9vZCcXMdcBZ4i6E4D7zNzbmWQnHLKdbjriluJKcmVwE1D6Tz64ezoLzj06fzmj5Dwj8AAMBYxyQUF26Y1QTX7tXieBp2R3geGYrrgDcLi6VQlwfeebitVo+TgJsF4PRu1Yu2PAA321XNSige9H9843W8l8PlUpjNQ24TiFtPZ24NxXkATl6vpK24Mt1p6N2nr4cfXSj1AwAAlO1lKC5eC1z8F0lNMF6SrwwvX58cLULwqFDcrHK2hOLFnaWjKiDXoXd51fcgLDc1zbhFKK4kYXk+fr4SvRqKm+uK+04tboJo2wrtIrzWqsCbX3vccS3w0pzLdVXwXTp9O4rHk8progGr4Y+9OA/F1198vNgPAABQcmxOn6bLkNXi42rgczvz3fCGUAwAAIwkFJ8U9WrqSQvGzWnTA64lnq8U+z/FAADAOELxSXLS7tBcPZ+eQPyFp38yP236+o/DY4V+AACALkIxAAAAkyUUAwAAMFlCMQAAAJMlFAMAADBZQjEAAACTJRRnzj92qdieqmqG1PXZxhzr2OZ+N5mrbeyYObfxXLrmWGf+bTyvSql+G3NEY+baxrEAAMA+Eopnqjf3bUr9+fh1dc2V73OI0jwlbbVj5ojS/adKtZW0b8jjPnlttV2S1uRK9ZW+vjZt/X3jcqX6bcwRjZlrG8cCAAD7SChOtL3JHxsecqW6Sldfl7Hj0mMpiTX5uCHWGZfvM59j6JyluqFtUdqX13X15ar+sUrzpGJNWjtkXNRXu+lcY8YDAMC+Ojah+BOnvxnOP3A2fKLQt3Dz2fCVx74ZPndzoa9H+gY/f7O/SXjoGjtm3tS646Ixx5iq6sYozZFqq8nn6apbt62tPbaNmSc3Zn9t0trS4+pj33z5uCHS8alSXz42yusAAGCfHZNQfFc4M3uzfeazpb4Dnzk3e1N+7q5iX5/Sm/tKV1+lNE9pOx1Tko7pMqa2TTrHpvtuG99W26U0Lt8utbc97mrrs86YqG3smDnT2vxx3O6aL+8r1XaNr1T9JbEvr+9qBwCAfXU8QvFnH5y92X4wfKbUtzAsOA+Rv7Hv205tUjvEmDFV7bra5mtr6xqXS8ekH/PHpe3Yluvqq6Tjc6X6NqXxudK4qFSfy2vj47b2XKxLtdWV2kvy2m3MCQAA++AYhOLbw+ceuBS+cvr2Qt+BQadXD1S9sY/idt6fbqc2qe1T1ccxY8fm1hmf7jtXqitJ+0qPx8xVGVLfN0fJOmOitrFD56zq0tp0O2+Pj9vkNXGukrQulfe3PS5tAwDAvtv/UDzoOuFhwblNfNOfSvvS2ra2KJ0jKtVVuvpysTYdM2Z8apvjhraV2tu20/a2uSqlvqFtfdYZE7WNHTJnrKk+pvL+/HFJX/9Q8RhK8+Vt29onAAAclr0PxfV1wn0rwPXp1evdYCtK38zHx21v8Lve+Od9pXnbtttsY45KVdunNC5q68/naKtLddXEviE1Q9q7atdVmi8q1Uel+ijtH/s419U3Rpwn/5g/7moDAIB9tuehePc32MpVb+qHKI2t5H1d213zRH3ztbXlxu63ZN1xUTW+TV6Xfsyl46Kuvko6ftfa9jfmONLaIY9TVXtJV18lnyfWlz72tQEAwHGx16G4vk647wZb9enV27nBVqXvTf3Y/q7tdfbVNqZrrjH77LLOvkvy+tL4vjnHHEvfXH3Gjh9zbG3S2tLj6mPXfG19Y9rTtry/bbs0DwAA7LM9DsWHf4OtSt+b+rH9XfXr9G3aXm23SetKumryvrbaUvvQtiHGzlX1jbWNOaJ8rijta3vc1damrbZvjry/2s6V6gAAYN/tbyg+hBtsleRv9EtK46Ix9W1964wp2XZtrMk/5o/72oaOK/XlxszXp61u6Pht6ntOqa7+qi+K23lNV3s0tL+vDgAA9s3ehuJB1wkP+v/F42wrHLRtp9YJEOuMGWLM84qPS2NKdSVVX1t/bO/qbxs/tK3NpuMrbfXrHkffuLy/2o7S9tiXt3W1R3390dA6AADYF3saig//BlvRtsJBlzjHOnNtM3SMOY5SbWnc0LlK8w3ZbmuvtodIx5SkNfHxkHFRX+3QufK6artLWhvr87bY3qZUH3X1x76+OQAAYB/tZSg+ihtsRTEgdCmNG2vdeba1/2jIfF01VV+uVFdp649tbWO75ty1MfseWjukblfPuW3evv1t2g8AAPtqD0Px0dxgCwAAgOnZ3xttAQAAwI4JxQAAAEyWUAwAAMBkCcUAAABMllAMAADAZAnFGf9aZn90fS7Gfp6q+j6lcYdlV/sfM+9RvwaptmPZp2NkN/bxc3zY30fb+vrfx9cytcnxlcYe1fPt2++6x5WPGzPPNl6Lrjm2MT/TlX797MvXta9phOJM/KaoPqba2kpKffnYUg2r2l6n2D70deyrO+rPx672P+b16VIas0tt+xxzLOnx9ymNZzf6Xu8h/X1K4zYxdM78OHKlMSVttWPmqKT77lMav2ub7Lc09qieR6Vr30OOq60mto99bmPrS7rmGDJ/XlNt90nrU6XaNqXxHI22z0faPuZzlo9rk47JtfX3jeuT7j9Xqmf/CMWZ+MWbfhGXvqD7vsjz/r5tDlSvTZu0pvS4TV/NkDl2Je57F8dwXF+bap9jtM2xbhu7lb/m1XabtC6V98XtdGwqrR1ryPi+mqHH0FU35nmMqT0K8fjWPc5q3BClsbvQtq8xx5DWxuMvScek0r74OB1XEutLuvr7xkZpXT6mbztV6hvaxtHq+zwN/Zxt63PbNs+Q+auaktiX1pUes9+OTSj+xOlvhvMPnA2fKPQt3Hw2fOWxb4bP3VzoG2DMF3TfF3ne37d9dO4KZ2bHUh3P3IPhM8W6/ZK+fkNey4Pn1640btfy/Q49jvS4U6W6vC2Vj+9TmmPbuvYz5hhKtUPbVuXfJ+v/nNk39c/W6jmdu6vYvwtdr/mwz8dqXbrd1Ze3l5Tq8rZUPr5PaY5KqbbS1Z+OT3X1HbX82MYea1v9Pj/nIYY8r67nOLQu6qvJ+8fOX+ka07edKvUNbeNopZ+T6nGXdFyqq2+stn2O3Ude3zbX2Hk5OsckFM/fkJ75bKnvwGfOzb7AN3hjN+YLeuwXeV4/dvxhmL85Pn6heIi++qP4fLTtc91jieOqj23a6tP2MW270LWfMcewved1e/jcA7PX7xBD42E6ilDcZejnuD7mTNqX16bbXWJtnLOkrT5tH9MWddWPmSsd0ycfu2tt+xxzLNuYYxuq/Y1VmqdPOq5rjqF1UV9N3l+av/rYN0+Uj0ml/SWlvqFto3z2wdkcJ+ePnvsq/Tz1fc7G1A7RNl/1eMz8eW0cX5LWsb+ORyiuf0j1hbVhwblN/oWbfjHH9lLbEG2168y1S/sUitPXJn2NSu2pfJ6oq6/S179tuzie0pgh8+Q1bWPWOaaxqn2k+4nbXdLxqVJtm9L4hQ3PQKFb6fORaxvXtt3V16dUO2T80H12zdW1766+trZSf6qvf9u2cTxVTVoXt0vScbvWtr91jyN9HrlSfSXt66qLSjVxH7m8vq29S17Xt52q+oYqjR9MKD4U6edpzOds089vPr50HEP3MWSu/DH77RiE4vkqzVdO317oOzDo9OoO1Rftpl/EcY50rnXmOSr7FoqHbA99fau6PqVxu1Da19C2VNrfVts3R6WqGao0fpvy/eT77NtOlfqGti3xJmkrqtc5VaopaavN29Ptrr5c17i+9lRVM1RpfKXU1zWma65K2t82d962K0P333dMVX9a01bfN8+2rXscVX8qbS897jJ2TF9N3h+3q49pX2meWNNV17edKvUNbRvFz/utqD4PqVJ/6XGXfEyfdGw6rm277XGbbc7Fftj/UDxolWZYcG4Tv2C3+UWcz9UmHTNY2w/t+rXKXoe6Nt1ne+htDcXNvMur8POV+ZXXPN/fmqdkVmOHbOftu1A/jzWV5knb0r629ra+SuxLa9oeD1HVjx2zLXG/Xcfft50q9Q1tW9L7Jqk5vXo2T5SfsXLwR7vla5PX/Zm1DfPv9+5jWVySsvR9vfkbxmqerrb4uFQXzY9lWdqX16bbudjfNkff+FxVP3ZMpTSm6zj69tFX3zW+6ltXaZ60Le1ray/1xba0L9aWxJrD0La/MceR1rY97tI1vk2sKUn78zF5X3ycy+v6pGNTpb6hbUPUP+uaY1iRLrjUPwur90nZz/38vU7ne6/2S3Lmx7H8Piw/trV/v6wcU+nsyvz32fZ+3h/M2S0fn44t9VW6+qJYk9a2PS5tp+25tvYon4P9tPehuP5h0LcC3PumdZj0C7f0BV1qa5P3l+r75mjX/ODLfqCuhNoqzC7VND/sWl7PTUPx6vj2H/x9+l6/uN31GlZ96yrNt0ub7LM0NrYNnbeqS2vzcUPn2Yb8OPqkY1OlvqFti++xNouv6cL3YvPGY/V7Yz528X20pZ9bm1v9Xo4Wb8YWPzO6f4YMVc3Z1d7Wn8pr2raHzFUp1a0zR1qbj+ubJ47P5TWlx2nbuvK5dm3MPtPatsepw34+2ziO/Hl1ScelY0qP2/TV5P1t83fNM7SuMnSesW2j9P1cToLl4mdm/h5pwHuv+e+EfD/5z+LCe6jC+7FBv1+K7+Nyhd8FW/g9VfqcpG2l/lTs76obOkf6OB/Tt53r6u8by37a81A8/wbt/iZu3ritEbxy6Rdx6Qu6rz+V9/dtj7VuAF0dN6BvUChu+VzVP1DL++tSvT65vD/9ONa643Zlk+MpjR36+lT9eU0+tm+Obeva35hjqWqHKo1f6HhT0PY9k/8xb16XzTHoTcphKLwRapT+KNn1M2So/DXv2y4ZOseQuSqluqFzVP15TT62b45KqaZt3lJfat39HaZ195+/Bm3SMdtW2t9Qpfkqpb7SmLY50va2mlRfTdd+q8dxu2uefEz8mMtrc3l9l9L4wfpCYN3f935o1erPzcKYfN8t75/y97yDfr/0Pa+Zep6VP3jO31t2Pbc+pc9J2tb1OVunrk+szceMmaOyreNhf+x1KB705muLbyzTL+LSF3Rff2rT8b3y511vr/7AW6z0LCm/pq2vd/E1zn6gNzWr+6p0/yDuUo3vaiv1l+R1Q8cdlnWPJ45rGz9m3qo2rc+3D0u+z/yY0r4updqhbUs63ky0/kEuezMz6GfZkTn6UJy39X5OZvL6VNofP3bpqx0yR1TVpvX5dpdSXdfYMX1j5z4M6+4/Hdc2x2E/t20cR14bt9vac2l7W02qr6Zrv/HxmDnaxgyZq9Q3tG2UvvA4IFxWhrz3yn++5r9P5j9r0/GJlT+69v1MbhZOmvGl98zlY25ssPBUjR+z3aarbugcUal+0zmq7TZpHftrj0PxsL9O1T8MVv6ytZ70C7f0BZ1/7FKqHTN+iPQHaOl1mP+AW/7h3fXDs7VvRCjexh8nKvlrVXod88dd8rpquyStOUzr7jsdV5qjb96qPyq1x8dpX5vSPOsozTH2WCpd8/S1LRGKdxqKq8d98rGl/vgxr83bStK6deap+qNSe3yc9pWUarrGje3L27rGH4Z195+Oqx63ScfkhtSM0TbXmH2ktaXH+ccu26ip+qO4nfbFx6XtvL36mD5uq0nbU6W+oW2jbCEUD37vtbSYMf85nL6HGvqzduzP5PnxzaU/90s/77ch/5z0bbfpqhs6R1Sq38Yc0di52A/7G4qXfli02fy0jlT6Rdz2BT30C72qK9UOHT/I4o33/HVYDqTNXwWzN+xdPzxb+4aE4o431mOlr1HpcV9/Sd7XVXsU1jmeIc9p7LxVfRyTjh0yTzp2E21zjJ27VD+0bUnHm6C275n8zcXYNy2H6+hCcdfno+vz0jWury2X16w7T6qqj2PSsX3zlPq7xvT1jVGaY9fW3W86rm2Ovrmr/nX3n+uaZ8w+Ym0+Jt0eMt/QfZbqqrao1Fd6XNpO22Nf+jGX9peU+oa2jbJxKB7z3it5D1vNmwfS3n3Nrfsz+bB+T6Wfk00+Z111Yz7vsTYfM2aOSlUflfryNvbf3obi+pu173SN+gfG9r6B0y/iri/yIV/sm44fpvnL4ukqtK6+DuUfeNU3cPk1a/+BWA7A1VzpG+k4/7ZWiyv5a9W1nffl7UNqj8rY4xlaP6Yur+3bLhm6vy6lOWLb0Pnb6rrmbtX1xqT5g9HSz6q6fr2/+FcW36f5G6RU3G/nG6aD79Pu78mjCcWl1z1vK9W0aRvbNcfQ+cfU5bV926k4PleqrXT1DbHp+E2tu/90XNscQ+be1vPvmmfoPmJdqX7scab11eMu6bh0zJj2ypAxXeMrY/dbau/bR6/mZ2vp52FtQFAd896r7pvVfm42ZnWfTcDu+Xm73s/kUnhvfmd0/e4ZKX4+Nv68zHTNMXT+vK7aHnNssb5vzJg52R97Gorn35h94WpQcB4h/SLOv6D7trtUtaXxY+ZoE3/Yln+AH7wprlU/6PI/JCzeXK9amrN5oz9X/UJI/sIZa2YOfvgn1vgcVePSj3l73haV+krbpdqjtO3jGfI8q74ob08/5n2l9thXah8rn6e03bevtv60PT7um6v/TVD2fVaoHfOmpf65Vs3T9cZk8f3YcVzJ93bpZ+liPysOjnOXoXhIW1d7Lq3LxwydIxfHdY2v+qK8Pf2Y97W197XF7VLtEJuO36ZNnsMYbXOU2sfqm2fIfvKaanuIdEw6ttReMqY2SvefK9Wn2mpie19/V3vfHKMsvd+ZSX8G9v4+qAx477VS2/YzNQbjZWP/6Dr8vVn++6zS93zLqrH59hDpmFSpL7Z1jYv65m5Tqi219cnHsH/2MhQPetPVvOHrC85jpF+0bY9TfV/kVf82aqYqf13Gvk5t9fE171Iat0u72Ocmcx7FaxDFfVcfu44j9uc1XWNyY2rZjdLnMDX0cxTr2uqHzpNbd1xlk7FdNp13V8c11lF8TrZpyHEc5rHuy+tS0ndsbf1jntM+P382t8nXiK8NhtjDUFxegczVwblrJQUAAAB67O+NtgAAAGDHhGIAAAAmSygGAABgsoRiAAAAJksoBgAAYLKEYgAAACZLKAYAAGCyhGIAAAAmSygGAABgsvY/FN/+1fD7hx8/cN+ZcLFUd9huuRLeu/BueO2WQt+J9Fq4+6f/Ee799ncKfWuKn9t9+Zz2eiJcvvp2eH3h5XC+WLc9z577TXjv9CPFvnVVc75/oXItPFvoBwCAKdnvUHzzmfDrWWj6+e2FviP1XHhrFiq2HVZ25q9fCH/1P34e7nyk0DeYUJw69dTVQwnF8z++bO9r7fzpd4VhAABI7HUovnjXN/YwMD0SXvvab8L7554r9O2pfQ3Fx9ihheLKHddmQXYbZyXMv3aPzR9zAADgEOx1KH7h7P6tIh7LlTaheOsONRTP1Kc8f+3KhvsTigEAIHfMQ/Hnw8/jtca1b4Q3b077bw1v3vd4+PVdt2bXJud1Qw0MFY9cCV+ahdDor/7+wazm78KdSf+X/sc/h0//ddJfh9iq7cHw6X9K6n74d8kccx/9+39O5qkczLXal7oSPpnN1W01FH/8238IfzNr+5uf/ip8aqm2R36d+NnPt9R8NbyQfY7rz2Ve2+Xhl2fh9Wq4dE/Wfs/l8NLVt8NLT92b1Q67Zrg1FDfzXn44bZ9fi7y0r0q+v+efWO5PNadRv3VHoW8woRgAAHL7F4rzwJRZXF/cXG+chqT6dOu0pgnF87FVwJq3r70CPSCYxCCarsp+9O+vHITeZtU2DcorY5qapbYmaC+t9tZtWaAu2cFKcQzEdz9Uqh2q+fy0huLq83bwB4z553fsHzSam2NlgXMl1FZhdqnm3nDp1dm4Vy+HU4u2A5uG4tXxzf5ag/E2Aq1QDAAAuWO7Ulzuy0NWs53VzcPVQUgerL62s+PU6ULgzX3yh7Ow+08vhI8utTcrwnEluBhi56vLq2F6wIrvlkPxp75frQ7/Idx5d6lujL5QnAXgNW+8Nj6AzrUG366+QaF4vr1cM1OvHJf3V9n4FOrJ3TEdAAD6HdNQPA9TpVNpl2/O1RG61tB7PXHvyu08/JZCcx1wY1geGIqXT8Pu2O8WQ/H8dOlNV4ijwwnFK0G13l49pfr887OgPKtbtoNQ3NSs7qtSONW7sXYobs5w2PyaZAAAOHmE4jH6VooPPRRHy9cer4Tfia8UV+rA26wM14E2Oy16HoiXA+nOVoqLNf3qULzJXc+3cl0yAACcLNM4fXpbobgvVAwIn9s8fXpVNk+05VB800e+E+58ZY0bbK04vFB8cGry/NTp5UBaPp16Z6F4ZXsI1xQDAMAuHNtQHG/EtHqjrTRIbTkUN6Gia7WuDr3ZavHSjbaaG2al4XZ+bXAyZu1Q3FbTnGZduHv1cMs32jo4nXqTYHyIoThex/tUFVpXw2y9UpysHs9Db7V6PDIUtwTgaq40BMf5B68Wb2WVVygGAIDc8Q3FlSYkze9SXMlvnrXtUByvK+6+WVG8m3S0ElKb0HtQk90sa2AongfwZa2huW+fvfJQPHP32+HeOhiPO5V6/seL9PMWJSF466H4IIiWV2gPwmutCsj5ja86rgVemnPpXy1Vp2TPV6Lz/R4E70TLzb/qU6f9n2IAANi6vQ7F+6l/tRi2qr6WfRt3jRaKAQAgJxSvI97NVzBm15qvtW0F2XrFuetmcQAAMDFC8brqsOJ/vrJbVYjd7spuc6ZD9Ucd4RgAAIRiAAAApksoBgAAYLKEYgAAACZLKAYAAGCy9i4Uf/r2vwwf+fO/KPYBAADANgnFAAAATJZQDAAAwGQJxQAAAEyWUEzB98KN3wvhQ49+r9C3BQ+/HF6/+vaB558o123TQzeG//ztDSFE79wYnkn6Tz11dXYsL4fzSVtRzzxT8KdP7vBrAwAADtkkQvGZK98KP7z2xXBroY9VVej54PfeCX9W6Nuue8OlVw8zFH8g/PKhQt/M4FCceOaVD0wyFN905zvhQy8JxgAAnAxCMUv+7NE/hg++9Lvwp4W+7ROKj60v/272dfLHcOOdhT4AADhGhGIONCuAH/5yoW8nhOLj7PDOKAAAgN05waH4VLj4i1kYbvHMD25r6m4LX7/WbD95f1LzaPj6/ctz3vqDR5P+mTRo3//F8Mys7eKTy2MWx3HlVNI232f7vjY4pkJNPLZFTcsfCOpV4paQc/75WXh99XI4lbXPw+TVcOmevG1WHxXGzXWE4vq64+V5b7rncnhpNt/lh5O2mfrYkv3l/bXRofiJcLmZ76Wn7l2qjQ4lFOfXX8+sPr/mdVzUZK9bo/t1ms9RPdflz1/HHwp6/4jyePjR9evh+vUfh8eK/QAAcPSsFC8F1PvDmaZ9ZcwsnB4E6Uoedpt58v3UoTYNqvNxS3Ot1Aw/pmIIThVqyq/H/OZaH3zyzaQt0YSzUpBaCrWzuuUQ2YTL4mrwpqG4ML4lOI8Lxc0xt4b5uZ2H4rbnsmR+rEuv+cprN+R1amqq572o6/rcVfpuyCYUAwCw/4TiljA7X4E9CKQlQ0JqXlPPu3Isycpwst13TP3HmM/bqFeO8zD9Zvhw56rfiACaaVtl3jgU1zWrK5n1/vI5h4biZh/tQfDAzkNx6TXI1Me98trOX9dFUB70OpU/F+2fuzmnUAMAcNwJxTGALp3eXNLU1au3iaV581Xg+fbF5JTq+ljS8al81bn3mJrV6lppxTjtX5Ue15DrifNTjLsC2cHpt40dhOL58WT7ifL9DQrFLWNb7P706eXXsvTHh/yU6CXN6zrsdRKKAQCYJqF4UACNgXh5VbY079JKcL1y3D9m1dBQHC0H9oOwWzhVu1XfSnFlfjrtPJzNQ9TyqdIxxC2vSrYHq22E4tUV0KLjuFKcSMNv+pr3hdbKsNdpg1Dcdso9AAAcA0LxoABaDpfFeZNTk6v+fMyQ07LHh+IoHzdmnp5riht1SKqCUx0e86BVuL51ZleheMjpxQtjrimu5119HrnDDMVR/loOCryDXqd1QnHfNcUAALD/JhGK50G0dHpxZUhwXK2pA3G1MrsStue1z/zgi7Mg3XFKc+dq8ZgwmyqE93q1ethq8aD/UVwHrJfDpSqMrYTZ1WBVh6pqhXNsKM4DcFzBTdvi+N5V0JlRN9qK293BuDsUNzepGhraBym9Xs1+OlZzh71O5c9FZygefPfpn4Snz5T6AQDg6E0iFFcWIbZxEBIHBtD83xrN6pdOlU41QbR9ztK1vmmAHnZM+XOqFMNvPJ5U6bibkNO98hcDVkvYS8JrbRay6oC5srqZ1Cwsz7lcVwW69PTtKB7PsuWamZGhuLII9KXQPtMdipPjahnfp/g6FeeKATyVf376Xqfxobj/euKz4ek3qlB8Pbzx9NlCPwAAHL3JhGKGGbRafBz1hOJ19J4+PfA07GPpy7+bfZ38Mdx4Z6EvdeHHQjEAAHtNKCbTXFt80oLxoYfiuDI74NTu42bQGQWVuFLs/xQDALC/hGIKTuANlOpQfEMI0bo3yBowz+K0587rfI+v6rTpvq+Nx16cnzZ9/Y3vhi8U+gEAYF8IxQAAAEyWUAwAAMBkCcUAAABMllAMAADAZO1dKAYAAIDDIhQDAAAwWUIxAAAAkyUUAwAAMFn7GYpvuRLeu/Cb8P7Me6cfKdcAAADAhvZ7pbgJx2/dUegDAACADe396dPPnvtNeP/cc8U+AAAA2IRQDAAAwGQJxQAAAEyWUAwAAMBk7X0ovumOa+H9C++G124p9AEAAMAG9j8U154Lb9X/oulaeLbYDwAAAOPtfSg+f/pdYRgAAICdcE0xAAAAkyUUAwAAMFlCMQAAAJMlFAMAADBZex6K53edfu/0I4U+AAAA2Mx+huJbroT36n/BZJUYAACA3dn706cBAABgV4RiAAAAJksoBgAAYLKEYgAAACZLKAYAAGCyhGIAAAAmSygGAABgsoRiAAAAJksoPukefjm8fvXtA88/Ua4DAACYoEmE4hfOPh5+f9+ZcLHQNx33hkuvCsUAAAApoXgyhGIAAICcUDwZQjEAAEBuP0Px7V8Nv3/4q+GFj9wa3rxvFmgfbpz9fFab9T/8jfDmzbHv8+Hni/ZVv77r1nndzWfCr2fbP789jjsYu6iZuXjXN5pgvTxvWlOH7+oY6+OPNekxDXP++Vl4ffVyOJW1n3rqanj96tVw6Z68bVYfFcbNdYTi+rrj5XlvuudyeGk23+WHk7aZ+tiS/eX90Ree/km4fv16eOPps8V+AACAfbDHoTgLnSvhdTW4zsethtDOleIxoXjWVlnUZvur91PVLPbVhPaxq9TNzbGWA2ch1M7qXnrq3qTmiXC5CqvF1eBNQ3FhfEtwrgjFAADAcbDXobgrqB6s3KY18xC6FJRntheKs8CdjS3tZz6uWvU+aOs3LoCm2laZNw7Fdc3L4Xzsb9T7K4ZwAACA/bfHobj7tOPFqmxJdpr19kJxd7jdXiiOp0UfhNB6eyXsNkG3Wh1O7SAUr5ymnWo9ZRsAAGC/He9Q3BZ0M8cxFMdToeehdB5ol0+VjoF4efV2VyvFeUgHAAA4CY5tKB4TNo9nKE5OTa4Dah5I56F5OSjv+vTprAYAAOCYO7ahOAbXIavF82DaNl8egJt59yAUx+t4L1WrtCthdjXk1oG49XTmjlCcB+Bmu5pr0dayMt0m3mjr+ouPF/sBAAD2wTEOxZWDAHugPK4OrEldGnjn+0vHr96w60hC8SKItqzQJuG1Ngu8+bXH7dcCL8+5XFcF3/T07Sgez7LlmsaFH89D8fUfh8fyPgAAgD2xn6GYE+BsePoNoRgAANhvQjG70awU+z/FAADAPhOK2a4z3w1v1KdNXw8/ulDoBwAA2CNCMQAAAJMlFAMAADBZQjEAAACTdcOnb78r/MWtpzbyne98Z5DSWAAAADgqWwvFn7jjjk5CMQAAAPtGKAYAAGCyhGIAAAAma6uh+KfXbwjht5Ubw0+FYgAAAPbcTlaK63D8//2XcDlpE4oBAADYN7s5ffr//i/hj7/9X8M7/7dQDAAAwP4SigEAAJgsoRgAAIDJEooBAACYrN2E4js+E975/24I4fr/sWgTigEAANg3OwrFc5f/3/+1/hdNf/x/PyMUAwAAsHd2FIr/j/C7JgzHNqEYAACAfeOaYgAAACZLKAYAAGCyhGIAAAAmSygGAABgsnYSiud3nb4x/DRpE4oBAADYN1sNxT+9fkP9L5hCtkosFAMAALCPdnP6dIFQDAAAwL4RigEAAJgsoRgAAIDJ2looHqI0FgAAAI7KDR/9xKfCTR/5JAAAAEyOUAwAAMBkCcUAAABMllAMAADAZAnFAAAATJZQDAAAwGQJxQAAAEyWUAwAAMBkCcUAAABMllAMAADAZAnFAAAATJZQDAAAwGQJxQAAAEyWUAwAAMBkCcUAAABMllAMAADAZAnFAAAATJZQDAAAwGQJxQAAAEyWUAwAAMBkCcUAAABMllAMAADAZAnFAAAATJZQDAAAwGQJxQAAAEyWUAwAAMBkCcUAAABM1skOxU/eH374i0fD1+8v9HV4/doNIVy7qdgHAADAybG/ofj+L4ZnfvGtcPHJQt9Qa4TiZ175QAi//ZPweqEPAACAk0UoTn33T2aB+APhlw8V+gAAADhxhOKFm8K//faG8J+vfKzQBwAAwEm0pVB8KlxsDbC3ha9f+1Z45ge3Ldpu/cGjs7D6rQPXvhhubetbcn8409Qt1MH3oCbdz7yvGjM/vlhTPM56ldhp0wAAAFOy1VC8FEizvkUQnQXV5bomsF45lbTNDFgpjgE6rbn1B/cfrAwvAvPBavF8zOrqcX1zrXduDM8kbQAAAJxsWwrFy6vBdfCMq791uO0+hfnMlVlwTVaLa32huOkvB/FG6fTp4rwfC798x6nTAAAAU7O1a4rrYFuv9s4D8iKM1iE0Pe059mfGhuJS4M0NDsWuJwYAAJiirYXig9XhU+Hi7OOZ2Xa9ilsH0xiKYyBevjZ4rZXirYZiK8UAAABTtLVQXAfQKtjOPtZhuAqfTTg+CLzla483OX26tb8yOBS7phgAAGCKtheK67D56CwIxxDaXGc82z64iVazUpzcVKsOxLOQuhKK227AlZiPXQ69qzfaGhaK/Y9iAACA6dleKI4hNgm38e7QSyvDTShdXEs8C71LN+ZK5bWFf8kU9xEt7WtMKG6uKw7XbsraAQAAOKm2GIpPAKvFAAAAkyIUZ+priwVjAACASRCKC+pg7DRqAACAE08oBgAAYLKEYgAAACZLKAYAAGCyhGIAAAAmSygGAABgsoRiAAAAJksoBgAAYLKEYgAAACbr+Ibih18Or1+9Gi7dU+hrceqpq7Mxb4fXn3+i2A8AAMC0CMUAAABM1qRCMQAAAKSEYgAAACZrf0NxHXrfPvDq5XBqpf/lcP4jT4TLSd1LT92bzLPcV64BAABgqvYyFM+v/U1Xge8Nl16tAm0Vgpu2RWhO6npXj+chWSgGAACgsoehuCW43nM5vDRrv/xws10MwPPw3B56hWIAAAAO7F8orsNvabU3C7wtq8Lnn3+74+7SQjEAAAAHTlgobk6zFooBAAAY4ISdPt0XeoViAAAADuzljbbqU6CXAm+zApzegboQiufjkptxregKxfO+0inZAAAAnEx7GYor8ztQVyG1kZ8S3awcL9Xk/7ZpRVcoboJ3NU/r6dcAAACcJHsbindjHooXp2Dn6tVnp1cDAABMxYkOxdVqcxqA56vPbadXx5XirtOvAQAAOElO+Epxckp0rRx4F6dq955+DQAAwEkysdOnAQAA4IBQDAAAwGQJxQAAAEyWUAwAAMBkCcUAAABMllAMAADAZAnFAAAATJZQDAAAwGQdj1B8y5Xw3oV3w2u3ZO13XAvvf+1KOJ+2HTPPnvtNeP9C5Vp4ttAPAADA7hyDUPxceGsWGt87/Uih75Hw2tdmgfKYBuPzp98VhgEAAI7QnofiJvSee67QF3WF5n02f27H77gBAABOjr0OxYNXUqvTqEunV2/TX78Q/up//Dzc+Uihby1CMQAAwFHb41A8JjQOWVHe3Ef//p/Dl2bB+K/+/sFi/zhCMQAAwFHb31Bc31zrN+GtOwp9BfWq8mFcW/zIlToYf+mfXggfLfUPJhQDAAActf0NxfUp0SNuQrX2KdR/F+6sQm7RP4dP/3XXmCvhkyt9A7XdURsAAIBDs7ehePSdmQ/juuIlD4ZP/9M8PI+6zrhZAT/u/0oKAADgJDhhK8WH9e+NtrVSPPz0cAAAALbPNcVjT59u7kLtmmIAAIDjb39D8ag7Srv7NAAAAOPtcSiO1xUPuE74MK4n9n+KAQAATpy9DsXDVoCfC29dOI7hUigGAAA4anseimfi3ZqLwbgJzcf0Ts7Pnpsd+6HdHAwAAIDc/ofiStv/9K1Omz7W/9qoCfVV6BeOAQAADt3xCMUAAACwA0IxAAAAkyUUAwAAMFl7F4o/fftfho/8+V8U+wAAAGCbhGJOpH//l4vF9qHy8ZvOBwAA7CehmBNrkyC7SSiuascozQEAABwOoZhjrRQyhyrNF+X9pfq+OfpsOh4AANicULyXvhPufOU/wt/8NPpDuPPuUt22nAoXf/Gt8MOF+8OZYt2O3PlO+NBLfww33rnc/uI/zsPrL/92tv23D9SP//0f71qqKcnD5tjwWarfdM5c3/hL/3ChrvnXf7gt3HTfl8K/zh7/+8++FC4t1X0v3Pi9ED785bQNAAAYQyjedw/96hBC8YFbf/DoIYfiN8OHXwrhQ49+b6VvHgwvhJ/dN9uOwbAjFMeg2RZg+4JoVKpL24bO02bQ+OaPAPUfBD5yV/jl7PFqKJ758u/CB2evn2AMAADrEYr33YkOxfOVzg8++WahrxyK65XTQm1XaO3qy1X9pZrY1je+S9vcRaVQ3PIHgT979I+zYPy78KeFPgAAoJtQvO9OcCjuC3NLobgJhqVQnAfNsdupqq/U39Y+xqjxS6H4tvCzn7WH4r4/LgAAAO2mEYrvfjvcu7g+d+b7r2U1+TW8/xHufmi1/95vfyd8/Nt/SOp+FT61NM9MHWK75qq8Fu5equkIvX2hON/fynMbpzsU3xa+fi299vhb4eKTq3VnrizXRM/8IA208yBXOm36qMTQWgqvmwbiyjbmaFWfRr16XfbChR+H69evh+svPl7uBwCAiTr5obgJjVWgTdsOgmoTUNMwuTImCc2LusK4JnyvhuBEU5MeTwzaxXEdoXg+Lg3mzXFuEIzbQ3FzM64rpw7anrx/JezOA3Ey/v4vhmdWAvFMfXOt7V0LWwXOIUpjK2lfXtc3dqhtzNFufm126+spFAMAQNEJD8WF4JpZDZZzn/r+bNwrb4eP19vlsLlcM9MRYKOVMbWOMNs65/y5rQTpur6wgj1QWyhua69D8LUvhlvr7WYlOQ3OxbaZemVz+9fBtgXPMYE0rY2PtxFotzFHO6dQAwDAOk52KB6wcluH1NYwGsPlwFCcrigX9zvvX1q1btThfCUsz7SF4vyU8CXdwbxLZ/jNg22lXi0+qG9bKc5Ps97lzaHy8Dk2jJaC8DYC7TbmaCcUAwDAOoTirYbirK8Jqflp2NsMxV3PbR2bhuL5+CoYH1g5dbqyo5XiqBRshyqNaZtnzPzrHMtw+3eNNgAAHAeTOH26FEKjrZ4+XZDXlMeU56+1heIBz20dm50+Pb/uuHTzrRVbvqa4ZN0QejxDcc81xQAAQNGJv9HWPPRmK6qzoLnYjqchp4G0DqLpmHVDcWFcM3caZufH2HLKc2sobnluLU49dTW8fvXt8Pqrl8OpQn/UFn7jadClG20dhOB5KC6uDK/Y3em+VfiMATR9PFSpvm2OMXOPPY5Rht59+o3vhi+U+gEAYKJOfCiuNUF0YWVFtrkh10IeQoeF4hhSl6zsa2bleuB8pTo/nkQ239B9nn9+FojbQnEMvAXLAbe5A/XCo+Hr9yfzVJqgvGKxmnxgfl1xR5AbqQqdXeF1aCjtmyNXqk3FmiG16xnwB4Yz3w1vVKH4+k/C02cK/QAAMFHTCMUcjpabarX+W6YtrBaPCaeVIfVD5xpjF3NGQ29a9tiLQjEAAOSEYrZn5XTqnvZKc22xuyavqT5tesC1xHGl2P8pBgCAJUIxW1W6+3TxNOtUHYy3dxr1dMxX2rsD8ePhR/Vp09fDG0+fLfQDAMC0CcUAAABMllAMAADAZAnFAAAATJZQDAAAwGTtXSgGAACAwyIUAwAAMFlCMQAAAJMlFAMAADBZ+xmKb7kS3rvwm/D+zHunHynXAAAAwIb2e6W4Ccdv3VHoAwAAgA3t/enTz577TXj/3HPFPgAAANiEUAwAAMBkCcUAAABMllAMAADAZO19KL7pjmvh/QvvhtduKfQBAADABvY/FNeeC2/V/6LpWni22A8AAADj7X0oPn/6XWEYAACAnXBNMQAAAJN1/EPxPZfDS1ffDq9ffTmcL/UDAABAixOwUvxEuFyH4rfDS0/dW+gHAACAshNx+vSpp67Wofjyw+V+AAAAKNnzUDy/6/R7px8p9EXNSvGrl8OpYj8AAACU7WcovuVKeK/+F0zdq8Tnn5+fNv36808U+wEAAKDL3p8+DQAAALsiFAMAADBZQjEAAACTJRQDAAAwWUIxAAAAkyUUAwAAMFlCMQAAAJMlFAMAADBZ+x+Kb7kS3rvwm/D+zHunHynXDHI2PP3G9XD9+oEfXZj3feHpnyy1v/H02WzsFl348WwfPwlPnyn07cRd4Zf/cjH8+788EF6cbb/4j9Xji+GXf1uq3S9Lx/q3D9SP//0f7yrWdrrjWv31U3nrjkI/AAAwWXseip8Lb20chucee3EWeN/4bvhCoe/A4+FHJy4U3xZ+9rNZmPzZl8Kl2falf7iwH6H4vi+Ff+05jvmxXgg/u2+23dSvFYqjOhy/G167pdAHAABM0n6H4jrEXAvPlvpGmYfduDLcbiqhuAmaK7WHaM1Q/K//cFuxdphHwmtf284fWQAAgJNhGqH4zHfDG0JxHYrnpyEfw1DcnAYuFAMAANskFC9pC8XN9cgvPr7UXjwluw69B9cnV5b2W/f/ODzW7KtYs3BvuPTq2+H1q1fDpXtK/VtSB+XqmuN4/fHcagBtAnZSUwq18RTtAwchfLUvNb/uOZ9ve4RiAABg2QkOxas31lpSvL54w1A8JHwvQvPBavEX6ht9lVaPDzMUz4PpIuQ2bQehtwnM6TW9Tc1SeB66Ej1gpXj7hGIAAGDZXofiZ8/9Jrx/7rli3yiHtVI85NToUs3g49uRlQBcaVaFmxA8X+FdXcmt7xAdT82eaatbcSSh+JPh/Ol3t3SdOgAAcBLsZSiuw/A2/33OoZ0+vbw6Xdzf3obi1dXdNPDWj0t3fq7HpiE4PQW7Y8X4iEJxLf6br69dCedL/QAAwGTs/0rxNoLLoYXirK8Jx0vzHbdQ3ATh4aE4Wr7+eCX8HlEo3trXFAAAcCK40daS7YXiaNAp1nsZiuehNl4vPPT06VXLp2EvuKYYAADYA0LxkrZQvBpuFyvBnaG4EKZHheLDvNHWciiuw24agpsQuxRu63F9wbbtXykVbty1c0IxAACwTCieSU91Xlb966RYNw/Msa8Kzl+o7hqdhOJ6O6mpZavL+xuKqxCcKK7+Lv/LptZTrpdqOv63cAzaCwNu0LURoRgAAFg2jVBMt+Lp0yeRUAwAACzb71Dc3CVYiNmxqYTi5utpa3c1BwAAjr39DsWVerV4/i+ahOMdOemh2NcQAADQYv9DMQAAAOyIUAwAAMBkCcUAAABMllAMAADAZAnFAAAATJZQDAAAwGQJxQAAAEyWUAwAAMBkbTcUP3Rj+M/f/kl4vdQHAAAAe2brK8WvX7shBMEYAACAY2AHp09/LPzynVkwvnZToQ8AAAD2x26uKa5Po74h/Nt3C30AAACwJ3Z2o636NOp3bgzPFPoqX3j6J+H69evhjafPFvsBAABg13YWim/67p90XlssFAMAAHDUdheKnUINAADAnhOKAQAAmKwdh+IPhF8+VOgDAACAPXBk1xQDAADAUdtZKB569+nrLz5e7AcAAIBd200oHnI98YUfz0Px9R+Hx0r9AAAAsGM7CMUfC79854YQrt1U6EudDU+/IRQDAABwdLYeiuvTpodcS9ysFPs/xQAAAByV7Ybi+rTpnkB85rvhjfq06evhRxcK/QAAAHBIdnajLQAAANh3QjEAAACTJRQDAAAwWUIxAAAAkyUUAwAAMFlCMQAAAJMlFAMAADBZQjEAAACTdcih+Dvhzlf+I/zN918r9LV5Ldz909mYn/4h3Hl3qX+oe8OlV98Or189cPnhUh0AAABTMZlQfP75WRB+9XI4VegDAABgmo5BKN6GJ8JlK8MAAABkphGK77kcXhKKAQAAyGw5FDehtz7dee7uh1b77/32d8LHv/2HpO5X4VPJPMt95ZpRekPxsOuNTz11danm9eefWKmZ+3z4+cOPh1/fdWuh78ALZx8Pv7/vTLhY6Js7G55+43q4fv0n4ekzpX4AAAA2scVQ3Fz7m64CP/SrOtBWIXjeloTmRV3/6vE8JI8NxatBd8ni+uL5qdVLAffhl+ual566d9FWX5N89eVwPtbEccXrlIViAACA42BrobgtuH7q+7PA+8rb4eP1dksArsNze+hdLxQnOlaK56u/adidW7oxV9v4OjxfDZfuydq3FooBAADYpa2F4jr8llZ7lwJvSyi+++1wb8fdpXcZiuvwWzoNug68TVhOHy9JbuB1+1fD72dBuNXZz8/q52G52F/7anhhZR8AAADsyn6E4rrmmIfipXYrxQAAAMfBXpw+3Rd6nT4NAADALmzvRlv1KdBZ4G1utHVwB+pCKG7GHdyMa1VnKG4CazmcNjpC8WJ84UZbB/Xxpl1peC7coGth2zfauh5+dKHUDwAAwCa2F4przR2oF1ZPia5Xjpdq8n/btKozFDcBdu1QXGsC7kJ5rvkdqA+kd6felcdenIfi6y8+XuwHAABgfVsOxbtRh+LFKdgTc+a74Q2hGAAAYCf2MBS/Fu5eCsDz1eeu06tPsvlKsf9TDAAAsAv7uVLcXIscTTEQf+Hpn8xPm77+4/BYoR8AAIDNHYvTpwEAAGAXhGIAAAAmSygGAABgsoRiAAAAJksoBgAAYLKEYgAAACZLKAYAAGCyhOKPfCfc+crB/0T+m5/+Idx5d6luW06Fi7/4Vvjhwv3hTLFuRx66Mfznbz8QfvlQoa/L3W+He2evz91jxjVj/uanvwqfKvUP9kS4fPXt8PrC1XDpnlLdZl6/dkP4z1c+VuwDAABOJqE49dCvDiEUH7j1B48ecii+Kfzbb9cMfkcWiu8Nl16dBeHnnyj0bVn9BwPBGAAApkQoTp3oUPyx8Mt3bgjh2k2FvgHWCcXbcM/l8NKOVoaLvvsnIayzkg4AABxLQnHqBIfiZ175wCzs/Ul4vdA3yFGF4odf3tnp0m2q06jDOzeGZwp9AADAybL9ULw4Zbbx/ddWaj7+7T8c9BdqPvX9pq0OqbGuFFZfC3en81RW9pfXdITevlC8dDwzhec2Rncovi18/Vp67fG3wsUnV+vOXFmuiZ75wW1J3XyVuPu04J7Xqf68Vm3ZNdilz93SPDOvvB0+ntSM0huKm9Ork2uOLz+8WnfqqatLNZ2nYzenUf/bdwt9tcfDj65fD9ev/zg8VuwHAACOi+2G4iY03vvt7yy1pauL89CUXmPahLEkOC2C1aKtCWJL4app6wqmTUBPjycG8uKKZ0cono9Lj3vA/nu0h+LmZlxXTh20PXn/StidB+Jk/P1fDM+sBOKZvpA35HVK/tiRt3WtHtefy9GhOL+xVmYRaJu6NODWIfrt8NJT9y7azj9fjXs5nI81cdyrl8OpRVuq748IQjEAAJwUWwzFTbgdEFJXQlQWRktBajWUzve3FMAz5UDWEWZbQ/F8X+XjXv8mUm2huK29DsHXvhhurbebleQ0OBfbZurrZNtPnR70OrV87uqxHZ/z9UJxomOleL76m4bduToEx8BbX5NcWD3uWYF2CjUAAEzD9kLxgFXD9hC5HDqHheKD1czaSjCbh7pSaK7HlYJaWyhOVklXlVeWh+gMv3mwrdSrxQf1bSvF+WnW3dcTD3ydWj6/ra9lY5ehuA6/pdOg6zFNWE4fL5mvFpdOta4IxQAAMA3HOhQv1PM2IXUxbvuhuPO5rWHTUDwfXwXjAyunTlc6V4o3C8V9ofdYh+J179QNAAAcG1s/fbrrdObWcJmF0dGhOBowz8ppwam2UDzkua1hs9On59cdXyzcfGtFzzXFg16n4ueu47Vs7DIU7+706SE3JgMAAE6Crd5oax5cs+A0C5oH202IWgq388CZBqt1Q/FKTR1yl8PsvKbllOfWUNzy3Fos7nTceiOnubbwG0+DLt1o6yAEz0NxcWV4Rc//KB7yOhVCcedr2egKxYNep67w2gTe0o22DkJwvDt1Gp4LN+hKDb779E/C02dK/QAAwHGx1VBcawLWQmEVsQ5KSU2+AjsoFDchLZ2nGJpX6vKaJpSXZMceg3FXTWV+t+OWsBcDb8FywG3uQL3waPj6/ck8lSYor1isJh+YX1f8gfDLtlC/1utUeL0zXaG483WKOld0K03AXeg41TqpS+9Oneu/nvhsePqNKhRfD288fbbQDwAAHBfbD8UcjpabarX+W6a+1eIdqUNxx+nVe6e+/rrjjwfRhR8LxQAAcAIIxcfVyunUPe2V5rTgnQXjarU5DcCFU673WvP69F9LHFeK/Z9iAAA47oTiY6x09+niadapOvgNWAldU36K+bEJxDPVadN9gfixF+enTV9/47vhC4V+AADgeBGKAQAAmCyhGAAAgMkSigEAAJgsoRgAAIDJEooBAACYLKEYAACAyRKKAQAAmCyhGAAAgMnacSi+K5x57FI489m2vgfDZ1baAQAA4HDsNBR/4vQ3w/kHzoZPJG2fOXcpfOX07bPHB6G4rjt316IGAAAADsMOQ/Ht4XMPxACcts9Xj88/8GA4c25mVnP+sW+Gz92c1gAAAMDu7S4Uf/bBWdjtOD365rPhK62nVgMAAMDu7SwUV6dJl0+JLq0Uu7YYAACAw7ebUNyxCuyaYgAAAPbFTkJx6QZbq9x9GgAAgKO1g1A8Pz169QZbAAAAsF+2H4r7brAFAAAAe2Lrobj9BlsAAACwX7YbiusbbPmfwwAAABwPWw3Fw26wBQAAAPthi6HYDbYAAAA4XrYXit1gCwAAgGNm6zfaAgAAgONCKAYAAGCyhGIAAAAmSygGAABgsoRiAAAAJksoBgAAYLKEYgAAACZLKAYAAGCyhGIAAAAmSygGAABgsvY2FH/m3KVw/rEDXzl9e7EOAAAA1rWXofgTp78Zzj9wNnwitn32wToYn/nsch0AAABs4picPn17+NwDl8L5c3cV+gAAAGA9xysUp6vHAAAAsKFjEorvCmeqa4utFAMAALBFxyIUz2+69c3wuZvL/QAAALCOvQ/F9U233H0aAACAHdjrUBwDsdOmAQAA2IX9DcXNv2ESiAEAANiV/QzFN58NXxGIAQAA2LE9DMXNv1+qQnHBmc+WxgAAAMB4e3+jLQAAANgVoRgAAIDJEooBAACYLKEYAACAyRKKAQAAmCyhGAAAgMkSigEAAJgsoRgAAIDJOlah+Pxjl4rtQ+XjN50PAACA4+3YrRRvEmQ3CcVV7RilOQAAANgvexmKSyFzqNJ8Ud5fqu+bo8+m4wEAADg8x2aleEig7TIkAG8aaDcdDwAAwOHa+1Acg2ZbgB0aREt1advQedpsOh4AAIDDt9ehuCu0jgm0VX+pJrb1je/SNjcAAAD7b29DcR40x26nqr5Sf1v7GJuOBwAA4Ogcm2uK1xVDa1soztvGEooBAACOr70/fXqI0thK2pfX9Y0dahtzAAAAcDSOxUpxW/AcE0jT2vh4G4F2G3MAAABwNI7N6dN5+BwbRktBeBuBdhtzAAAAcDSO1TXFpWA7VGlM2zxj5l/nWAAAANgPx+5GW+uGUKEYAACA3LE6fToG0PTxUKX6tjnGzD32OAAAANgfex+Kq9DZFV6HhtK+OXKl2lSsGVILAADAftrLUDwmnFaG1A+da4xdzAkAAMDhOXbXFAMAAMC2CMUAAABMllAMAADAZAnFAAAATJZQDAAAwGQJxQAAAEyWUAwAAMBkCcUAAABMllAMAADAZAnFAAAATNZuQvFnHwznz91V7iv4zLlLo+oBAABgG7YYiu8KZx77ZvjczbPHi1B8e/jcA5fCmc/mtYmbz4avxHGlfgAAANiR7a4UV2H4sUvhK+ceDGdmvjJ7fP6Bs+ETpdrGJ05/s7cGAAAAdmEnp0/XQfexB8NnCn3LqtXlnpVkAAAA2JHdrxR3XStc1w8JzwAAALB9R3hN8bzPDbYAAAA4Kjs5ffogFBf6IjfYAgAA4IjtJhQPUP8bJjfYAgAA4AgdUSh2gy0AAACO3tGEYjfYAgAAYA8cQSie32DrK6dvL/QBAADA4Tn8UOwGWwAAAOyJQw/FbrAFAADAvjjkUOwGWwAAAOyPo7nRFgAAAOwBoRgAAIDJEooBAACYLKEYAACAybqh1AgAAABTIBQDAAAwWUIxAAAAE/XJ8P8Do+k+L70v7K8AAAAASUVORK5CYII=;" vertex="1" parent="1">
                    <mxGeometry x="-1559" y="950" width="965" height="801" as="geometry"/>
                </mxCell>
                <mxCell id="5" value="&lt;div style=&quot;text-align: left;&quot;&gt;&lt;span style=&quot;font-size: 24px;&quot;&gt;&amp;nbsp; &amp;nbsp; 在调度器函数schedular内检测options.flush的值为是否为post，如果是，则将job函数放到微任务队列中，从而实现异步延迟执行。&lt;/span&gt;&lt;/div&gt;&lt;div style=&quot;text-align: left;&quot;&gt;&lt;span style=&quot;font-size: 24px;&quot;&gt;&amp;nbsp; &amp;nbsp; 否则直接执行job函数，这本质上相当于'sync'的实现机制，即同步执行。&lt;/span&gt;&lt;/div&gt;" style="text;strokeColor=none;align=center;fillColor=none;html=1;verticalAlign=middle;whiteSpace=wrap;rounded=0;fontSize=14;fontColor=#FF3333;labelBackgroundColor=#FFFF00;" vertex="1" parent="1">
                    <mxGeometry x="-560" y="780" width="540" height="180" as="geometry"/>
                </mxCell>
            </root>
        </mxGraphModel>
    </diagram>
</mxfile>